999
dxflib 2.0.4.8
  0
SECTION
  2
HEADER
  9
$ACADVER
  1
AC1015
  9
$HANDSEED
  5
FFFF
  9
$DIMASZ
 40
2.5
  9
$DIMGAP
 40
0.625
  9
$DIMEXO
 40
0.625
  9
$INSUNITS
 70
4
  9
$DIMTXT
 40
2.5
  9
$DIMSTYLE
  2
Standard
  9
$PLIMMAX
 10
210.0
 20
297.0
  9
$PLIMMIN
 10
0.0
 20
0.0
  9
$DIMEXE
 40
1.25
  0
ENDSEC
  0
SECTION
  2
TABLES
  0
TABLE
  2
VPORT
  5
8
100
AcDbSymbolTable
 70
1
  0
VPORT
  5
30
100
AcDbSymbolTableRecord
100
AcDbViewportTableRecord
  2
*Active
 70
0
 10
0.0
 20
0.0
 11
1.0
 21
1.0
 12
286.3055555555554861
 22
148.5
 13
0.0
 23
0.0
 14
10.0
 24
10.0
 15
10.0
 25
10.0
 16
0.0
 26
0.0
 36
1.0
 17
0.0
 27
0.0
 37
0.0
 40
297.0
 41
1.92798353909465
 42
50.0
 43
0.0
 44
0.0
 50
0.0
 51
0.0
 71
0
 72
100
 73
1
 74
3
 75
1
 76
1
 77
0
 78
0
281
0
 65
1
110
0.0
120
0.0
130
0.0
111
1.0
121
0.0
131
0.0
112
0.0
122
1.0
132
0.0
 79
0
146
0.0
  0
ENDTAB
  0
TABLE
  2
LTYPE
  5
5
100
AcDbSymbolTable
 70
21
  0
LTYPE
  5
14
100
AcDbSymbolTableRecord
100
AcDbLinetypeTableRecord
  2
ByBlock
 70
0
  3

 72
65
 73
0
 40
0.0
  0
LTYPE
  5
15
100
AcDbSymbolTableRecord
100
AcDbLinetypeTableRecord
  2
ByLayer
 70
0
  3

 72
65
 73
0
 40
0.0
  0
LTYPE
  5
16
100
AcDbSymbolTableRecord
100
AcDbLinetypeTableRecord
  2
CONTINUOUS
 70
0
  3
Solid line
 72
65
 73
0
 40
0.0
  0
LTYPE
  5
31
100
AcDbSymbolTableRecord
100
AcDbLinetypeTableRecord
  2
DOT
 70
0
  3
Dot . . . . . . . . . . . . . . . . . . . . . .
 72
65
 73
2
 40
6.3499999999999996
 49
0.0
 74
0
 49
-6.3499999999999996
 74
0
  0
LTYPE
  5
32
100
AcDbSymbolTableRecord
100
AcDbLinetypeTableRecord
  2
DOT2
 70
0
  3
Dot (.5x) .....................................
 72
65
 73
2
 40
3.1749999999999998
 49
0.0
 74
0
 49
-3.1749999999999998
 74
0
  0
LTYPE
  5
33
100
AcDbSymbolTableRecord
100
AcDbLinetypeTableRecord
  2
DOTX2
 70
0
  3
Dot (2x) .  .  .  .  .  .  .  .  .  .  .  .  .
 72
65
 73
2
 40
12.6999999999999993
 49
0.0
 74
0
 49
-12.6999999999999993
 74
0
  0
LTYPE
  5
34
100
AcDbSymbolTableRecord
100
AcDbLinetypeTableRecord
  2
DASHED
 70
0
  3
Dashed __ __ __ __ __ __ __ __ __ __ __ __ __ _
 72
65
 73
2
 40
19.0500000000000007
 49
12.6999999999999993
 74
0
 49
-6.3499999999999996
 74
0
  0
LTYPE
  5
35
100
AcDbSymbolTableRecord
100
AcDbLinetypeTableRecord
  2
DASHED2
 70
0
  3
Dashed (.5x) _ _ _ _ _ _ _ _ _ _ _ _ _ _ _ _ _
 72
65
 73
2
 40
9.5250000000000004
 49
6.3499999999999996
 74
0
 49
-3.1749999999999998
 74
0
  0
LTYPE
  5
36
100
AcDbSymbolTableRecord
100
AcDbLinetypeTableRecord
  2
DASHEDX2
 70
0
  3
Dashed (2x) ____  ____  ____  ____  ____  ___
 72
65
 73
2
 40
38.1000000000000014
 49
25.3999999999999986
 74
0
 49
-12.6999999999999993
 74
0
  0
LTYPE
  5
37
100
AcDbSymbolTableRecord
100
AcDbLinetypeTableRecord
  2
DASHDOT
 70
0
  3
Dash dot __ . __ . __ . __ . __ . __ . __ . __
 72
65
 73
4
 40
25.3999999999999986
 49
12.6999999999999993
 74
0
 49
-6.3499999999999996
 74
0
 49
0.0
 74
0
 49
-6.3499999999999996
 74
0
  0
LTYPE
  5
38
100
AcDbSymbolTableRecord
100
AcDbLinetypeTableRecord
  2
DASHDOT2
 70
0
  3
Dash dot (.5x) _._._._._._._._._._._._._._._.
 72
65
 73
4
 40
12.6999999999999993
 49
6.3499999999999996
 74
0
 49
-3.1749999999999998
 74
0
 49
0.0
 74
0
 49
-3.1749999999999998
 74
0
  0
LTYPE
  5
39
100
AcDbSymbolTableRecord
100
AcDbLinetypeTableRecord
  2
DASHDOTX2
 70
0
  3
Dash dot (2x) ____  .  ____  .  ____  .  ___
 72
65
 73
4
 40
50.7999999999999972
 49
25.3999999999999986
 74
0
 49
-12.6999999999999993
 74
0
 49
0.0
 74
0
 49
-12.6999999999999993
 74
0
  0
LTYPE
  5
3A
100
AcDbSymbolTableRecord
100
AcDbLinetypeTableRecord
  2
DIVIDE
 70
0
  3
Divide ____ . . ____ . . ____ . . ____ . . ____
 72
65
 73
6
 40
31.75
 49
12.6999999999999993
 74
0
 49
-6.3499999999999996
 74
0
 49
0.0
 74
0
 49
-6.3499999999999996
 74
0
 49
0.0
 74
0
 49
-6.3499999999999996
 74
0
  0
LTYPE
  5
3B
100
AcDbSymbolTableRecord
100
AcDbLinetypeTableRecord
  2
DIVIDE2
 70
0
  3
Divide (.5x) __..__..__..__..__..__..__..__.._
 72
65
 73
6
 40
15.875
 49
6.3499999999999996
 74
0
 49
-3.1749999999999998
 74
0
 49
0.0
 74
0
 49
-3.1749999999999998
 74
0
 49
0.0
 74
0
 49
-3.1749999999999998
 74
0
  0
LTYPE
  5
3C
100
AcDbSymbolTableRecord
100
AcDbLinetypeTableRecord
  2
DIVIDEX2
 70
0
  3
Divide (2x) ________  .  .  ________  .  .  _
 72
65
 73
6
 40
63.5
 49
25.3999999999999986
 74
0
 49
-12.6999999999999993
 74
0
 49
0.0
 74
0
 49
-12.6999999999999993
 74
0
 49
0.0
 74
0
 49
-12.6999999999999993
 74
0
  0
LTYPE
  5
3D
100
AcDbSymbolTableRecord
100
AcDbLinetypeTableRecord
  2
CENTER
 70
0
  3
Center ____ _ ____ _ ____ _ ____ _ ____ _ ____
 72
65
 73
4
 40
50.7999999999999972
 49
31.75
 74
0
 49
-6.3499999999999996
 74
0
 49
6.3499999999999996
 74
0
 49
-6.3499999999999996
 74
0
  0
LTYPE
  5
3E
100
AcDbSymbolTableRecord
100
AcDbLinetypeTableRecord
  2
CENTER2
 70
0
  3
Center (.5x) ___ _ ___ _ ___ _ ___ _ ___ _ ___
 72
65
 73
4
 40
28.5749999999999993
 49
19.0500000000000007
 74
0
 49
-3.1749999999999998
 74
0
 49
3.1749999999999998
 74
0
 49
-3.1749999999999998
 74
0
  0
LTYPE
  5
3F
100
AcDbSymbolTableRecord
100
AcDbLinetypeTableRecord
  2
CENTERX2
 70
0
  3
Center (2x) ________  __  ________  __  _____
 72
65
 73
4
 40
101.5999999999999943
 49
63.5
 74
0
 49
-12.6999999999999993
 74
0
 49
12.6999999999999993
 74
0
 49
-12.6999999999999993
 74
0
  0
LTYPE
  5
40
100
AcDbSymbolTableRecord
100
AcDbLinetypeTableRecord
  2
BORDER
 70
0
  3
Border __ __ . __ __ . __ __ . __ __ . __ __ .
 72
65
 73
6
 40
44.4500000000000028
 49
12.6999999999999993
 74
0
 49
-6.3499999999999996
 74
0
 49
12.6999999999999993
 74
0
 49
-6.3499999999999996
 74
0
 49
0.0
 74
0
 49
-6.3499999999999996
 74
0
  0
LTYPE
  5
41
100
AcDbSymbolTableRecord
100
AcDbLinetypeTableRecord
  2
BORDER2
 70
0
  3
Border (.5x) __.__.__.__.__.__.__.__.__.__.__.
 72
65
 73
6
 40
22.2250000000000014
 49
6.3499999999999996
 74
0
 49
-3.1749999999999998
 74
0
 49
6.3499999999999996
 74
0
 49
-3.1749999999999998
 74
0
 49
0.0
 74
0
 49
-3.1749999999999998
 74
0
  0
LTYPE
  5
42
100
AcDbSymbolTableRecord
100
AcDbLinetypeTableRecord
  2
BORDERX2
 70
0
  3
Border (2x) ____  ____  .  ____  ____  .  ___
 72
65
 73
6
 40
88.9000000000000057
 49
25.3999999999999986
 74
0
 49
-12.6999999999999993
 74
0
 49
25.3999999999999986
 74
0
 49
-12.6999999999999993
 74
0
 49
0.0
 74
0
 49
-12.6999999999999993
 74
0
  0
ENDTAB
  0
TABLE
  2
LAYER
  5
2
100
AcDbSymbolTable
 70
1
  0
LAYER
  5
10
100
AcDbSymbolTableRecord
100
AcDbLayerTableRecord
  2
0
 70
0
 62
7
  6
CONTINUOUS
370
0
390
F
  0
ENDTAB
  0
TABLE
  2
STYLE
  5
3
100
AcDbSymbolTable
 70
1
  0
STYLE
  5
11
100
AcDbSymbolTableRecord
100
AcDbTextStyleTableRecord
  2
Standard
 70
0
 40
0.0
 41
0.75
 50
0.0
 71
0
 42
2.5
  3
txt
  4

  0
ENDTAB
  0
TABLE
  2
VIEW
  5
6
100
AcDbSymbolTable
 70
0
  0
ENDTAB
  0
TABLE
  2
UCS
  5
7
100
AcDbSymbolTable
 70
0
  0
ENDTAB
  0
TABLE
  2
APPID
  5
9
100
AcDbSymbolTable
 70
1
  0
APPID
  5
12
100
AcDbSymbolTableRecord
100
AcDbRegAppTableRecord
  2
ACAD
 70
0
  0
ENDTAB
  0
TABLE
  2
DIMSTYLE
  5
A
100
AcDbSymbolTable
 70
1
100
AcDbDimStyleTable
 71
0
  0
DIMSTYLE
105
27
100
AcDbSymbolTableRecord
100
AcDbDimStyleTableRecord
  2
Standard
 41
2.5
 42
0.625
 43
3.75
 44
1.25
 70
0
 73
0
 74
0
 77
1
 78
8
140
2.5
141
2.5
143
0.03937007874016
147
0.625
171
3
172
1
271
2
272
2
274
3
278
44
283
0
284
8
340
11
  0
ENDTAB
  0
TABLE
  2
BLOCK_RECORD
  5
1
100
AcDbSymbolTable
 70
1
  0
BLOCK_RECORD
  5
1F
100
AcDbSymbolTableRecord
100
AcDbBlockTableRecord
  2
*Model_Space
340
22
  0
BLOCK_RECORD
  5
1B
100
AcDbSymbolTableRecord
100
AcDbBlockTableRecord
  2
*Paper_Space
340
1E
  0
BLOCK_RECORD
  5
23
100
AcDbSymbolTableRecord
100
AcDbBlockTableRecord
  2
*Paper_Space0
340
26
  0
ENDTAB
  0
ENDSEC
  0
SECTION
  2
BLOCKS
  0
BLOCK
  5
20
100
AcDbEntity
  8
0
100
AcDbBlockBegin
  2
*Model_Space
 70
0
 10
0.0
 20
0.0
 30
0.0
  3
*Model_Space
  1

  0
ENDBLK
  5
21
100
AcDbEntity
  8
0
100
AcDbBlockEnd
  0
BLOCK
  5
1C
100
AcDbEntity
 67
1
  8
0
100
AcDbBlockBegin
  2
*Paper_Space
 70
0
 10
0.0
 20
0.0
 30
0.0
  3
*Paper_Space
  1

  0
ENDBLK
  5
1D
100
AcDbEntity
 67
1
  8
0
100
AcDbBlockEnd
  0
BLOCK
  5
24
100
AcDbEntity
  8
0
100
AcDbBlockBegin
  2
*Paper_Space0
 70
0
 10
0.0
 20
0.0
 30
0.0
  3
*Paper_Space0
  1

  0
ENDBLK
  5
25
100
AcDbEntity
  8
0
100
AcDbBlockEnd
  0
ENDSEC
  0
SECTION
  2
ENTITIES
  0
LINE
  5
43
100
AcDbEntity
100
AcDbLine
  8
0
 62
256
370
-1
  6
ByLayer
 10
-139.6999999999999886
 20
-133.3499999999999943
 30
0.0
 11
-139.6999999999999886
 21
133.3499999999999943
 31
0.0
  0
LINE
  5
44
100
AcDbEntity
100
AcDbLine
  8
0
 62
256
370
-1
  6
ByLayer
 10
-139.6999999999999886
 20
133.3499999999999943
 30
0.0
 11
-139.6500000000000057
 21
134.1459999999999866
 31
0.0
  0
LINE
  5
45
100
AcDbEntity
100
AcDbLine
  8
0
 62
256
370
-1
  6
ByLayer
 10
-139.6500000000000057
 20
134.1459999999999866
 30
0.0
 11
-139.5010000000000048
 21
134.929000000000002
 31
0.0
  0
LINE
  5
46
100
AcDbEntity
100
AcDbLine
  8
0
 62
256
370
-1
  6
ByLayer
 10
-139.5010000000000048
 20
134.929000000000002
 30
0.0
 11
-139.2539999999999907
 21
135.6879999999999882
 31
0.0
  0
LINE
  5
47
100
AcDbEntity
100
AcDbLine
  8
0
 62
256
370
-1
  6
ByLayer
 10
-139.2539999999999907
 20
135.6879999999999882
 30
0.0
 11
-138.914999999999992
 21
136.4089999999999918
 31
0.0
  0
LINE
  5
48
100
AcDbEntity
100
AcDbLine
  8
0
 62
256
370
-1
  6
ByLayer
 10
-138.914999999999992
 20
136.4089999999999918
 30
0.0
 11
-138.4869999999999948
 21
137.0819999999999936
 31
0.0
  0
LINE
  5
49
100
AcDbEntity
100
AcDbLine
  8
0
 62
256
370
-1
  6
ByLayer
 10
-138.4869999999999948
 20
137.0819999999999936
 30
0.0
 11
-137.9790000000000134
 21
137.6970000000000027
 31
0.0
  0
LINE
  5
4A
100
AcDbEntity
100
AcDbLine
  8
0
 62
256
370
-1
  6
ByLayer
 10
-137.9790000000000134
 20
137.6970000000000027
 30
0.0
 11
-137.3979999999999961
 21
138.242999999999995
 31
0.0
  0
LINE
  5
4B
100
AcDbEntity
100
AcDbLine
  8
0
 62
256
370
-1
  6
ByLayer
 10
-137.3979999999999961
 20
138.242999999999995
 30
0.0
 11
-136.7529999999999859
 21
138.7110000000000127
 31
0.0
  0
LINE
  5
4C
100
AcDbEntity
100
AcDbLine
  8
0
 62
256
370
-1
  6
ByLayer
 10
-136.7529999999999859
 20
138.7110000000000127
 30
0.0
 11
-136.054000000000002
 21
139.0960000000000036
 31
0.0
  0
LINE
  5
4D
100
AcDbEntity
100
AcDbLine
  8
0
 62
256
370
-1
  6
ByLayer
 10
-136.054000000000002
 20
139.0960000000000036
 30
0.0
 11
-135.3120000000000118
 21
139.38900000000001
 31
0.0
  0
LINE
  5
4E
100
AcDbEntity
100
AcDbLine
  8
0
 62
256
370
-1
  6
ByLayer
 10
-135.3120000000000118
 20
139.38900000000001
 30
0.0
 11
-134.539999999999992
 21
139.5879999999999939
 31
0.0
  0
LINE
  5
4F
100
AcDbEntity
100
AcDbLine
  8
0
 62
256
370
-1
  6
ByLayer
 10
-134.539999999999992
 20
139.5879999999999939
 30
0.0
 11
-133.7489999999999952
 21
139.6870000000000118
 31
0.0
  0
LINE
  5
50
100
AcDbEntity
100
AcDbLine
  8
0
 62
256
370
-1
  6
ByLayer
 10
-133.7489999999999952
 20
139.6870000000000118
 30
0.0
 11
-133.3499999999999943
 21
139.6870000000000118
 31
0.0
  0
LINE
  5
51
100
AcDbEntity
100
AcDbLine
  8
0
 62
256
370
-1
  6
ByLayer
 10
-133.3499999999999943
 20
139.6870000000000118
 30
0.0
 11
-133.3499999999999943
 21
139.6999999999999886
 31
0.0
  0
LINE
  5
52
100
AcDbEntity
100
AcDbLine
  8
0
 62
256
370
-1
  6
ByLayer
 10
-133.3499999999999943
 20
139.6999999999999886
 30
0.0
 11
133.3499999999999943
 21
139.6999999999999886
 31
0.0
  0
LINE
  5
53
100
AcDbEntity
100
AcDbLine
  8
0
 62
256
370
-1
  6
ByLayer
 10
133.3499999999999943
 20
139.6999999999999886
 30
0.0
 11
133.3499999999999943
 21
139.6870000000000118
 31
0.0
  0
LINE
  5
54
100
AcDbEntity
100
AcDbLine
  8
0
 62
256
370
-1
  6
ByLayer
 10
133.3499999999999943
 20
139.6870000000000118
 30
0.0
 11
133.7489999999999952
 21
139.6870000000000118
 31
0.0
  0
LINE
  5
55
100
AcDbEntity
100
AcDbLine
  8
0
 62
256
370
-1
  6
ByLayer
 10
133.7489999999999952
 20
139.6870000000000118
 30
0.0
 11
134.539999999999992
 21
139.5879999999999939
 31
0.0
  0
LINE
  5
56
100
AcDbEntity
100
AcDbLine
  8
0
 62
256
370
-1
  6
ByLayer
 10
134.539999999999992
 20
139.5879999999999939
 30
0.0
 11
135.3120000000000118
 21
139.38900000000001
 31
0.0
  0
LINE
  5
57
100
AcDbEntity
100
AcDbLine
  8
0
 62
256
370
-1
  6
ByLayer
 10
135.3120000000000118
 20
139.38900000000001
 30
0.0
 11
136.054000000000002
 21
139.0960000000000036
 31
0.0
  0
LINE
  5
58
100
AcDbEntity
100
AcDbLine
  8
0
 62
256
370
-1
  6
ByLayer
 10
136.054000000000002
 20
139.0960000000000036
 30
0.0
 11
136.7529999999999859
 21
138.7110000000000127
 31
0.0
  0
LINE
  5
59
100
AcDbEntity
100
AcDbLine
  8
0
 62
256
370
-1
  6
ByLayer
 10
136.7529999999999859
 20
138.7110000000000127
 30
0.0
 11
137.3979999999999961
 21
138.242999999999995
 31
0.0
  0
LINE
  5
5A
100
AcDbEntity
100
AcDbLine
  8
0
 62
256
370
-1
  6
ByLayer
 10
137.3979999999999961
 20
138.242999999999995
 30
0.0
 11
137.9790000000000134
 21
137.6970000000000027
 31
0.0
  0
LINE
  5
5B
100
AcDbEntity
100
AcDbLine
  8
0
 62
256
370
-1
  6
ByLayer
 10
137.9790000000000134
 20
137.6970000000000027
 30
0.0
 11
138.4869999999999948
 21
137.0819999999999936
 31
0.0
  0
LINE
  5
5C
100
AcDbEntity
100
AcDbLine
  8
0
 62
256
370
-1
  6
ByLayer
 10
138.4869999999999948
 20
137.0819999999999936
 30
0.0
 11
138.914999999999992
 21
136.4089999999999918
 31
0.0
  0
LINE
  5
5D
100
AcDbEntity
100
AcDbLine
  8
0
 62
256
370
-1
  6
ByLayer
 10
138.914999999999992
 20
136.4089999999999918
 30
0.0
 11
139.2539999999999907
 21
135.6879999999999882
 31
0.0
  0
LINE
  5
5E
100
AcDbEntity
100
AcDbLine
  8
0
 62
256
370
-1
  6
ByLayer
 10
139.2539999999999907
 20
135.6879999999999882
 30
0.0
 11
139.5010000000000048
 21
134.929000000000002
 31
0.0
  0
LINE
  5
5F
100
AcDbEntity
100
AcDbLine
  8
0
 62
256
370
-1
  6
ByLayer
 10
139.5010000000000048
 20
134.929000000000002
 30
0.0
 11
139.6500000000000057
 21
134.1459999999999866
 31
0.0
  0
LINE
  5
60
100
AcDbEntity
100
AcDbLine
  8
0
 62
256
370
-1
  6
ByLayer
 10
139.6500000000000057
 20
134.1459999999999866
 30
0.0
 11
139.6999999999999886
 21
133.3499999999999943
 31
0.0
  0
LINE
  5
61
100
AcDbEntity
100
AcDbLine
  8
0
 62
256
370
-1
  6
ByLayer
 10
139.6999999999999886
 20
133.3499999999999943
 30
0.0
 11
139.6999999999999886
 21
-133.3499999999999943
 31
0.0
  0
LINE
  5
62
100
AcDbEntity
100
AcDbLine
  8
0
 62
256
370
-1
  6
ByLayer
 10
139.6999999999999886
 20
-133.3499999999999943
 30
0.0
 11
139.6500000000000057
 21
-134.1459999999999866
 31
0.0
  0
LINE
  5
63
100
AcDbEntity
100
AcDbLine
  8
0
 62
256
370
-1
  6
ByLayer
 10
139.6500000000000057
 20
-134.1459999999999866
 30
0.0
 11
139.5010000000000048
 21
-134.929000000000002
 31
0.0
  0
LINE
  5
64
100
AcDbEntity
100
AcDbLine
  8
0
 62
256
370
-1
  6
ByLayer
 10
139.5010000000000048
 20
-134.929000000000002
 30
0.0
 11
139.2539999999999907
 21
-135.6879999999999882
 31
0.0
  0
LINE
  5
65
100
AcDbEntity
100
AcDbLine
  8
0
 62
256
370
-1
  6
ByLayer
 10
139.2539999999999907
 20
-135.6879999999999882
 30
0.0
 11
138.914999999999992
 21
-136.4089999999999918
 31
0.0
  0
LINE
  5
66
100
AcDbEntity
100
AcDbLine
  8
0
 62
256
370
-1
  6
ByLayer
 10
138.914999999999992
 20
-136.4089999999999918
 30
0.0
 11
138.4869999999999948
 21
-137.0819999999999936
 31
0.0
  0
LINE
  5
67
100
AcDbEntity
100
AcDbLine
  8
0
 62
256
370
-1
  6
ByLayer
 10
138.4869999999999948
 20
-137.0819999999999936
 30
0.0
 11
137.9790000000000134
 21
-137.6970000000000027
 31
0.0
  0
LINE
  5
68
100
AcDbEntity
100
AcDbLine
  8
0
 62
256
370
-1
  6
ByLayer
 10
137.9790000000000134
 20
-137.6970000000000027
 30
0.0
 11
137.3979999999999961
 21
-138.242999999999995
 31
0.0
  0
LINE
  5
69
100
AcDbEntity
100
AcDbLine
  8
0
 62
256
370
-1
  6
ByLayer
 10
137.3979999999999961
 20
-138.242999999999995
 30
0.0
 11
136.7529999999999859
 21
-138.7110000000000127
 31
0.0
  0
LINE
  5
6A
100
AcDbEntity
100
AcDbLine
  8
0
 62
256
370
-1
  6
ByLayer
 10
136.7529999999999859
 20
-138.7110000000000127
 30
0.0
 11
136.054000000000002
 21
-139.0960000000000036
 31
0.0
  0
LINE
  5
6B
100
AcDbEntity
100
AcDbLine
  8
0
 62
256
370
-1
  6
ByLayer
 10
136.054000000000002
 20
-139.0960000000000036
 30
0.0
 11
135.3120000000000118
 21
-139.38900000000001
 31
0.0
  0
LINE
  5
6C
100
AcDbEntity
100
AcDbLine
  8
0
 62
256
370
-1
  6
ByLayer
 10
135.3120000000000118
 20
-139.38900000000001
 30
0.0
 11
134.539999999999992
 21
-139.5879999999999939
 31
0.0
  0
LINE
  5
6D
100
AcDbEntity
100
AcDbLine
  8
0
 62
256
370
-1
  6
ByLayer
 10
134.539999999999992
 20
-139.5879999999999939
 30
0.0
 11
133.7489999999999952
 21
-139.6870000000000118
 31
0.0
  0
LINE
  5
6E
100
AcDbEntity
100
AcDbLine
  8
0
 62
256
370
-1
  6
ByLayer
 10
133.7489999999999952
 20
-139.6870000000000118
 30
0.0
 11
133.3499999999999943
 21
-139.6870000000000118
 31
0.0
  0
LINE
  5
6F
100
AcDbEntity
100
AcDbLine
  8
0
 62
256
370
-1
  6
ByLayer
 10
133.3499999999999943
 20
-139.6870000000000118
 30
0.0
 11
133.3499999999999943
 21
-139.6999999999999886
 31
0.0
  0
LINE
  5
70
100
AcDbEntity
100
AcDbLine
  8
0
 62
256
370
-1
  6
ByLayer
 10
133.3499999999999943
 20
-139.6999999999999886
 30
0.0
 11
-133.3499999999999943
 21
-139.6999999999999886
 31
0.0
  0
LINE
  5
71
100
AcDbEntity
100
AcDbLine
  8
0
 62
256
370
-1
  6
ByLayer
 10
-133.3499999999999943
 20
-139.6999999999999886
 30
0.0
 11
-133.3499999999999943
 21
-139.6870000000000118
 31
0.0
  0
LINE
  5
72
100
AcDbEntity
100
AcDbLine
  8
0
 62
256
370
-1
  6
ByLayer
 10
-133.3499999999999943
 20
-139.6870000000000118
 30
0.0
 11
-133.7489999999999952
 21
-139.6870000000000118
 31
0.0
  0
LINE
  5
73
100
AcDbEntity
100
AcDbLine
  8
0
 62
256
370
-1
  6
ByLayer
 10
-133.7489999999999952
 20
-139.6870000000000118
 30
0.0
 11
-134.539999999999992
 21
-139.5879999999999939
 31
0.0
  0
LINE
  5
74
100
AcDbEntity
100
AcDbLine
  8
0
 62
256
370
-1
  6
ByLayer
 10
-134.539999999999992
 20
-139.5879999999999939
 30
0.0
 11
-135.3120000000000118
 21
-139.38900000000001
 31
0.0
  0
LINE
  5
75
100
AcDbEntity
100
AcDbLine
  8
0
 62
256
370
-1
  6
ByLayer
 10
-135.3120000000000118
 20
-139.38900000000001
 30
0.0
 11
-136.054000000000002
 21
-139.0960000000000036
 31
0.0
  0
LINE
  5
76
100
AcDbEntity
100
AcDbLine
  8
0
 62
256
370
-1
  6
ByLayer
 10
-136.054000000000002
 20
-139.0960000000000036
 30
0.0
 11
-136.7529999999999859
 21
-138.7110000000000127
 31
0.0
  0
LINE
  5
77
100
AcDbEntity
100
AcDbLine
  8
0
 62
256
370
-1
  6
ByLayer
 10
-136.7529999999999859
 20
-138.7110000000000127
 30
0.0
 11
-137.3979999999999961
 21
-138.242999999999995
 31
0.0
  0
LINE
  5
78
100
AcDbEntity
100
AcDbLine
  8
0
 62
256
370
-1
  6
ByLayer
 10
-137.3979999999999961
 20
-138.242999999999995
 30
0.0
 11
-137.9790000000000134
 21
-137.6970000000000027
 31
0.0
  0
LINE
  5
79
100
AcDbEntity
100
AcDbLine
  8
0
 62
256
370
-1
  6
ByLayer
 10
-137.9790000000000134
 20
-137.6970000000000027
 30
0.0
 11
-138.4869999999999948
 21
-137.0819999999999936
 31
0.0
  0
LINE
  5
7A
100
AcDbEntity
100
AcDbLine
  8
0
 62
256
370
-1
  6
ByLayer
 10
-138.4869999999999948
 20
-137.0819999999999936
 30
0.0
 11
-138.914999999999992
 21
-136.4089999999999918
 31
0.0
  0
LINE
  5
7B
100
AcDbEntity
100
AcDbLine
  8
0
 62
256
370
-1
  6
ByLayer
 10
-138.914999999999992
 20
-136.4089999999999918
 30
0.0
 11
-139.2539999999999907
 21
-135.6879999999999882
 31
0.0
  0
LINE
  5
7C
100
AcDbEntity
100
AcDbLine
  8
0
 62
256
370
-1
  6
ByLayer
 10
-139.2539999999999907
 20
-135.6879999999999882
 30
0.0
 11
-139.5010000000000048
 21
-134.929000000000002
 31
0.0
  0
LINE
  5
7D
100
AcDbEntity
100
AcDbLine
  8
0
 62
256
370
-1
  6
ByLayer
 10
-139.5010000000000048
 20
-134.929000000000002
 30
0.0
 11
-139.6500000000000057
 21
-134.1459999999999866
 31
0.0
  0
LINE
  5
7E
100
AcDbEntity
100
AcDbLine
  8
0
 62
256
370
-1
  6
ByLayer
 10
-139.6500000000000057
 20
-134.1459999999999866
 30
0.0
 11
-139.6999999999999886
 21
-133.3499999999999943
 31
0.0
  0
LINE
  5
7F
100
AcDbEntity
100
AcDbLine
  8
0
 62
256
370
-1
  6
ByLayer
 10
-133.438999999999993
 20
-130.1750000000000114
 30
0.0
 11
-133.4130000000000109
 21
-129.7659999999999911
 31
0.0
  0
LINE
  5
80
100
AcDbEntity
100
AcDbLine
  8
0
 62
256
370
-1
  6
ByLayer
 10
-133.4130000000000109
 20
-129.7659999999999911
 30
0.0
 11
-133.3360000000000127
 21
-129.3629999999999995
 31
0.0
  0
LINE
  5
81
100
AcDbEntity
100
AcDbLine
  8
0
 62
256
370
-1
  6
ByLayer
 10
-133.3360000000000127
 20
-129.3629999999999995
 30
0.0
 11
-133.210000000000008
 21
-128.9730000000000132
 31
0.0
  0
LINE
  5
82
100
AcDbEntity
100
AcDbLine
  8
0
 62
256
370
-1
  6
ByLayer
 10
-133.210000000000008
 20
-128.9730000000000132
 30
0.0
 11
-133.0349999999999966
 21
-128.6030000000000086
 31
0.0
  0
LINE
  5
83
100
AcDbEntity
100
AcDbLine
  8
0
 62
256
370
-1
  6
ByLayer
 10
-133.0349999999999966
 20
-128.6030000000000086
 30
0.0
 11
-132.8160000000000025
 21
-128.257000000000005
 31
0.0
  0
LINE
  5
84
100
AcDbEntity
100
AcDbLine
  8
0
 62
256
370
-1
  6
ByLayer
 10
-132.8160000000000025
 20
-128.257000000000005
 30
0.0
 11
-132.554000000000002
 21
-127.9410000000000025
 31
0.0
  0
LINE
  5
85
100
AcDbEntity
100
AcDbLine
  8
0
 62
256
370
-1
  6
ByLayer
 10
-132.554000000000002
 20
-127.9410000000000025
 30
0.0
 11
-132.2549999999999955
 21
-127.6599999999999966
 31
0.0
  0
LINE
  5
86
100
AcDbEntity
100
AcDbLine
  8
0
 62
256
370
-1
  6
ByLayer
 10
-132.2549999999999955
 20
-127.6599999999999966
 30
0.0
 11
-131.9240000000000066
 21
-127.4189999999999969
 31
0.0
  0
LINE
  5
87
100
AcDbEntity
100
AcDbLine
  8
0
 62
256
370
-1
  6
ByLayer
 10
-131.9240000000000066
 20
-127.4189999999999969
 30
0.0
 11
-131.5649999999999977
 21
-127.2219999999999942
 31
0.0
  0
LINE
  5
88
100
AcDbEntity
100
AcDbLine
  8
0
 62
256
370
-1
  6
ByLayer
 10
-131.5649999999999977
 20
-127.2219999999999942
 30
0.0
 11
-131.1839999999999975
 21
-127.070999999999998
 31
0.0
  0
LINE
  5
89
100
AcDbEntity
100
AcDbLine
  8
0
 62
256
370
-1
  6
ByLayer
 10
-131.1839999999999975
 20
-127.070999999999998
 30
0.0
 11
-130.7870000000000061
 21
-126.9689999999999941
 31
0.0
  0
LINE
  5
8A
100
AcDbEntity
100
AcDbLine
  8
0
 62
256
370
-1
  6
ByLayer
 10
-130.7870000000000061
 20
-126.9689999999999941
 30
0.0
 11
-130.3799999999999955
 21
-126.9180000000000064
 31
0.0
  0
LINE
  5
8B
100
AcDbEntity
100
AcDbLine
  8
0
 62
256
370
-1
  6
ByLayer
 10
-130.3799999999999955
 20
-126.9180000000000064
 30
0.0
 11
-129.9699999999999989
 21
-126.9180000000000064
 31
0.0
  0
LINE
  5
8C
100
AcDbEntity
100
AcDbLine
  8
0
 62
256
370
-1
  6
ByLayer
 10
-129.9699999999999989
 20
-126.9180000000000064
 30
0.0
 11
-129.5629999999999882
 21
-126.9689999999999941
 31
0.0
  0
LINE
  5
8D
100
AcDbEntity
100
AcDbLine
  8
0
 62
256
370
-1
  6
ByLayer
 10
-129.5629999999999882
 20
-126.9689999999999941
 30
0.0
 11
-129.1659999999999968
 21
-127.070999999999998
 31
0.0
  0
LINE
  5
8E
100
AcDbEntity
100
AcDbLine
  8
0
 62
256
370
-1
  6
ByLayer
 10
-129.1659999999999968
 20
-127.070999999999998
 30
0.0
 11
-128.7849999999999966
 21
-127.2219999999999942
 31
0.0
  0
LINE
  5
8F
100
AcDbEntity
100
AcDbLine
  8
0
 62
256
370
-1
  6
ByLayer
 10
-128.7849999999999966
 20
-127.2219999999999942
 30
0.0
 11
-128.4259999999999877
 21
-127.4189999999999969
 31
0.0
  0
LINE
  5
90
100
AcDbEntity
100
AcDbLine
  8
0
 62
256
370
-1
  6
ByLayer
 10
-128.4259999999999877
 20
-127.4189999999999969
 30
0.0
 11
-128.0949999999999989
 21
-127.6599999999999966
 31
0.0
  0
LINE
  5
91
100
AcDbEntity
100
AcDbLine
  8
0
 62
256
370
-1
  6
ByLayer
 10
-128.0949999999999989
 20
-127.6599999999999966
 30
0.0
 11
-127.7960000000000065
 21
-127.9410000000000025
 31
0.0
  0
LINE
  5
92
100
AcDbEntity
100
AcDbLine
  8
0
 62
256
370
-1
  6
ByLayer
 10
-127.7960000000000065
 20
-127.9410000000000025
 30
0.0
 11
-127.534000000000006
 21
-128.257000000000005
 31
0.0
  0
LINE
  5
93
100
AcDbEntity
100
AcDbLine
  8
0
 62
256
370
-1
  6
ByLayer
 10
-127.534000000000006
 20
-128.257000000000005
 30
0.0
 11
-127.3149999999999977
 21
-128.6030000000000086
 31
0.0
  0
LINE
  5
94
100
AcDbEntity
100
AcDbLine
  8
0
 62
256
370
-1
  6
ByLayer
 10
-127.3149999999999977
 20
-128.6030000000000086
 30
0.0
 11
-127.1400000000000006
 21
-128.9730000000000132
 31
0.0
  0
LINE
  5
95
100
AcDbEntity
100
AcDbLine
  8
0
 62
256
370
-1
  6
ByLayer
 10
-127.1400000000000006
 20
-128.9730000000000132
 30
0.0
 11
-127.0139999999999958
 21
-129.3629999999999995
 31
0.0
  0
LINE
  5
96
100
AcDbEntity
100
AcDbLine
  8
0
 62
256
370
-1
  6
ByLayer
 10
-127.0139999999999958
 20
-129.3629999999999995
 30
0.0
 11
-126.9369999999999976
 21
-129.7659999999999911
 31
0.0
  0
LINE
  5
97
100
AcDbEntity
100
AcDbLine
  8
0
 62
256
370
-1
  6
ByLayer
 10
-126.9369999999999976
 20
-129.7659999999999911
 30
0.0
 11
-126.9110000000000014
 21
-130.1750000000000114
 31
0.0
  0
LINE
  5
98
100
AcDbEntity
100
AcDbLine
  8
0
 62
256
370
-1
  6
ByLayer
 10
-126.9110000000000014
 20
-130.1750000000000114
 30
0.0
 11
-126.9369999999999976
 21
-130.5840000000000032
 31
0.0
  0
LINE
  5
99
100
AcDbEntity
100
AcDbLine
  8
0
 62
256
370
-1
  6
ByLayer
 10
-126.9369999999999976
 20
-130.5840000000000032
 30
0.0
 11
-127.0139999999999958
 21
-130.9869999999999948
 31
0.0
  0
LINE
  5
9A
100
AcDbEntity
100
AcDbLine
  8
0
 62
256
370
-1
  6
ByLayer
 10
-127.0139999999999958
 20
-130.9869999999999948
 30
0.0
 11
-127.1400000000000006
 21
-131.3770000000000095
 31
0.0
  0
LINE
  5
9B
100
AcDbEntity
100
AcDbLine
  8
0
 62
256
370
-1
  6
ByLayer
 10
-127.1400000000000006
 20
-131.3770000000000095
 30
0.0
 11
-127.3149999999999977
 21
-131.7470000000000141
 31
0.0
  0
LINE
  5
9C
100
AcDbEntity
100
AcDbLine
  8
0
 62
256
370
-1
  6
ByLayer
 10
-127.3149999999999977
 20
-131.7470000000000141
 30
0.0
 11
-127.534000000000006
 21
-132.0929999999999893
 31
0.0
  0
LINE
  5
9D
100
AcDbEntity
100
AcDbLine
  8
0
 62
256
370
-1
  6
ByLayer
 10
-127.534000000000006
 20
-132.0929999999999893
 30
0.0
 11
-127.7960000000000065
 21
-132.4089999999999918
 31
0.0
  0
LINE
  5
9E
100
AcDbEntity
100
AcDbLine
  8
0
 62
256
370
-1
  6
ByLayer
 10
-127.7960000000000065
 20
-132.4089999999999918
 30
0.0
 11
-128.0949999999999989
 21
-132.6899999999999977
 31
0.0
  0
LINE
  5
9F
100
AcDbEntity
100
AcDbLine
  8
0
 62
256
370
-1
  6
ByLayer
 10
-128.0949999999999989
 20
-132.6899999999999977
 30
0.0
 11
-128.4259999999999877
 21
-132.9310000000000116
 31
0.0
  0
LINE
  5
A0
100
AcDbEntity
100
AcDbLine
  8
0
 62
256
370
-1
  6
ByLayer
 10
-128.4259999999999877
 20
-132.9310000000000116
 30
0.0
 11
-128.7849999999999966
 21
-133.1279999999999859
 31
0.0
  0
LINE
  5
A1
100
AcDbEntity
100
AcDbLine
  8
0
 62
256
370
-1
  6
ByLayer
 10
-128.7849999999999966
 20
-133.1279999999999859
 30
0.0
 11
-129.1659999999999968
 21
-133.2789999999999964
 31
0.0
  0
LINE
  5
A2
100
AcDbEntity
100
AcDbLine
  8
0
 62
256
370
-1
  6
ByLayer
 10
-129.1659999999999968
 20
-133.2789999999999964
 30
0.0
 11
-129.5629999999999882
 21
-133.3810000000000002
 31
0.0
  0
LINE
  5
A3
100
AcDbEntity
100
AcDbLine
  8
0
 62
256
370
-1
  6
ByLayer
 10
-129.5629999999999882
 20
-133.3810000000000002
 30
0.0
 11
-129.9699999999999989
 21
-133.4319999999999879
 31
0.0
  0
LINE
  5
A4
100
AcDbEntity
100
AcDbLine
  8
0
 62
256
370
-1
  6
ByLayer
 10
-129.9699999999999989
 20
-133.4319999999999879
 30
0.0
 11
-130.3799999999999955
 21
-133.4319999999999879
 31
0.0
  0
LINE
  5
A5
100
AcDbEntity
100
AcDbLine
  8
0
 62
256
370
-1
  6
ByLayer
 10
-130.3799999999999955
 20
-133.4319999999999879
 30
0.0
 11
-130.7870000000000061
 21
-133.3810000000000002
 31
0.0
  0
LINE
  5
A6
100
AcDbEntity
100
AcDbLine
  8
0
 62
256
370
-1
  6
ByLayer
 10
-130.7870000000000061
 20
-133.3810000000000002
 30
0.0
 11
-131.1839999999999975
 21
-133.2789999999999964
 31
0.0
  0
LINE
  5
A7
100
AcDbEntity
100
AcDbLine
  8
0
 62
256
370
-1
  6
ByLayer
 10
-131.1839999999999975
 20
-133.2789999999999964
 30
0.0
 11
-131.5649999999999977
 21
-133.1279999999999859
 31
0.0
  0
LINE
  5
A8
100
AcDbEntity
100
AcDbLine
  8
0
 62
256
370
-1
  6
ByLayer
 10
-131.5649999999999977
 20
-133.1279999999999859
 30
0.0
 11
-131.9240000000000066
 21
-132.9310000000000116
 31
0.0
  0
LINE
  5
A9
100
AcDbEntity
100
AcDbLine
  8
0
 62
256
370
-1
  6
ByLayer
 10
-131.9240000000000066
 20
-132.9310000000000116
 30
0.0
 11
-132.2549999999999955
 21
-132.6899999999999977
 31
0.0
  0
LINE
  5
AA
100
AcDbEntity
100
AcDbLine
  8
0
 62
256
370
-1
  6
ByLayer
 10
-132.2549999999999955
 20
-132.6899999999999977
 30
0.0
 11
-132.554000000000002
 21
-132.4089999999999918
 31
0.0
  0
LINE
  5
AB
100
AcDbEntity
100
AcDbLine
  8
0
 62
256
370
-1
  6
ByLayer
 10
-132.554000000000002
 20
-132.4089999999999918
 30
0.0
 11
-132.8160000000000025
 21
-132.0929999999999893
 31
0.0
  0
LINE
  5
AC
100
AcDbEntity
100
AcDbLine
  8
0
 62
256
370
-1
  6
ByLayer
 10
-132.8160000000000025
 20
-132.0929999999999893
 30
0.0
 11
-133.0349999999999966
 21
-131.7470000000000141
 31
0.0
  0
LINE
  5
AD
100
AcDbEntity
100
AcDbLine
  8
0
 62
256
370
-1
  6
ByLayer
 10
-133.0349999999999966
 20
-131.7470000000000141
 30
0.0
 11
-133.210000000000008
 21
-131.3770000000000095
 31
0.0
  0
LINE
  5
AE
100
AcDbEntity
100
AcDbLine
  8
0
 62
256
370
-1
  6
ByLayer
 10
-133.210000000000008
 20
-131.3770000000000095
 30
0.0
 11
-133.3360000000000127
 21
-130.9869999999999948
 31
0.0
  0
LINE
  5
AF
100
AcDbEntity
100
AcDbLine
  8
0
 62
256
370
-1
  6
ByLayer
 10
-133.3360000000000127
 20
-130.9869999999999948
 30
0.0
 11
-133.4130000000000109
 21
-130.5840000000000032
 31
0.0
  0
LINE
  5
B0
100
AcDbEntity
100
AcDbLine
  8
0
 62
256
370
-1
  6
ByLayer
 10
-133.4130000000000109
 20
-130.5840000000000032
 30
0.0
 11
-133.438999999999993
 21
-130.1750000000000114
 31
0.0
  0
LINE
  5
B1
100
AcDbEntity
100
AcDbLine
  8
0
 62
256
370
-1
  6
ByLayer
 10
-133.438999999999993
 20
130.1750000000000114
 30
0.0
 11
-133.4130000000000109
 21
130.5840000000000032
 31
0.0
  0
LINE
  5
B2
100
AcDbEntity
100
AcDbLine
  8
0
 62
256
370
-1
  6
ByLayer
 10
-133.4130000000000109
 20
130.5840000000000032
 30
0.0
 11
-133.3360000000000127
 21
130.9869999999999948
 31
0.0
  0
LINE
  5
B3
100
AcDbEntity
100
AcDbLine
  8
0
 62
256
370
-1
  6
ByLayer
 10
-133.3360000000000127
 20
130.9869999999999948
 30
0.0
 11
-133.210000000000008
 21
131.3770000000000095
 31
0.0
  0
LINE
  5
B4
100
AcDbEntity
100
AcDbLine
  8
0
 62
256
370
-1
  6
ByLayer
 10
-133.210000000000008
 20
131.3770000000000095
 30
0.0
 11
-133.0349999999999966
 21
131.7470000000000141
 31
0.0
  0
LINE
  5
B5
100
AcDbEntity
100
AcDbLine
  8
0
 62
256
370
-1
  6
ByLayer
 10
-133.0349999999999966
 20
131.7470000000000141
 30
0.0
 11
-132.8160000000000025
 21
132.0929999999999893
 31
0.0
  0
LINE
  5
B6
100
AcDbEntity
100
AcDbLine
  8
0
 62
256
370
-1
  6
ByLayer
 10
-132.8160000000000025
 20
132.0929999999999893
 30
0.0
 11
-132.554000000000002
 21
132.4089999999999918
 31
0.0
  0
LINE
  5
B7
100
AcDbEntity
100
AcDbLine
  8
0
 62
256
370
-1
  6
ByLayer
 10
-132.554000000000002
 20
132.4089999999999918
 30
0.0
 11
-132.2549999999999955
 21
132.6899999999999977
 31
0.0
  0
LINE
  5
B8
100
AcDbEntity
100
AcDbLine
  8
0
 62
256
370
-1
  6
ByLayer
 10
-132.2549999999999955
 20
132.6899999999999977
 30
0.0
 11
-131.9240000000000066
 21
132.9310000000000116
 31
0.0
  0
LINE
  5
B9
100
AcDbEntity
100
AcDbLine
  8
0
 62
256
370
-1
  6
ByLayer
 10
-131.9240000000000066
 20
132.9310000000000116
 30
0.0
 11
-131.5649999999999977
 21
133.1279999999999859
 31
0.0
  0
LINE
  5
BA
100
AcDbEntity
100
AcDbLine
  8
0
 62
256
370
-1
  6
ByLayer
 10
-131.5649999999999977
 20
133.1279999999999859
 30
0.0
 11
-131.1839999999999975
 21
133.2789999999999964
 31
0.0
  0
LINE
  5
BB
100
AcDbEntity
100
AcDbLine
  8
0
 62
256
370
-1
  6
ByLayer
 10
-131.1839999999999975
 20
133.2789999999999964
 30
0.0
 11
-130.7870000000000061
 21
133.3810000000000002
 31
0.0
  0
LINE
  5
BC
100
AcDbEntity
100
AcDbLine
  8
0
 62
256
370
-1
  6
ByLayer
 10
-130.7870000000000061
 20
133.3810000000000002
 30
0.0
 11
-130.3799999999999955
 21
133.4319999999999879
 31
0.0
  0
LINE
  5
BD
100
AcDbEntity
100
AcDbLine
  8
0
 62
256
370
-1
  6
ByLayer
 10
-130.3799999999999955
 20
133.4319999999999879
 30
0.0
 11
-129.9699999999999989
 21
133.4319999999999879
 31
0.0
  0
LINE
  5
BE
100
AcDbEntity
100
AcDbLine
  8
0
 62
256
370
-1
  6
ByLayer
 10
-129.9699999999999989
 20
133.4319999999999879
 30
0.0
 11
-129.5629999999999882
 21
133.3810000000000002
 31
0.0
  0
LINE
  5
BF
100
AcDbEntity
100
AcDbLine
  8
0
 62
256
370
-1
  6
ByLayer
 10
-129.5629999999999882
 20
133.3810000000000002
 30
0.0
 11
-129.1659999999999968
 21
133.2789999999999964
 31
0.0
  0
LINE
  5
C0
100
AcDbEntity
100
AcDbLine
  8
0
 62
256
370
-1
  6
ByLayer
 10
-129.1659999999999968
 20
133.2789999999999964
 30
0.0
 11
-128.7849999999999966
 21
133.1279999999999859
 31
0.0
  0
LINE
  5
C1
100
AcDbEntity
100
AcDbLine
  8
0
 62
256
370
-1
  6
ByLayer
 10
-128.7849999999999966
 20
133.1279999999999859
 30
0.0
 11
-128.4259999999999877
 21
132.9310000000000116
 31
0.0
  0
LINE
  5
C2
100
AcDbEntity
100
AcDbLine
  8
0
 62
256
370
-1
  6
ByLayer
 10
-128.4259999999999877
 20
132.9310000000000116
 30
0.0
 11
-128.0949999999999989
 21
132.6899999999999977
 31
0.0
  0
LINE
  5
C3
100
AcDbEntity
100
AcDbLine
  8
0
 62
256
370
-1
  6
ByLayer
 10
-128.0949999999999989
 20
132.6899999999999977
 30
0.0
 11
-127.7960000000000065
 21
132.4089999999999918
 31
0.0
  0
LINE
  5
C4
100
AcDbEntity
100
AcDbLine
  8
0
 62
256
370
-1
  6
ByLayer
 10
-127.7960000000000065
 20
132.4089999999999918
 30
0.0
 11
-127.534000000000006
 21
132.0929999999999893
 31
0.0
  0
LINE
  5
C5
100
AcDbEntity
100
AcDbLine
  8
0
 62
256
370
-1
  6
ByLayer
 10
-127.534000000000006
 20
132.0929999999999893
 30
0.0
 11
-127.3149999999999977
 21
131.7470000000000141
 31
0.0
  0
LINE
  5
C6
100
AcDbEntity
100
AcDbLine
  8
0
 62
256
370
-1
  6
ByLayer
 10
-127.3149999999999977
 20
131.7470000000000141
 30
0.0
 11
-127.1400000000000006
 21
131.3770000000000095
 31
0.0
  0
LINE
  5
C7
100
AcDbEntity
100
AcDbLine
  8
0
 62
256
370
-1
  6
ByLayer
 10
-127.1400000000000006
 20
131.3770000000000095
 30
0.0
 11
-127.0139999999999958
 21
130.9869999999999948
 31
0.0
  0
LINE
  5
C8
100
AcDbEntity
100
AcDbLine
  8
0
 62
256
370
-1
  6
ByLayer
 10
-127.0139999999999958
 20
130.9869999999999948
 30
0.0
 11
-126.9369999999999976
 21
130.5840000000000032
 31
0.0
  0
LINE
  5
C9
100
AcDbEntity
100
AcDbLine
  8
0
 62
256
370
-1
  6
ByLayer
 10
-126.9369999999999976
 20
130.5840000000000032
 30
0.0
 11
-126.9110000000000014
 21
130.1750000000000114
 31
0.0
  0
LINE
  5
CA
100
AcDbEntity
100
AcDbLine
  8
0
 62
256
370
-1
  6
ByLayer
 10
-126.9110000000000014
 20
130.1750000000000114
 30
0.0
 11
-126.9369999999999976
 21
129.7659999999999911
 31
0.0
  0
LINE
  5
CB
100
AcDbEntity
100
AcDbLine
  8
0
 62
256
370
-1
  6
ByLayer
 10
-126.9369999999999976
 20
129.7659999999999911
 30
0.0
 11
-127.0139999999999958
 21
129.3629999999999995
 31
0.0
  0
LINE
  5
CC
100
AcDbEntity
100
AcDbLine
  8
0
 62
256
370
-1
  6
ByLayer
 10
-127.0139999999999958
 20
129.3629999999999995
 30
0.0
 11
-127.1400000000000006
 21
128.9730000000000132
 31
0.0
  0
LINE
  5
CD
100
AcDbEntity
100
AcDbLine
  8
0
 62
256
370
-1
  6
ByLayer
 10
-127.1400000000000006
 20
128.9730000000000132
 30
0.0
 11
-127.3149999999999977
 21
128.6030000000000086
 31
0.0
  0
LINE
  5
CE
100
AcDbEntity
100
AcDbLine
  8
0
 62
256
370
-1
  6
ByLayer
 10
-127.3149999999999977
 20
128.6030000000000086
 30
0.0
 11
-127.534000000000006
 21
128.257000000000005
 31
0.0
  0
LINE
  5
CF
100
AcDbEntity
100
AcDbLine
  8
0
 62
256
370
-1
  6
ByLayer
 10
-127.534000000000006
 20
128.257000000000005
 30
0.0
 11
-127.7960000000000065
 21
127.9410000000000025
 31
0.0
  0
LINE
  5
D0
100
AcDbEntity
100
AcDbLine
  8
0
 62
256
370
-1
  6
ByLayer
 10
-127.7960000000000065
 20
127.9410000000000025
 30
0.0
 11
-128.0949999999999989
 21
127.6599999999999966
 31
0.0
  0
LINE
  5
D1
100
AcDbEntity
100
AcDbLine
  8
0
 62
256
370
-1
  6
ByLayer
 10
-128.0949999999999989
 20
127.6599999999999966
 30
0.0
 11
-128.4259999999999877
 21
127.4189999999999969
 31
0.0
  0
LINE
  5
D2
100
AcDbEntity
100
AcDbLine
  8
0
 62
256
370
-1
  6
ByLayer
 10
-128.4259999999999877
 20
127.4189999999999969
 30
0.0
 11
-128.7849999999999966
 21
127.2219999999999942
 31
0.0
  0
LINE
  5
D3
100
AcDbEntity
100
AcDbLine
  8
0
 62
256
370
-1
  6
ByLayer
 10
-128.7849999999999966
 20
127.2219999999999942
 30
0.0
 11
-129.1659999999999968
 21
127.070999999999998
 31
0.0
  0
LINE
  5
D4
100
AcDbEntity
100
AcDbLine
  8
0
 62
256
370
-1
  6
ByLayer
 10
-129.1659999999999968
 20
127.070999999999998
 30
0.0
 11
-129.5629999999999882
 21
126.9689999999999941
 31
0.0
  0
LINE
  5
D5
100
AcDbEntity
100
AcDbLine
  8
0
 62
256
370
-1
  6
ByLayer
 10
-129.5629999999999882
 20
126.9689999999999941
 30
0.0
 11
-129.9699999999999989
 21
126.9180000000000064
 31
0.0
  0
LINE
  5
D6
100
AcDbEntity
100
AcDbLine
  8
0
 62
256
370
-1
  6
ByLayer
 10
-129.9699999999999989
 20
126.9180000000000064
 30
0.0
 11
-130.3799999999999955
 21
126.9180000000000064
 31
0.0
  0
LINE
  5
D7
100
AcDbEntity
100
AcDbLine
  8
0
 62
256
370
-1
  6
ByLayer
 10
-130.3799999999999955
 20
126.9180000000000064
 30
0.0
 11
-130.7870000000000061
 21
126.9689999999999941
 31
0.0
  0
LINE
  5
D8
100
AcDbEntity
100
AcDbLine
  8
0
 62
256
370
-1
  6
ByLayer
 10
-130.7870000000000061
 20
126.9689999999999941
 30
0.0
 11
-131.1839999999999975
 21
127.070999999999998
 31
0.0
  0
LINE
  5
D9
100
AcDbEntity
100
AcDbLine
  8
0
 62
256
370
-1
  6
ByLayer
 10
-131.1839999999999975
 20
127.070999999999998
 30
0.0
 11
-131.5649999999999977
 21
127.2219999999999942
 31
0.0
  0
LINE
  5
DA
100
AcDbEntity
100
AcDbLine
  8
0
 62
256
370
-1
  6
ByLayer
 10
-131.5649999999999977
 20
127.2219999999999942
 30
0.0
 11
-131.9240000000000066
 21
127.4189999999999969
 31
0.0
  0
LINE
  5
DB
100
AcDbEntity
100
AcDbLine
  8
0
 62
256
370
-1
  6
ByLayer
 10
-131.9240000000000066
 20
127.4189999999999969
 30
0.0
 11
-132.2549999999999955
 21
127.6599999999999966
 31
0.0
  0
LINE
  5
DC
100
AcDbEntity
100
AcDbLine
  8
0
 62
256
370
-1
  6
ByLayer
 10
-132.2549999999999955
 20
127.6599999999999966
 30
0.0
 11
-132.554000000000002
 21
127.9410000000000025
 31
0.0
  0
LINE
  5
DD
100
AcDbEntity
100
AcDbLine
  8
0
 62
256
370
-1
  6
ByLayer
 10
-132.554000000000002
 20
127.9410000000000025
 30
0.0
 11
-132.8160000000000025
 21
128.257000000000005
 31
0.0
  0
LINE
  5
DE
100
AcDbEntity
100
AcDbLine
  8
0
 62
256
370
-1
  6
ByLayer
 10
-132.8160000000000025
 20
128.257000000000005
 30
0.0
 11
-133.0349999999999966
 21
128.6030000000000086
 31
0.0
  0
LINE
  5
DF
100
AcDbEntity
100
AcDbLine
  8
0
 62
256
370
-1
  6
ByLayer
 10
-133.0349999999999966
 20
128.6030000000000086
 30
0.0
 11
-133.210000000000008
 21
128.9730000000000132
 31
0.0
  0
LINE
  5
E0
100
AcDbEntity
100
AcDbLine
  8
0
 62
256
370
-1
  6
ByLayer
 10
-133.210000000000008
 20
128.9730000000000132
 30
0.0
 11
-133.3360000000000127
 21
129.3629999999999995
 31
0.0
  0
LINE
  5
E1
100
AcDbEntity
100
AcDbLine
  8
0
 62
256
370
-1
  6
ByLayer
 10
-133.3360000000000127
 20
129.3629999999999995
 30
0.0
 11
-133.4130000000000109
 21
129.7659999999999911
 31
0.0
  0
LINE
  5
E2
100
AcDbEntity
100
AcDbLine
  8
0
 62
256
370
-1
  6
ByLayer
 10
-133.4130000000000109
 20
129.7659999999999911
 30
0.0
 11
-133.438999999999993
 21
130.1750000000000114
 31
0.0
  0
LINE
  5
E3
100
AcDbEntity
100
AcDbLine
  8
0
 62
256
370
-1
  6
ByLayer
 10
-88.2650000000000006
 20
-94.5870000000000033
 30
0.0
 11
-88.2150000000000034
 21
-93.7909999999999968
 31
0.0
  0
LINE
  5
E4
100
AcDbEntity
100
AcDbLine
  8
0
 62
256
370
-1
  6
ByLayer
 10
-88.2150000000000034
 20
-93.7909999999999968
 30
0.0
 11
-88.0660000000000025
 21
-93.0079999999999956
 31
0.0
  0
LINE
  5
E5
100
AcDbEntity
100
AcDbLine
  8
0
 62
256
370
-1
  6
ByLayer
 10
-88.0660000000000025
 20
-93.0079999999999956
 30
0.0
 11
-87.8190000000000026
 21
-92.25
 31
0.0
  0
LINE
  5
E6
100
AcDbEntity
100
AcDbLine
  8
0
 62
256
370
-1
  6
ByLayer
 10
-87.8190000000000026
 20
-92.25
 30
0.0
 11
-87.480000000000004
 21
-91.5280000000000058
 31
0.0
  0
LINE
  5
E7
100
AcDbEntity
100
AcDbLine
  8
0
 62
256
370
-1
  6
ByLayer
 10
-87.480000000000004
 20
-91.5280000000000058
 30
0.0
 11
-87.0520000000000067
 21
-90.855000000000004
 31
0.0
  0
LINE
  5
E8
100
AcDbEntity
100
AcDbLine
  8
0
 62
256
370
-1
  6
ByLayer
 10
-87.0520000000000067
 20
-90.855000000000004
 30
0.0
 11
-86.5439999999999969
 21
-90.2399999999999949
 31
0.0
  0
LINE
  5
E9
100
AcDbEntity
100
AcDbLine
  8
0
 62
256
370
-1
  6
ByLayer
 10
-86.5439999999999969
 20
-90.2399999999999949
 30
0.0
 11
-85.9629999999999939
 21
-89.6949999999999932
 31
0.0
  0
LINE
  5
EA
100
AcDbEntity
100
AcDbLine
  8
0
 62
256
370
-1
  6
ByLayer
 10
-85.9629999999999939
 20
-89.6949999999999932
 30
0.0
 11
-85.3179999999999978
 21
-89.2259999999999991
 31
0.0
  0
LINE
  5
EB
100
AcDbEntity
100
AcDbLine
  8
0
 62
256
370
-1
  6
ByLayer
 10
-85.3179999999999978
 20
-89.2259999999999991
 30
0.0
 11
-84.6189999999999998
 21
-88.8419999999999987
 31
0.0
  0
LINE
  5
EC
100
AcDbEntity
100
AcDbLine
  8
0
 62
256
370
-1
  6
ByLayer
 10
-84.6189999999999998
 20
-88.8419999999999987
 30
0.0
 11
-83.8769999999999953
 21
-88.5480000000000018
 31
0.0
  0
LINE
  5
ED
100
AcDbEntity
100
AcDbLine
  8
0
 62
256
370
-1
  6
ByLayer
 10
-83.8769999999999953
 20
-88.5480000000000018
 30
0.0
 11
-83.105000000000004
 21
-88.3499999999999943
 31
0.0
  0
LINE
  5
EE
100
AcDbEntity
100
AcDbLine
  8
0
 62
256
370
-1
  6
ByLayer
 10
-83.105000000000004
 20
-88.3499999999999943
 30
0.0
 11
-82.313999999999993
 21
-88.25
 31
0.0
  0
LINE
  5
EF
100
AcDbEntity
100
AcDbLine
  8
0
 62
256
370
-1
  6
ByLayer
 10
-82.313999999999993
 20
-88.25
 30
0.0
 11
-81.5160000000000053
 21
-88.25
 31
0.0
  0
LINE
  5
F0
100
AcDbEntity
100
AcDbLine
  8
0
 62
256
370
-1
  6
ByLayer
 10
-81.5160000000000053
 20
-88.25
 30
0.0
 11
-80.7249999999999943
 21
-88.3499999999999943
 31
0.0
  0
LINE
  5
F1
100
AcDbEntity
100
AcDbLine
  8
0
 62
256
370
-1
  6
ByLayer
 10
-80.7249999999999943
 20
-88.3499999999999943
 30
0.0
 11
-79.953000000000003
 21
-88.5480000000000018
 31
0.0
  0
LINE
  5
F2
100
AcDbEntity
100
AcDbLine
  8
0
 62
256
370
-1
  6
ByLayer
 10
-79.953000000000003
 20
-88.5480000000000018
 30
0.0
 11
-79.2109999999999985
 21
-88.8419999999999987
 31
0.0
  0
LINE
  5
F3
100
AcDbEntity
100
AcDbLine
  8
0
 62
256
370
-1
  6
ByLayer
 10
-79.2109999999999985
 20
-88.8419999999999987
 30
0.0
 11
-78.5130000000000052
 21
-89.2259999999999991
 31
0.0
  0
LINE
  5
F4
100
AcDbEntity
100
AcDbLine
  8
0
 62
256
370
-1
  6
ByLayer
 10
-78.5130000000000052
 20
-89.2259999999999991
 30
0.0
 11
-77.8670000000000044
 21
-89.6949999999999932
 31
0.0
  0
LINE
  5
F5
100
AcDbEntity
100
AcDbLine
  8
0
 62
256
370
-1
  6
ByLayer
 10
-77.8670000000000044
 20
-89.6949999999999932
 30
0.0
 11
-77.2860000000000014
 21
-90.2399999999999949
 31
0.0
  0
LINE
  5
F6
100
AcDbEntity
100
AcDbLine
  8
0
 62
256
370
-1
  6
ByLayer
 10
-77.2860000000000014
 20
-90.2399999999999949
 30
0.0
 11
-76.7780000000000058
 21
-90.855000000000004
 31
0.0
  0
LINE
  5
F7
100
AcDbEntity
100
AcDbLine
  8
0
 62
256
370
-1
  6
ByLayer
 10
-76.7780000000000058
 20
-90.855000000000004
 30
0.0
 11
-76.3499999999999943
 21
-91.5280000000000058
 31
0.0
  0
LINE
  5
F8
100
AcDbEntity
100
AcDbLine
  8
0
 62
256
370
-1
  6
ByLayer
 10
-76.3499999999999943
 20
-91.5280000000000058
 30
0.0
 11
-76.0109999999999957
 21
-92.25
 31
0.0
  0
LINE
  5
F9
100
AcDbEntity
100
AcDbLine
  8
0
 62
256
370
-1
  6
ByLayer
 10
-76.0109999999999957
 20
-92.25
 30
0.0
 11
-75.7639999999999958
 21
-93.0079999999999956
 31
0.0
  0
LINE
  5
FA
100
AcDbEntity
100
AcDbLine
  8
0
 62
256
370
-1
  6
ByLayer
 10
-75.7639999999999958
 20
-93.0079999999999956
 30
0.0
 11
-75.6149999999999949
 21
-93.7909999999999968
 31
0.0
  0
LINE
  5
FB
100
AcDbEntity
100
AcDbLine
  8
0
 62
256
370
-1
  6
ByLayer
 10
-75.6149999999999949
 20
-93.7909999999999968
 30
0.0
 11
-75.5649999999999977
 21
-94.5870000000000033
 31
0.0
  0
LINE
  5
FC
100
AcDbEntity
100
AcDbLine
  8
0
 62
256
370
-1
  6
ByLayer
 10
-75.5649999999999977
 20
-94.5870000000000033
 30
0.0
 11
-75.6149999999999949
 21
-95.3829999999999956
 31
0.0
  0
LINE
  5
FD
100
AcDbEntity
100
AcDbLine
  8
0
 62
256
370
-1
  6
ByLayer
 10
-75.6149999999999949
 20
-95.3829999999999956
 30
0.0
 11
-75.7639999999999958
 21
-96.1659999999999968
 31
0.0
  0
LINE
  5
FE
100
AcDbEntity
100
AcDbLine
  8
0
 62
256
370
-1
  6
ByLayer
 10
-75.7639999999999958
 20
-96.1659999999999968
 30
0.0
 11
-76.0109999999999957
 21
-96.9249999999999972
 31
0.0
  0
LINE
  5
FF
100
AcDbEntity
100
AcDbLine
  8
0
 62
256
370
-1
  6
ByLayer
 10
-76.0109999999999957
 20
-96.9249999999999972
 30
0.0
 11
-76.3499999999999943
 21
-97.6460000000000008
 31
0.0
  0
LINE
  5
100
100
AcDbEntity
100
AcDbLine
  8
0
 62
256
370
-1
  6
ByLayer
 10
-76.3499999999999943
 20
-97.6460000000000008
 30
0.0
 11
-76.7780000000000058
 21
-98.3199999999999932
 31
0.0
  0
LINE
  5
101
100
AcDbEntity
100
AcDbLine
  8
0
 62
256
370
-1
  6
ByLayer
 10
-76.7780000000000058
 20
-98.3199999999999932
 30
0.0
 11
-77.2860000000000014
 21
-98.9339999999999975
 31
0.0
  0
LINE
  5
102
100
AcDbEntity
100
AcDbLine
  8
0
 62
256
370
-1
  6
ByLayer
 10
-77.2860000000000014
 20
-98.9339999999999975
 30
0.0
 11
-77.8670000000000044
 21
-99.480000000000004
 31
0.0
  0
LINE
  5
103
100
AcDbEntity
100
AcDbLine
  8
0
 62
256
370
-1
  6
ByLayer
 10
-77.8670000000000044
 20
-99.480000000000004
 30
0.0
 11
-78.5130000000000052
 21
-99.9489999999999981
 31
0.0
  0
LINE
  5
104
100
AcDbEntity
100
AcDbLine
  8
0
 62
256
370
-1
  6
ByLayer
 10
-78.5130000000000052
 20
-99.9489999999999981
 30
0.0
 11
-79.2109999999999985
 21
-100.3329999999999984
 31
0.0
  0
LINE
  5
105
100
AcDbEntity
100
AcDbLine
  8
0
 62
256
370
-1
  6
ByLayer
 10
-79.2109999999999985
 20
-100.3329999999999984
 30
0.0
 11
-79.953000000000003
 21
-100.6260000000000048
 31
0.0
  0
LINE
  5
106
100
AcDbEntity
100
AcDbLine
  8
0
 62
256
370
-1
  6
ByLayer
 10
-79.953000000000003
 20
-100.6260000000000048
 30
0.0
 11
-80.7249999999999943
 21
-100.8250000000000028
 31
0.0
  0
LINE
  5
107
100
AcDbEntity
100
AcDbLine
  8
0
 62
256
370
-1
  6
ByLayer
 10
-80.7249999999999943
 20
-100.8250000000000028
 30
0.0
 11
-81.5160000000000053
 21
-100.9249999999999972
 31
0.0
  0
LINE
  5
108
100
AcDbEntity
100
AcDbLine
  8
0
 62
256
370
-1
  6
ByLayer
 10
-81.5160000000000053
 20
-100.9249999999999972
 30
0.0
 11
-82.313999999999993
 21
-100.9249999999999972
 31
0.0
  0
LINE
  5
109
100
AcDbEntity
100
AcDbLine
  8
0
 62
256
370
-1
  6
ByLayer
 10
-82.313999999999993
 20
-100.9249999999999972
 30
0.0
 11
-83.105000000000004
 21
-100.8250000000000028
 31
0.0
  0
LINE
  5
10A
100
AcDbEntity
100
AcDbLine
  8
0
 62
256
370
-1
  6
ByLayer
 10
-83.105000000000004
 20
-100.8250000000000028
 30
0.0
 11
-83.8769999999999953
 21
-100.6260000000000048
 31
0.0
  0
LINE
  5
10B
100
AcDbEntity
100
AcDbLine
  8
0
 62
256
370
-1
  6
ByLayer
 10
-83.8769999999999953
 20
-100.6260000000000048
 30
0.0
 11
-84.6189999999999998
 21
-100.3329999999999984
 31
0.0
  0
LINE
  5
10C
100
AcDbEntity
100
AcDbLine
  8
0
 62
256
370
-1
  6
ByLayer
 10
-84.6189999999999998
 20
-100.3329999999999984
 30
0.0
 11
-85.3179999999999978
 21
-99.9489999999999981
 31
0.0
  0
LINE
  5
10D
100
AcDbEntity
100
AcDbLine
  8
0
 62
256
370
-1
  6
ByLayer
 10
-85.3179999999999978
 20
-99.9489999999999981
 30
0.0
 11
-85.9629999999999939
 21
-99.480000000000004
 31
0.0
  0
LINE
  5
10E
100
AcDbEntity
100
AcDbLine
  8
0
 62
256
370
-1
  6
ByLayer
 10
-85.9629999999999939
 20
-99.480000000000004
 30
0.0
 11
-86.5439999999999969
 21
-98.9339999999999975
 31
0.0
  0
LINE
  5
10F
100
AcDbEntity
100
AcDbLine
  8
0
 62
256
370
-1
  6
ByLayer
 10
-86.5439999999999969
 20
-98.9339999999999975
 30
0.0
 11
-87.0520000000000067
 21
-98.3199999999999932
 31
0.0
  0
LINE
  5
110
100
AcDbEntity
100
AcDbLine
  8
0
 62
256
370
-1
  6
ByLayer
 10
-87.0520000000000067
 20
-98.3199999999999932
 30
0.0
 11
-87.480000000000004
 21
-97.6460000000000008
 31
0.0
  0
LINE
  5
111
100
AcDbEntity
100
AcDbLine
  8
0
 62
256
370
-1
  6
ByLayer
 10
-87.480000000000004
 20
-97.6460000000000008
 30
0.0
 11
-87.8190000000000026
 21
-96.9249999999999972
 31
0.0
  0
LINE
  5
112
100
AcDbEntity
100
AcDbLine
  8
0
 62
256
370
-1
  6
ByLayer
 10
-87.8190000000000026
 20
-96.9249999999999972
 30
0.0
 11
-88.0660000000000025
 21
-96.1659999999999968
 31
0.0
  0
LINE
  5
113
100
AcDbEntity
100
AcDbLine
  8
0
 62
256
370
-1
  6
ByLayer
 10
-88.0660000000000025
 20
-96.1659999999999968
 30
0.0
 11
-88.2150000000000034
 21
-95.3829999999999956
 31
0.0
  0
LINE
  5
114
100
AcDbEntity
100
AcDbLine
  8
0
 62
256
370
-1
  6
ByLayer
 10
-88.2150000000000034
 20
-95.3829999999999956
 30
0.0
 11
-88.2650000000000006
 21
-94.5870000000000033
 31
0.0
  0
LINE
  5
115
100
AcDbEntity
100
AcDbLine
  8
0
 62
256
370
-1
  6
ByLayer
 10
-88.2650000000000006
 20
94.5870000000000033
 30
0.0
 11
-88.2150000000000034
 21
95.3829999999999956
 31
0.0
  0
LINE
  5
116
100
AcDbEntity
100
AcDbLine
  8
0
 62
256
370
-1
  6
ByLayer
 10
-88.2150000000000034
 20
95.3829999999999956
 30
0.0
 11
-88.0660000000000025
 21
96.1659999999999968
 31
0.0
  0
LINE
  5
117
100
AcDbEntity
100
AcDbLine
  8
0
 62
256
370
-1
  6
ByLayer
 10
-88.0660000000000025
 20
96.1659999999999968
 30
0.0
 11
-87.8190000000000026
 21
96.9249999999999972
 31
0.0
  0
LINE
  5
118
100
AcDbEntity
100
AcDbLine
  8
0
 62
256
370
-1
  6
ByLayer
 10
-87.8190000000000026
 20
96.9249999999999972
 30
0.0
 11
-87.480000000000004
 21
97.6460000000000008
 31
0.0
  0
LINE
  5
119
100
AcDbEntity
100
AcDbLine
  8
0
 62
256
370
-1
  6
ByLayer
 10
-87.480000000000004
 20
97.6460000000000008
 30
0.0
 11
-87.0520000000000067
 21
98.3199999999999932
 31
0.0
  0
LINE
  5
11A
100
AcDbEntity
100
AcDbLine
  8
0
 62
256
370
-1
  6
ByLayer
 10
-87.0520000000000067
 20
98.3199999999999932
 30
0.0
 11
-86.5439999999999969
 21
98.9339999999999975
 31
0.0
  0
LINE
  5
11B
100
AcDbEntity
100
AcDbLine
  8
0
 62
256
370
-1
  6
ByLayer
 10
-86.5439999999999969
 20
98.9339999999999975
 30
0.0
 11
-85.9629999999999939
 21
99.480000000000004
 31
0.0
  0
LINE
  5
11C
100
AcDbEntity
100
AcDbLine
  8
0
 62
256
370
-1
  6
ByLayer
 10
-85.9629999999999939
 20
99.480000000000004
 30
0.0
 11
-85.3179999999999978
 21
99.9489999999999981
 31
0.0
  0
LINE
  5
11D
100
AcDbEntity
100
AcDbLine
  8
0
 62
256
370
-1
  6
ByLayer
 10
-85.3179999999999978
 20
99.9489999999999981
 30
0.0
 11
-84.6189999999999998
 21
100.3329999999999984
 31
0.0
  0
LINE
  5
11E
100
AcDbEntity
100
AcDbLine
  8
0
 62
256
370
-1
  6
ByLayer
 10
-84.6189999999999998
 20
100.3329999999999984
 30
0.0
 11
-83.8769999999999953
 21
100.6260000000000048
 31
0.0
  0
LINE
  5
11F
100
AcDbEntity
100
AcDbLine
  8
0
 62
256
370
-1
  6
ByLayer
 10
-83.8769999999999953
 20
100.6260000000000048
 30
0.0
 11
-83.105000000000004
 21
100.8250000000000028
 31
0.0
  0
LINE
  5
120
100
AcDbEntity
100
AcDbLine
  8
0
 62
256
370
-1
  6
ByLayer
 10
-83.105000000000004
 20
100.8250000000000028
 30
0.0
 11
-82.313999999999993
 21
100.9249999999999972
 31
0.0
  0
LINE
  5
121
100
AcDbEntity
100
AcDbLine
  8
0
 62
256
370
-1
  6
ByLayer
 10
-82.313999999999993
 20
100.9249999999999972
 30
0.0
 11
-81.5160000000000053
 21
100.9249999999999972
 31
0.0
  0
LINE
  5
122
100
AcDbEntity
100
AcDbLine
  8
0
 62
256
370
-1
  6
ByLayer
 10
-81.5160000000000053
 20
100.9249999999999972
 30
0.0
 11
-80.7249999999999943
 21
100.8250000000000028
 31
0.0
  0
LINE
  5
123
100
AcDbEntity
100
AcDbLine
  8
0
 62
256
370
-1
  6
ByLayer
 10
-80.7249999999999943
 20
100.8250000000000028
 30
0.0
 11
-79.953000000000003
 21
100.6260000000000048
 31
0.0
  0
LINE
  5
124
100
AcDbEntity
100
AcDbLine
  8
0
 62
256
370
-1
  6
ByLayer
 10
-79.953000000000003
 20
100.6260000000000048
 30
0.0
 11
-79.2109999999999985
 21
100.3329999999999984
 31
0.0
  0
LINE
  5
125
100
AcDbEntity
100
AcDbLine
  8
0
 62
256
370
-1
  6
ByLayer
 10
-79.2109999999999985
 20
100.3329999999999984
 30
0.0
 11
-78.5130000000000052
 21
99.9489999999999981
 31
0.0
  0
LINE
  5
126
100
AcDbEntity
100
AcDbLine
  8
0
 62
256
370
-1
  6
ByLayer
 10
-78.5130000000000052
 20
99.9489999999999981
 30
0.0
 11
-77.8670000000000044
 21
99.480000000000004
 31
0.0
  0
LINE
  5
127
100
AcDbEntity
100
AcDbLine
  8
0
 62
256
370
-1
  6
ByLayer
 10
-77.8670000000000044
 20
99.480000000000004
 30
0.0
 11
-77.2860000000000014
 21
98.9339999999999975
 31
0.0
  0
LINE
  5
128
100
AcDbEntity
100
AcDbLine
  8
0
 62
256
370
-1
  6
ByLayer
 10
-77.2860000000000014
 20
98.9339999999999975
 30
0.0
 11
-76.7780000000000058
 21
98.3199999999999932
 31
0.0
  0
LINE
  5
129
100
AcDbEntity
100
AcDbLine
  8
0
 62
256
370
-1
  6
ByLayer
 10
-76.7780000000000058
 20
98.3199999999999932
 30
0.0
 11
-76.3499999999999943
 21
97.6460000000000008
 31
0.0
  0
LINE
  5
12A
100
AcDbEntity
100
AcDbLine
  8
0
 62
256
370
-1
  6
ByLayer
 10
-76.3499999999999943
 20
97.6460000000000008
 30
0.0
 11
-76.0109999999999957
 21
96.9249999999999972
 31
0.0
  0
LINE
  5
12B
100
AcDbEntity
100
AcDbLine
  8
0
 62
256
370
-1
  6
ByLayer
 10
-76.0109999999999957
 20
96.9249999999999972
 30
0.0
 11
-75.7639999999999958
 21
96.1659999999999968
 31
0.0
  0
LINE
  5
12C
100
AcDbEntity
100
AcDbLine
  8
0
 62
256
370
-1
  6
ByLayer
 10
-75.7639999999999958
 20
96.1659999999999968
 30
0.0
 11
-75.6149999999999949
 21
95.3829999999999956
 31
0.0
  0
LINE
  5
12D
100
AcDbEntity
100
AcDbLine
  8
0
 62
256
370
-1
  6
ByLayer
 10
-75.6149999999999949
 20
95.3829999999999956
 30
0.0
 11
-75.5649999999999977
 21
94.5870000000000033
 31
0.0
  0
LINE
  5
12E
100
AcDbEntity
100
AcDbLine
  8
0
 62
256
370
-1
  6
ByLayer
 10
-75.5649999999999977
 20
94.5870000000000033
 30
0.0
 11
-75.6149999999999949
 21
93.7909999999999968
 31
0.0
  0
LINE
  5
12F
100
AcDbEntity
100
AcDbLine
  8
0
 62
256
370
-1
  6
ByLayer
 10
-75.6149999999999949
 20
93.7909999999999968
 30
0.0
 11
-75.7639999999999958
 21
93.0079999999999956
 31
0.0
  0
LINE
  5
130
100
AcDbEntity
100
AcDbLine
  8
0
 62
256
370
-1
  6
ByLayer
 10
-75.7639999999999958
 20
93.0079999999999956
 30
0.0
 11
-76.0109999999999957
 21
92.25
 31
0.0
  0
LINE
  5
131
100
AcDbEntity
100
AcDbLine
  8
0
 62
256
370
-1
  6
ByLayer
 10
-76.0109999999999957
 20
92.25
 30
0.0
 11
-76.3499999999999943
 21
91.5280000000000058
 31
0.0
  0
LINE
  5
132
100
AcDbEntity
100
AcDbLine
  8
0
 62
256
370
-1
  6
ByLayer
 10
-76.3499999999999943
 20
91.5280000000000058
 30
0.0
 11
-76.7780000000000058
 21
90.855000000000004
 31
0.0
  0
LINE
  5
133
100
AcDbEntity
100
AcDbLine
  8
0
 62
256
370
-1
  6
ByLayer
 10
-76.7780000000000058
 20
90.855000000000004
 30
0.0
 11
-77.2860000000000014
 21
90.2399999999999949
 31
0.0
  0
LINE
  5
134
100
AcDbEntity
100
AcDbLine
  8
0
 62
256
370
-1
  6
ByLayer
 10
-77.2860000000000014
 20
90.2399999999999949
 30
0.0
 11
-77.8670000000000044
 21
89.6949999999999932
 31
0.0
  0
LINE
  5
135
100
AcDbEntity
100
AcDbLine
  8
0
 62
256
370
-1
  6
ByLayer
 10
-77.8670000000000044
 20
89.6949999999999932
 30
0.0
 11
-78.5130000000000052
 21
89.2259999999999991
 31
0.0
  0
LINE
  5
136
100
AcDbEntity
100
AcDbLine
  8
0
 62
256
370
-1
  6
ByLayer
 10
-78.5130000000000052
 20
89.2259999999999991
 30
0.0
 11
-79.2109999999999985
 21
88.8419999999999987
 31
0.0
  0
LINE
  5
137
100
AcDbEntity
100
AcDbLine
  8
0
 62
256
370
-1
  6
ByLayer
 10
-79.2109999999999985
 20
88.8419999999999987
 30
0.0
 11
-79.953000000000003
 21
88.5480000000000018
 31
0.0
  0
LINE
  5
138
100
AcDbEntity
100
AcDbLine
  8
0
 62
256
370
-1
  6
ByLayer
 10
-79.953000000000003
 20
88.5480000000000018
 30
0.0
 11
-80.7249999999999943
 21
88.3499999999999943
 31
0.0
  0
LINE
  5
139
100
AcDbEntity
100
AcDbLine
  8
0
 62
256
370
-1
  6
ByLayer
 10
-80.7249999999999943
 20
88.3499999999999943
 30
0.0
 11
-81.5160000000000053
 21
88.25
 31
0.0
  0
LINE
  5
13A
100
AcDbEntity
100
AcDbLine
  8
0
 62
256
370
-1
  6
ByLayer
 10
-81.5160000000000053
 20
88.25
 30
0.0
 11
-82.313999999999993
 21
88.25
 31
0.0
  0
LINE
  5
13B
100
AcDbEntity
100
AcDbLine
  8
0
 62
256
370
-1
  6
ByLayer
 10
-82.313999999999993
 20
88.25
 30
0.0
 11
-83.105000000000004
 21
88.3499999999999943
 31
0.0
  0
LINE
  5
13C
100
AcDbEntity
100
AcDbLine
  8
0
 62
256
370
-1
  6
ByLayer
 10
-83.105000000000004
 20
88.3499999999999943
 30
0.0
 11
-83.8769999999999953
 21
88.5480000000000018
 31
0.0
  0
LINE
  5
13D
100
AcDbEntity
100
AcDbLine
  8
0
 62
256
370
-1
  6
ByLayer
 10
-83.8769999999999953
 20
88.5480000000000018
 30
0.0
 11
-84.6189999999999998
 21
88.8419999999999987
 31
0.0
  0
LINE
  5
13E
100
AcDbEntity
100
AcDbLine
  8
0
 62
256
370
-1
  6
ByLayer
 10
-84.6189999999999998
 20
88.8419999999999987
 30
0.0
 11
-85.3179999999999978
 21
89.2259999999999991
 31
0.0
  0
LINE
  5
13F
100
AcDbEntity
100
AcDbLine
  8
0
 62
256
370
-1
  6
ByLayer
 10
-85.3179999999999978
 20
89.2259999999999991
 30
0.0
 11
-85.9629999999999939
 21
89.6949999999999932
 31
0.0
  0
LINE
  5
140
100
AcDbEntity
100
AcDbLine
  8
0
 62
256
370
-1
  6
ByLayer
 10
-85.9629999999999939
 20
89.6949999999999932
 30
0.0
 11
-86.5439999999999969
 21
90.2399999999999949
 31
0.0
  0
LINE
  5
141
100
AcDbEntity
100
AcDbLine
  8
0
 62
256
370
-1
  6
ByLayer
 10
-86.5439999999999969
 20
90.2399999999999949
 30
0.0
 11
-87.0520000000000067
 21
90.855000000000004
 31
0.0
  0
LINE
  5
142
100
AcDbEntity
100
AcDbLine
  8
0
 62
256
370
-1
  6
ByLayer
 10
-87.0520000000000067
 20
90.855000000000004
 30
0.0
 11
-87.480000000000004
 21
91.5280000000000058
 31
0.0
  0
LINE
  5
143
100
AcDbEntity
100
AcDbLine
  8
0
 62
256
370
-1
  6
ByLayer
 10
-87.480000000000004
 20
91.5280000000000058
 30
0.0
 11
-87.8190000000000026
 21
92.25
 31
0.0
  0
LINE
  5
144
100
AcDbEntity
100
AcDbLine
  8
0
 62
256
370
-1
  6
ByLayer
 10
-87.8190000000000026
 20
92.25
 30
0.0
 11
-88.0660000000000025
 21
93.0079999999999956
 31
0.0
  0
LINE
  5
145
100
AcDbEntity
100
AcDbLine
  8
0
 62
256
370
-1
  6
ByLayer
 10
-88.0660000000000025
 20
93.0079999999999956
 30
0.0
 11
-88.2150000000000034
 21
93.7909999999999968
 31
0.0
  0
LINE
  5
146
100
AcDbEntity
100
AcDbLine
  8
0
 62
256
370
-1
  6
ByLayer
 10
-88.2150000000000034
 20
93.7909999999999968
 30
0.0
 11
-88.2650000000000006
 21
94.5870000000000033
 31
0.0
  0
LINE
  5
147
100
AcDbEntity
100
AcDbLine
  8
0
 62
256
370
-1
  6
ByLayer
 10
75.5649999999999977
 20
0.0
 30
0.0
 11
75.6149999999999949
 21
0.796
 31
0.0
  0
LINE
  5
148
100
AcDbEntity
100
AcDbLine
  8
0
 62
256
370
-1
  6
ByLayer
 10
75.6149999999999949
 20
0.796
 30
0.0
 11
75.7639999999999958
 21
1.579
 31
0.0
  0
LINE
  5
149
100
AcDbEntity
100
AcDbLine
  8
0
 62
256
370
-1
  6
ByLayer
 10
75.7639999999999958
 20
1.579
 30
0.0
 11
76.0109999999999957
 21
2.3380000000000001
 31
0.0
  0
LINE
  5
14A
100
AcDbEntity
100
AcDbLine
  8
0
 62
256
370
-1
  6
ByLayer
 10
76.0109999999999957
 20
2.3380000000000001
 30
0.0
 11
76.3499999999999943
 21
3.0590000000000002
 31
0.0
  0
LINE
  5
14B
100
AcDbEntity
100
AcDbLine
  8
0
 62
256
370
-1
  6
ByLayer
 10
76.3499999999999943
 20
3.0590000000000002
 30
0.0
 11
76.7780000000000058
 21
3.7320000000000002
 31
0.0
  0
LINE
  5
14C
100
AcDbEntity
100
AcDbLine
  8
0
 62
256
370
-1
  6
ByLayer
 10
76.7780000000000058
 20
3.7320000000000002
 30
0.0
 11
77.2860000000000014
 21
4.3470000000000004
 31
0.0
  0
LINE
  5
14D
100
AcDbEntity
100
AcDbLine
  8
0
 62
256
370
-1
  6
ByLayer
 10
77.2860000000000014
 20
4.3470000000000004
 30
0.0
 11
77.8670000000000044
 21
4.8929999999999998
 31
0.0
  0
LINE
  5
14E
100
AcDbEntity
100
AcDbLine
  8
0
 62
256
370
-1
  6
ByLayer
 10
77.8670000000000044
 20
4.8929999999999998
 30
0.0
 11
78.5130000000000052
 21
5.3609999999999998
 31
0.0
  0
LINE
  5
14F
100
AcDbEntity
100
AcDbLine
  8
0
 62
256
370
-1
  6
ByLayer
 10
78.5130000000000052
 20
5.3609999999999998
 30
0.0
 11
79.2109999999999985
 21
5.7460000000000004
 31
0.0
  0
LINE
  5
150
100
AcDbEntity
100
AcDbLine
  8
0
 62
256
370
-1
  6
ByLayer
 10
79.2109999999999985
 20
5.7460000000000004
 30
0.0
 11
79.953000000000003
 21
6.0389999999999997
 31
0.0
  0
LINE
  5
151
100
AcDbEntity
100
AcDbLine
  8
0
 62
256
370
-1
  6
ByLayer
 10
79.953000000000003
 20
6.0389999999999997
 30
0.0
 11
80.7249999999999943
 21
6.2380000000000004
 31
0.0
  0
LINE
  5
152
100
AcDbEntity
100
AcDbLine
  8
0
 62
256
370
-1
  6
ByLayer
 10
80.7249999999999943
 20
6.2380000000000004
 30
0.0
 11
81.5160000000000053
 21
6.3369999999999997
 31
0.0
  0
LINE
  5
153
100
AcDbEntity
100
AcDbLine
  8
0
 62
256
370
-1
  6
ByLayer
 10
81.5160000000000053
 20
6.3369999999999997
 30
0.0
 11
82.313999999999993
 21
6.3369999999999997
 31
0.0
  0
LINE
  5
154
100
AcDbEntity
100
AcDbLine
  8
0
 62
256
370
-1
  6
ByLayer
 10
82.313999999999993
 20
6.3369999999999997
 30
0.0
 11
83.105000000000004
 21
6.2380000000000004
 31
0.0
  0
LINE
  5
155
100
AcDbEntity
100
AcDbLine
  8
0
 62
256
370
-1
  6
ByLayer
 10
83.105000000000004
 20
6.2380000000000004
 30
0.0
 11
83.8769999999999953
 21
6.0389999999999997
 31
0.0
  0
LINE
  5
156
100
AcDbEntity
100
AcDbLine
  8
0
 62
256
370
-1
  6
ByLayer
 10
83.8769999999999953
 20
6.0389999999999997
 30
0.0
 11
84.6189999999999998
 21
5.7460000000000004
 31
0.0
  0
LINE
  5
157
100
AcDbEntity
100
AcDbLine
  8
0
 62
256
370
-1
  6
ByLayer
 10
84.6189999999999998
 20
5.7460000000000004
 30
0.0
 11
85.3179999999999978
 21
5.3609999999999998
 31
0.0
  0
LINE
  5
158
100
AcDbEntity
100
AcDbLine
  8
0
 62
256
370
-1
  6
ByLayer
 10
85.3179999999999978
 20
5.3609999999999998
 30
0.0
 11
85.9629999999999939
 21
4.8929999999999998
 31
0.0
  0
LINE
  5
159
100
AcDbEntity
100
AcDbLine
  8
0
 62
256
370
-1
  6
ByLayer
 10
85.9629999999999939
 20
4.8929999999999998
 30
0.0
 11
86.5439999999999969
 21
4.3470000000000004
 31
0.0
  0
LINE
  5
15A
100
AcDbEntity
100
AcDbLine
  8
0
 62
256
370
-1
  6
ByLayer
 10
86.5439999999999969
 20
4.3470000000000004
 30
0.0
 11
87.0520000000000067
 21
3.7320000000000002
 31
0.0
  0
LINE
  5
15B
100
AcDbEntity
100
AcDbLine
  8
0
 62
256
370
-1
  6
ByLayer
 10
87.0520000000000067
 20
3.7320000000000002
 30
0.0
 11
87.480000000000004
 21
3.0590000000000002
 31
0.0
  0
LINE
  5
15C
100
AcDbEntity
100
AcDbLine
  8
0
 62
256
370
-1
  6
ByLayer
 10
87.480000000000004
 20
3.0590000000000002
 30
0.0
 11
87.8190000000000026
 21
2.3380000000000001
 31
0.0
  0
LINE
  5
15D
100
AcDbEntity
100
AcDbLine
  8
0
 62
256
370
-1
  6
ByLayer
 10
87.8190000000000026
 20
2.3380000000000001
 30
0.0
 11
88.0660000000000025
 21
1.579
 31
0.0
  0
LINE
  5
15E
100
AcDbEntity
100
AcDbLine
  8
0
 62
256
370
-1
  6
ByLayer
 10
88.0660000000000025
 20
1.579
 30
0.0
 11
88.2150000000000034
 21
0.796
 31
0.0
  0
LINE
  5
15F
100
AcDbEntity
100
AcDbLine
  8
0
 62
256
370
-1
  6
ByLayer
 10
88.2150000000000034
 20
0.796
 30
0.0
 11
88.2650000000000006
 21
0.0
 31
0.0
  0
LINE
  5
160
100
AcDbEntity
100
AcDbLine
  8
0
 62
256
370
-1
  6
ByLayer
 10
88.2650000000000006
 20
0.0
 30
0.0
 11
88.2150000000000034
 21
-0.796
 31
0.0
  0
LINE
  5
161
100
AcDbEntity
100
AcDbLine
  8
0
 62
256
370
-1
  6
ByLayer
 10
88.2150000000000034
 20
-0.796
 30
0.0
 11
88.0660000000000025
 21
-1.579
 31
0.0
  0
LINE
  5
162
100
AcDbEntity
100
AcDbLine
  8
0
 62
256
370
-1
  6
ByLayer
 10
88.0660000000000025
 20
-1.579
 30
0.0
 11
87.8190000000000026
 21
-2.3380000000000001
 31
0.0
  0
LINE
  5
163
100
AcDbEntity
100
AcDbLine
  8
0
 62
256
370
-1
  6
ByLayer
 10
87.8190000000000026
 20
-2.3380000000000001
 30
0.0
 11
87.480000000000004
 21
-3.0590000000000002
 31
0.0
  0
LINE
  5
164
100
AcDbEntity
100
AcDbLine
  8
0
 62
256
370
-1
  6
ByLayer
 10
87.480000000000004
 20
-3.0590000000000002
 30
0.0
 11
87.0520000000000067
 21
-3.7320000000000002
 31
0.0
  0
LINE
  5
165
100
AcDbEntity
100
AcDbLine
  8
0
 62
256
370
-1
  6
ByLayer
 10
87.0520000000000067
 20
-3.7320000000000002
 30
0.0
 11
86.5439999999999969
 21
-4.3470000000000004
 31
0.0
  0
LINE
  5
166
100
AcDbEntity
100
AcDbLine
  8
0
 62
256
370
-1
  6
ByLayer
 10
86.5439999999999969
 20
-4.3470000000000004
 30
0.0
 11
85.9629999999999939
 21
-4.8929999999999998
 31
0.0
  0
LINE
  5
167
100
AcDbEntity
100
AcDbLine
  8
0
 62
256
370
-1
  6
ByLayer
 10
85.9629999999999939
 20
-4.8929999999999998
 30
0.0
 11
85.3179999999999978
 21
-5.3609999999999998
 31
0.0
  0
LINE
  5
168
100
AcDbEntity
100
AcDbLine
  8
0
 62
256
370
-1
  6
ByLayer
 10
85.3179999999999978
 20
-5.3609999999999998
 30
0.0
 11
84.6189999999999998
 21
-5.7460000000000004
 31
0.0
  0
LINE
  5
169
100
AcDbEntity
100
AcDbLine
  8
0
 62
256
370
-1
  6
ByLayer
 10
84.6189999999999998
 20
-5.7460000000000004
 30
0.0
 11
83.8769999999999953
 21
-6.0389999999999997
 31
0.0
  0
LINE
  5
16A
100
AcDbEntity
100
AcDbLine
  8
0
 62
256
370
-1
  6
ByLayer
 10
83.8769999999999953
 20
-6.0389999999999997
 30
0.0
 11
83.105000000000004
 21
-6.2380000000000004
 31
0.0
  0
LINE
  5
16B
100
AcDbEntity
100
AcDbLine
  8
0
 62
256
370
-1
  6
ByLayer
 10
83.105000000000004
 20
-6.2380000000000004
 30
0.0
 11
82.313999999999993
 21
-6.3369999999999997
 31
0.0
  0
LINE
  5
16C
100
AcDbEntity
100
AcDbLine
  8
0
 62
256
370
-1
  6
ByLayer
 10
82.313999999999993
 20
-6.3369999999999997
 30
0.0
 11
81.5160000000000053
 21
-6.3369999999999997
 31
0.0
  0
LINE
  5
16D
100
AcDbEntity
100
AcDbLine
  8
0
 62
256
370
-1
  6
ByLayer
 10
81.5160000000000053
 20
-6.3369999999999997
 30
0.0
 11
80.7249999999999943
 21
-6.2380000000000004
 31
0.0
  0
LINE
  5
16E
100
AcDbEntity
100
AcDbLine
  8
0
 62
256
370
-1
  6
ByLayer
 10
80.7249999999999943
 20
-6.2380000000000004
 30
0.0
 11
79.953000000000003
 21
-6.0389999999999997
 31
0.0
  0
LINE
  5
16F
100
AcDbEntity
100
AcDbLine
  8
0
 62
256
370
-1
  6
ByLayer
 10
79.953000000000003
 20
-6.0389999999999997
 30
0.0
 11
79.2109999999999985
 21
-5.7460000000000004
 31
0.0
  0
LINE
  5
170
100
AcDbEntity
100
AcDbLine
  8
0
 62
256
370
-1
  6
ByLayer
 10
79.2109999999999985
 20
-5.7460000000000004
 30
0.0
 11
78.5130000000000052
 21
-5.3609999999999998
 31
0.0
  0
LINE
  5
171
100
AcDbEntity
100
AcDbLine
  8
0
 62
256
370
-1
  6
ByLayer
 10
78.5130000000000052
 20
-5.3609999999999998
 30
0.0
 11
77.8670000000000044
 21
-4.8929999999999998
 31
0.0
  0
LINE
  5
172
100
AcDbEntity
100
AcDbLine
  8
0
 62
256
370
-1
  6
ByLayer
 10
77.8670000000000044
 20
-4.8929999999999998
 30
0.0
 11
77.2860000000000014
 21
-4.3470000000000004
 31
0.0
  0
LINE
  5
173
100
AcDbEntity
100
AcDbLine
  8
0
 62
256
370
-1
  6
ByLayer
 10
77.2860000000000014
 20
-4.3470000000000004
 30
0.0
 11
76.7780000000000058
 21
-3.7320000000000002
 31
0.0
  0
LINE
  5
174
100
AcDbEntity
100
AcDbLine
  8
0
 62
256
370
-1
  6
ByLayer
 10
76.7780000000000058
 20
-3.7320000000000002
 30
0.0
 11
76.3499999999999943
 21
-3.0590000000000002
 31
0.0
  0
LINE
  5
175
100
AcDbEntity
100
AcDbLine
  8
0
 62
256
370
-1
  6
ByLayer
 10
76.3499999999999943
 20
-3.0590000000000002
 30
0.0
 11
76.0109999999999957
 21
-2.3380000000000001
 31
0.0
  0
LINE
  5
176
100
AcDbEntity
100
AcDbLine
  8
0
 62
256
370
-1
  6
ByLayer
 10
76.0109999999999957
 20
-2.3380000000000001
 30
0.0
 11
75.7639999999999958
 21
-1.579
 31
0.0
  0
LINE
  5
177
100
AcDbEntity
100
AcDbLine
  8
0
 62
256
370
-1
  6
ByLayer
 10
75.7639999999999958
 20
-1.579
 30
0.0
 11
75.6149999999999949
 21
-0.796
 31
0.0
  0
LINE
  5
178
100
AcDbEntity
100
AcDbLine
  8
0
 62
256
370
-1
  6
ByLayer
 10
75.6149999999999949
 20
-0.796
 30
0.0
 11
75.5649999999999977
 21
0.0
 31
0.0
  0
LINE
  5
179
100
AcDbEntity
100
AcDbLine
  8
0
 62
256
370
-1
  6
ByLayer
 10
126.9110000000000014
 20
-130.1750000000000114
 30
0.0
 11
126.9369999999999976
 21
-129.7659999999999911
 31
0.0
  0
LINE
  5
17A
100
AcDbEntity
100
AcDbLine
  8
0
 62
256
370
-1
  6
ByLayer
 10
126.9369999999999976
 20
-129.7659999999999911
 30
0.0
 11
127.0139999999999958
 21
-129.3629999999999995
 31
0.0
  0
LINE
  5
17B
100
AcDbEntity
100
AcDbLine
  8
0
 62
256
370
-1
  6
ByLayer
 10
127.0139999999999958
 20
-129.3629999999999995
 30
0.0
 11
127.1400000000000006
 21
-128.9730000000000132
 31
0.0
  0
LINE
  5
17C
100
AcDbEntity
100
AcDbLine
  8
0
 62
256
370
-1
  6
ByLayer
 10
127.1400000000000006
 20
-128.9730000000000132
 30
0.0
 11
127.3149999999999977
 21
-128.6030000000000086
 31
0.0
  0
LINE
  5
17D
100
AcDbEntity
100
AcDbLine
  8
0
 62
256
370
-1
  6
ByLayer
 10
127.3149999999999977
 20
-128.6030000000000086
 30
0.0
 11
127.534000000000006
 21
-128.257000000000005
 31
0.0
  0
LINE
  5
17E
100
AcDbEntity
100
AcDbLine
  8
0
 62
256
370
-1
  6
ByLayer
 10
127.534000000000006
 20
-128.257000000000005
 30
0.0
 11
127.7960000000000065
 21
-127.9410000000000025
 31
0.0
  0
LINE
  5
17F
100
AcDbEntity
100
AcDbLine
  8
0
 62
256
370
-1
  6
ByLayer
 10
127.7960000000000065
 20
-127.9410000000000025
 30
0.0
 11
128.0949999999999989
 21
-127.6599999999999966
 31
0.0
  0
LINE
  5
180
100
AcDbEntity
100
AcDbLine
  8
0
 62
256
370
-1
  6
ByLayer
 10
128.0949999999999989
 20
-127.6599999999999966
 30
0.0
 11
128.4259999999999877
 21
-127.4189999999999969
 31
0.0
  0
LINE
  5
181
100
AcDbEntity
100
AcDbLine
  8
0
 62
256
370
-1
  6
ByLayer
 10
128.4259999999999877
 20
-127.4189999999999969
 30
0.0
 11
128.7849999999999966
 21
-127.2219999999999942
 31
0.0
  0
LINE
  5
182
100
AcDbEntity
100
AcDbLine
  8
0
 62
256
370
-1
  6
ByLayer
 10
128.7849999999999966
 20
-127.2219999999999942
 30
0.0
 11
129.1659999999999968
 21
-127.070999999999998
 31
0.0
  0
LINE
  5
183
100
AcDbEntity
100
AcDbLine
  8
0
 62
256
370
-1
  6
ByLayer
 10
129.1659999999999968
 20
-127.070999999999998
 30
0.0
 11
129.5629999999999882
 21
-126.9689999999999941
 31
0.0
  0
LINE
  5
184
100
AcDbEntity
100
AcDbLine
  8
0
 62
256
370
-1
  6
ByLayer
 10
129.5629999999999882
 20
-126.9689999999999941
 30
0.0
 11
129.9699999999999989
 21
-126.9180000000000064
 31
0.0
  0
LINE
  5
185
100
AcDbEntity
100
AcDbLine
  8
0
 62
256
370
-1
  6
ByLayer
 10
129.9699999999999989
 20
-126.9180000000000064
 30
0.0
 11
130.3799999999999955
 21
-126.9180000000000064
 31
0.0
  0
LINE
  5
186
100
AcDbEntity
100
AcDbLine
  8
0
 62
256
370
-1
  6
ByLayer
 10
130.3799999999999955
 20
-126.9180000000000064
 30
0.0
 11
130.7870000000000061
 21
-126.9689999999999941
 31
0.0
  0
LINE
  5
187
100
AcDbEntity
100
AcDbLine
  8
0
 62
256
370
-1
  6
ByLayer
 10
130.7870000000000061
 20
-126.9689999999999941
 30
0.0
 11
131.1839999999999975
 21
-127.070999999999998
 31
0.0
  0
LINE
  5
188
100
AcDbEntity
100
AcDbLine
  8
0
 62
256
370
-1
  6
ByLayer
 10
131.1839999999999975
 20
-127.070999999999998
 30
0.0
 11
131.5649999999999977
 21
-127.2219999999999942
 31
0.0
  0
LINE
  5
189
100
AcDbEntity
100
AcDbLine
  8
0
 62
256
370
-1
  6
ByLayer
 10
131.5649999999999977
 20
-127.2219999999999942
 30
0.0
 11
131.9240000000000066
 21
-127.4189999999999969
 31
0.0
  0
LINE
  5
18A
100
AcDbEntity
100
AcDbLine
  8
0
 62
256
370
-1
  6
ByLayer
 10
131.9240000000000066
 20
-127.4189999999999969
 30
0.0
 11
132.2549999999999955
 21
-127.6599999999999966
 31
0.0
  0
LINE
  5
18B
100
AcDbEntity
100
AcDbLine
  8
0
 62
256
370
-1
  6
ByLayer
 10
132.2549999999999955
 20
-127.6599999999999966
 30
0.0
 11
132.554000000000002
 21
-127.9410000000000025
 31
0.0
  0
LINE
  5
18C
100
AcDbEntity
100
AcDbLine
  8
0
 62
256
370
-1
  6
ByLayer
 10
132.554000000000002
 20
-127.9410000000000025
 30
0.0
 11
132.8160000000000025
 21
-128.257000000000005
 31
0.0
  0
LINE
  5
18D
100
AcDbEntity
100
AcDbLine
  8
0
 62
256
370
-1
  6
ByLayer
 10
132.8160000000000025
 20
-128.257000000000005
 30
0.0
 11
133.0349999999999966
 21
-128.6030000000000086
 31
0.0
  0
LINE
  5
18E
100
AcDbEntity
100
AcDbLine
  8
0
 62
256
370
-1
  6
ByLayer
 10
133.0349999999999966
 20
-128.6030000000000086
 30
0.0
 11
133.210000000000008
 21
-128.9730000000000132
 31
0.0
  0
LINE
  5
18F
100
AcDbEntity
100
AcDbLine
  8
0
 62
256
370
-1
  6
ByLayer
 10
133.210000000000008
 20
-128.9730000000000132
 30
0.0
 11
133.3360000000000127
 21
-129.3629999999999995
 31
0.0
  0
LINE
  5
190
100
AcDbEntity
100
AcDbLine
  8
0
 62
256
370
-1
  6
ByLayer
 10
133.3360000000000127
 20
-129.3629999999999995
 30
0.0
 11
133.4130000000000109
 21
-129.7659999999999911
 31
0.0
  0
LINE
  5
191
100
AcDbEntity
100
AcDbLine
  8
0
 62
256
370
-1
  6
ByLayer
 10
133.4130000000000109
 20
-129.7659999999999911
 30
0.0
 11
133.438999999999993
 21
-130.1750000000000114
 31
0.0
  0
LINE
  5
192
100
AcDbEntity
100
AcDbLine
  8
0
 62
256
370
-1
  6
ByLayer
 10
133.438999999999993
 20
-130.1750000000000114
 30
0.0
 11
133.4130000000000109
 21
-130.5840000000000032
 31
0.0
  0
LINE
  5
193
100
AcDbEntity
100
AcDbLine
  8
0
 62
256
370
-1
  6
ByLayer
 10
133.4130000000000109
 20
-130.5840000000000032
 30
0.0
 11
133.3360000000000127
 21
-130.9869999999999948
 31
0.0
  0
LINE
  5
194
100
AcDbEntity
100
AcDbLine
  8
0
 62
256
370
-1
  6
ByLayer
 10
133.3360000000000127
 20
-130.9869999999999948
 30
0.0
 11
133.210000000000008
 21
-131.3770000000000095
 31
0.0
  0
LINE
  5
195
100
AcDbEntity
100
AcDbLine
  8
0
 62
256
370
-1
  6
ByLayer
 10
133.210000000000008
 20
-131.3770000000000095
 30
0.0
 11
133.0349999999999966
 21
-131.7470000000000141
 31
0.0
  0
LINE
  5
196
100
AcDbEntity
100
AcDbLine
  8
0
 62
256
370
-1
  6
ByLayer
 10
133.0349999999999966
 20
-131.7470000000000141
 30
0.0
 11
132.8160000000000025
 21
-132.0929999999999893
 31
0.0
  0
LINE
  5
197
100
AcDbEntity
100
AcDbLine
  8
0
 62
256
370
-1
  6
ByLayer
 10
132.8160000000000025
 20
-132.0929999999999893
 30
0.0
 11
132.554000000000002
 21
-132.4089999999999918
 31
0.0
  0
LINE
  5
198
100
AcDbEntity
100
AcDbLine
  8
0
 62
256
370
-1
  6
ByLayer
 10
132.554000000000002
 20
-132.4089999999999918
 30
0.0
 11
132.2549999999999955
 21
-132.6899999999999977
 31
0.0
  0
LINE
  5
199
100
AcDbEntity
100
AcDbLine
  8
0
 62
256
370
-1
  6
ByLayer
 10
132.2549999999999955
 20
-132.6899999999999977
 30
0.0
 11
131.9240000000000066
 21
-132.9310000000000116
 31
0.0
  0
LINE
  5
19A
100
AcDbEntity
100
AcDbLine
  8
0
 62
256
370
-1
  6
ByLayer
 10
131.9240000000000066
 20
-132.9310000000000116
 30
0.0
 11
131.5649999999999977
 21
-133.1279999999999859
 31
0.0
  0
LINE
  5
19B
100
AcDbEntity
100
AcDbLine
  8
0
 62
256
370
-1
  6
ByLayer
 10
131.5649999999999977
 20
-133.1279999999999859
 30
0.0
 11
131.1839999999999975
 21
-133.2789999999999964
 31
0.0
  0
LINE
  5
19C
100
AcDbEntity
100
AcDbLine
  8
0
 62
256
370
-1
  6
ByLayer
 10
131.1839999999999975
 20
-133.2789999999999964
 30
0.0
 11
130.7870000000000061
 21
-133.3810000000000002
 31
0.0
  0
LINE
  5
19D
100
AcDbEntity
100
AcDbLine
  8
0
 62
256
370
-1
  6
ByLayer
 10
130.7870000000000061
 20
-133.3810000000000002
 30
0.0
 11
130.3799999999999955
 21
-133.4319999999999879
 31
0.0
  0
LINE
  5
19E
100
AcDbEntity
100
AcDbLine
  8
0
 62
256
370
-1
  6
ByLayer
 10
130.3799999999999955
 20
-133.4319999999999879
 30
0.0
 11
129.9699999999999989
 21
-133.4319999999999879
 31
0.0
  0
LINE
  5
19F
100
AcDbEntity
100
AcDbLine
  8
0
 62
256
370
-1
  6
ByLayer
 10
129.9699999999999989
 20
-133.4319999999999879
 30
0.0
 11
129.5629999999999882
 21
-133.3810000000000002
 31
0.0
  0
LINE
  5
1A0
100
AcDbEntity
100
AcDbLine
  8
0
 62
256
370
-1
  6
ByLayer
 10
129.5629999999999882
 20
-133.3810000000000002
 30
0.0
 11
129.1659999999999968
 21
-133.2789999999999964
 31
0.0
  0
LINE
  5
1A1
100
AcDbEntity
100
AcDbLine
  8
0
 62
256
370
-1
  6
ByLayer
 10
129.1659999999999968
 20
-133.2789999999999964
 30
0.0
 11
128.7849999999999966
 21
-133.1279999999999859
 31
0.0
  0
LINE
  5
1A2
100
AcDbEntity
100
AcDbLine
  8
0
 62
256
370
-1
  6
ByLayer
 10
128.7849999999999966
 20
-133.1279999999999859
 30
0.0
 11
128.4259999999999877
 21
-132.9310000000000116
 31
0.0
  0
LINE
  5
1A3
100
AcDbEntity
100
AcDbLine
  8
0
 62
256
370
-1
  6
ByLayer
 10
128.4259999999999877
 20
-132.9310000000000116
 30
0.0
 11
128.0949999999999989
 21
-132.6899999999999977
 31
0.0
  0
LINE
  5
1A4
100
AcDbEntity
100
AcDbLine
  8
0
 62
256
370
-1
  6
ByLayer
 10
128.0949999999999989
 20
-132.6899999999999977
 30
0.0
 11
127.7960000000000065
 21
-132.4089999999999918
 31
0.0
  0
LINE
  5
1A5
100
AcDbEntity
100
AcDbLine
  8
0
 62
256
370
-1
  6
ByLayer
 10
127.7960000000000065
 20
-132.4089999999999918
 30
0.0
 11
127.534000000000006
 21
-132.0929999999999893
 31
0.0
  0
LINE
  5
1A6
100
AcDbEntity
100
AcDbLine
  8
0
 62
256
370
-1
  6
ByLayer
 10
127.534000000000006
 20
-132.0929999999999893
 30
0.0
 11
127.3149999999999977
 21
-131.7470000000000141
 31
0.0
  0
LINE
  5
1A7
100
AcDbEntity
100
AcDbLine
  8
0
 62
256
370
-1
  6
ByLayer
 10
127.3149999999999977
 20
-131.7470000000000141
 30
0.0
 11
127.1400000000000006
 21
-131.3770000000000095
 31
0.0
  0
LINE
  5
1A8
100
AcDbEntity
100
AcDbLine
  8
0
 62
256
370
-1
  6
ByLayer
 10
127.1400000000000006
 20
-131.3770000000000095
 30
0.0
 11
127.0139999999999958
 21
-130.9869999999999948
 31
0.0
  0
LINE
  5
1A9
100
AcDbEntity
100
AcDbLine
  8
0
 62
256
370
-1
  6
ByLayer
 10
127.0139999999999958
 20
-130.9869999999999948
 30
0.0
 11
126.9369999999999976
 21
-130.5840000000000032
 31
0.0
  0
LINE
  5
1AA
100
AcDbEntity
100
AcDbLine
  8
0
 62
256
370
-1
  6
ByLayer
 10
126.9369999999999976
 20
-130.5840000000000032
 30
0.0
 11
126.9110000000000014
 21
-130.1750000000000114
 31
0.0
  0
LINE
  5
1AB
100
AcDbEntity
100
AcDbLine
  8
0
 62
256
370
-1
  6
ByLayer
 10
126.9110000000000014
 20
130.1750000000000114
 30
0.0
 11
126.9369999999999976
 21
130.5840000000000032
 31
0.0
  0
LINE
  5
1AC
100
AcDbEntity
100
AcDbLine
  8
0
 62
256
370
-1
  6
ByLayer
 10
126.9369999999999976
 20
130.5840000000000032
 30
0.0
 11
127.0139999999999958
 21
130.9869999999999948
 31
0.0
  0
LINE
  5
1AD
100
AcDbEntity
100
AcDbLine
  8
0
 62
256
370
-1
  6
ByLayer
 10
127.0139999999999958
 20
130.9869999999999948
 30
0.0
 11
127.1400000000000006
 21
131.3770000000000095
 31
0.0
  0
LINE
  5
1AE
100
AcDbEntity
100
AcDbLine
  8
0
 62
256
370
-1
  6
ByLayer
 10
127.1400000000000006
 20
131.3770000000000095
 30
0.0
 11
127.3149999999999977
 21
131.7470000000000141
 31
0.0
  0
LINE
  5
1AF
100
AcDbEntity
100
AcDbLine
  8
0
 62
256
370
-1
  6
ByLayer
 10
127.3149999999999977
 20
131.7470000000000141
 30
0.0
 11
127.534000000000006
 21
132.0929999999999893
 31
0.0
  0
LINE
  5
1B0
100
AcDbEntity
100
AcDbLine
  8
0
 62
256
370
-1
  6
ByLayer
 10
127.534000000000006
 20
132.0929999999999893
 30
0.0
 11
127.7960000000000065
 21
132.4089999999999918
 31
0.0
  0
LINE
  5
1B1
100
AcDbEntity
100
AcDbLine
  8
0
 62
256
370
-1
  6
ByLayer
 10
127.7960000000000065
 20
132.4089999999999918
 30
0.0
 11
128.0949999999999989
 21
132.6899999999999977
 31
0.0
  0
LINE
  5
1B2
100
AcDbEntity
100
AcDbLine
  8
0
 62
256
370
-1
  6
ByLayer
 10
128.0949999999999989
 20
132.6899999999999977
 30
0.0
 11
128.4259999999999877
 21
132.9310000000000116
 31
0.0
  0
LINE
  5
1B3
100
AcDbEntity
100
AcDbLine
  8
0
 62
256
370
-1
  6
ByLayer
 10
128.4259999999999877
 20
132.9310000000000116
 30
0.0
 11
128.7849999999999966
 21
133.1279999999999859
 31
0.0
  0
LINE
  5
1B4
100
AcDbEntity
100
AcDbLine
  8
0
 62
256
370
-1
  6
ByLayer
 10
128.7849999999999966
 20
133.1279999999999859
 30
0.0
 11
129.1659999999999968
 21
133.2789999999999964
 31
0.0
  0
LINE
  5
1B5
100
AcDbEntity
100
AcDbLine
  8
0
 62
256
370
-1
  6
ByLayer
 10
129.1659999999999968
 20
133.2789999999999964
 30
0.0
 11
129.5629999999999882
 21
133.3810000000000002
 31
0.0
  0
LINE
  5
1B6
100
AcDbEntity
100
AcDbLine
  8
0
 62
256
370
-1
  6
ByLayer
 10
129.5629999999999882
 20
133.3810000000000002
 30
0.0
 11
129.9699999999999989
 21
133.4319999999999879
 31
0.0
  0
LINE
  5
1B7
100
AcDbEntity
100
AcDbLine
  8
0
 62
256
370
-1
  6
ByLayer
 10
129.9699999999999989
 20
133.4319999999999879
 30
0.0
 11
130.3799999999999955
 21
133.4319999999999879
 31
0.0
  0
LINE
  5
1B8
100
AcDbEntity
100
AcDbLine
  8
0
 62
256
370
-1
  6
ByLayer
 10
130.3799999999999955
 20
133.4319999999999879
 30
0.0
 11
130.7870000000000061
 21
133.3810000000000002
 31
0.0
  0
LINE
  5
1B9
100
AcDbEntity
100
AcDbLine
  8
0
 62
256
370
-1
  6
ByLayer
 10
130.7870000000000061
 20
133.3810000000000002
 30
0.0
 11
131.1839999999999975
 21
133.2789999999999964
 31
0.0
  0
LINE
  5
1BA
100
AcDbEntity
100
AcDbLine
  8
0
 62
256
370
-1
  6
ByLayer
 10
131.1839999999999975
 20
133.2789999999999964
 30
0.0
 11
131.5649999999999977
 21
133.1279999999999859
 31
0.0
  0
LINE
  5
1BB
100
AcDbEntity
100
AcDbLine
  8
0
 62
256
370
-1
  6
ByLayer
 10
131.5649999999999977
 20
133.1279999999999859
 30
0.0
 11
131.9240000000000066
 21
132.9310000000000116
 31
0.0
  0
LINE
  5
1BC
100
AcDbEntity
100
AcDbLine
  8
0
 62
256
370
-1
  6
ByLayer
 10
131.9240000000000066
 20
132.9310000000000116
 30
0.0
 11
132.2549999999999955
 21
132.6899999999999977
 31
0.0
  0
LINE
  5
1BD
100
AcDbEntity
100
AcDbLine
  8
0
 62
256
370
-1
  6
ByLayer
 10
132.2549999999999955
 20
132.6899999999999977
 30
0.0
 11
132.554000000000002
 21
132.4089999999999918
 31
0.0
  0
LINE
  5
1BE
100
AcDbEntity
100
AcDbLine
  8
0
 62
256
370
-1
  6
ByLayer
 10
132.554000000000002
 20
132.4089999999999918
 30
0.0
 11
132.8160000000000025
 21
132.0929999999999893
 31
0.0
  0
LINE
  5
1BF
100
AcDbEntity
100
AcDbLine
  8
0
 62
256
370
-1
  6
ByLayer
 10
132.8160000000000025
 20
132.0929999999999893
 30
0.0
 11
133.0349999999999966
 21
131.7470000000000141
 31
0.0
  0
LINE
  5
1C0
100
AcDbEntity
100
AcDbLine
  8
0
 62
256
370
-1
  6
ByLayer
 10
133.0349999999999966
 20
131.7470000000000141
 30
0.0
 11
133.210000000000008
 21
131.3770000000000095
 31
0.0
  0
LINE
  5
1C1
100
AcDbEntity
100
AcDbLine
  8
0
 62
256
370
-1
  6
ByLayer
 10
133.210000000000008
 20
131.3770000000000095
 30
0.0
 11
133.3360000000000127
 21
130.9869999999999948
 31
0.0
  0
LINE
  5
1C2
100
AcDbEntity
100
AcDbLine
  8
0
 62
256
370
-1
  6
ByLayer
 10
133.3360000000000127
 20
130.9869999999999948
 30
0.0
 11
133.4130000000000109
 21
130.5840000000000032
 31
0.0
  0
LINE
  5
1C3
100
AcDbEntity
100
AcDbLine
  8
0
 62
256
370
-1
  6
ByLayer
 10
133.4130000000000109
 20
130.5840000000000032
 30
0.0
 11
133.438999999999993
 21
130.1750000000000114
 31
0.0
  0
LINE
  5
1C4
100
AcDbEntity
100
AcDbLine
  8
0
 62
256
370
-1
  6
ByLayer
 10
133.438999999999993
 20
130.1750000000000114
 30
0.0
 11
133.4130000000000109
 21
129.7659999999999911
 31
0.0
  0
LINE
  5
1C5
100
AcDbEntity
100
AcDbLine
  8
0
 62
256
370
-1
  6
ByLayer
 10
133.4130000000000109
 20
129.7659999999999911
 30
0.0
 11
133.3360000000000127
 21
129.3629999999999995
 31
0.0
  0
LINE
  5
1C6
100
AcDbEntity
100
AcDbLine
  8
0
 62
256
370
-1
  6
ByLayer
 10
133.3360000000000127
 20
129.3629999999999995
 30
0.0
 11
133.210000000000008
 21
128.9730000000000132
 31
0.0
  0
LINE
  5
1C7
100
AcDbEntity
100
AcDbLine
  8
0
 62
256
370
-1
  6
ByLayer
 10
133.210000000000008
 20
128.9730000000000132
 30
0.0
 11
133.0349999999999966
 21
128.6030000000000086
 31
0.0
  0
LINE
  5
1C8
100
AcDbEntity
100
AcDbLine
  8
0
 62
256
370
-1
  6
ByLayer
 10
133.0349999999999966
 20
128.6030000000000086
 30
0.0
 11
132.8160000000000025
 21
128.257000000000005
 31
0.0
  0
LINE
  5
1C9
100
AcDbEntity
100
AcDbLine
  8
0
 62
256
370
-1
  6
ByLayer
 10
132.8160000000000025
 20
128.257000000000005
 30
0.0
 11
132.554000000000002
 21
127.9410000000000025
 31
0.0
  0
LINE
  5
1CA
100
AcDbEntity
100
AcDbLine
  8
0
 62
256
370
-1
  6
ByLayer
 10
132.554000000000002
 20
127.9410000000000025
 30
0.0
 11
132.2549999999999955
 21
127.6599999999999966
 31
0.0
  0
LINE
  5
1CB
100
AcDbEntity
100
AcDbLine
  8
0
 62
256
370
-1
  6
ByLayer
 10
132.2549999999999955
 20
127.6599999999999966
 30
0.0
 11
131.9240000000000066
 21
127.4189999999999969
 31
0.0
  0
LINE
  5
1CC
100
AcDbEntity
100
AcDbLine
  8
0
 62
256
370
-1
  6
ByLayer
 10
131.9240000000000066
 20
127.4189999999999969
 30
0.0
 11
131.5649999999999977
 21
127.2219999999999942
 31
0.0
  0
LINE
  5
1CD
100
AcDbEntity
100
AcDbLine
  8
0
 62
256
370
-1
  6
ByLayer
 10
131.5649999999999977
 20
127.2219999999999942
 30
0.0
 11
131.1839999999999975
 21
127.070999999999998
 31
0.0
  0
LINE
  5
1CE
100
AcDbEntity
100
AcDbLine
  8
0
 62
256
370
-1
  6
ByLayer
 10
131.1839999999999975
 20
127.070999999999998
 30
0.0
 11
130.7870000000000061
 21
126.9689999999999941
 31
0.0
  0
LINE
  5
1CF
100
AcDbEntity
100
AcDbLine
  8
0
 62
256
370
-1
  6
ByLayer
 10
130.7870000000000061
 20
126.9689999999999941
 30
0.0
 11
130.3799999999999955
 21
126.9180000000000064
 31
0.0
  0
LINE
  5
1D0
100
AcDbEntity
100
AcDbLine
  8
0
 62
256
370
-1
  6
ByLayer
 10
130.3799999999999955
 20
126.9180000000000064
 30
0.0
 11
129.9699999999999989
 21
126.9180000000000064
 31
0.0
  0
LINE
  5
1D1
100
AcDbEntity
100
AcDbLine
  8
0
 62
256
370
-1
  6
ByLayer
 10
129.9699999999999989
 20
126.9180000000000064
 30
0.0
 11
129.5629999999999882
 21
126.9689999999999941
 31
0.0
  0
LINE
  5
1D2
100
AcDbEntity
100
AcDbLine
  8
0
 62
256
370
-1
  6
ByLayer
 10
129.5629999999999882
 20
126.9689999999999941
 30
0.0
 11
129.1659999999999968
 21
127.070999999999998
 31
0.0
  0
LINE
  5
1D3
100
AcDbEntity
100
AcDbLine
  8
0
 62
256
370
-1
  6
ByLayer
 10
129.1659999999999968
 20
127.070999999999998
 30
0.0
 11
128.7849999999999966
 21
127.2219999999999942
 31
0.0
  0
LINE
  5
1D4
100
AcDbEntity
100
AcDbLine
  8
0
 62
256
370
-1
  6
ByLayer
 10
128.7849999999999966
 20
127.2219999999999942
 30
0.0
 11
128.4259999999999877
 21
127.4189999999999969
 31
0.0
  0
LINE
  5
1D5
100
AcDbEntity
100
AcDbLine
  8
0
 62
256
370
-1
  6
ByLayer
 10
128.4259999999999877
 20
127.4189999999999969
 30
0.0
 11
128.0949999999999989
 21
127.6599999999999966
 31
0.0
  0
LINE
  5
1D6
100
AcDbEntity
100
AcDbLine
  8
0
 62
256
370
-1
  6
ByLayer
 10
128.0949999999999989
 20
127.6599999999999966
 30
0.0
 11
127.7960000000000065
 21
127.9410000000000025
 31
0.0
  0
LINE
  5
1D7
100
AcDbEntity
100
AcDbLine
  8
0
 62
256
370
-1
  6
ByLayer
 10
127.7960000000000065
 20
127.9410000000000025
 30
0.0
 11
127.534000000000006
 21
128.257000000000005
 31
0.0
  0
LINE
  5
1D8
100
AcDbEntity
100
AcDbLine
  8
0
 62
256
370
-1
  6
ByLayer
 10
127.534000000000006
 20
128.257000000000005
 30
0.0
 11
127.3149999999999977
 21
128.6030000000000086
 31
0.0
  0
LINE
  5
1D9
100
AcDbEntity
100
AcDbLine
  8
0
 62
256
370
-1
  6
ByLayer
 10
127.3149999999999977
 20
128.6030000000000086
 30
0.0
 11
127.1400000000000006
 21
128.9730000000000132
 31
0.0
  0
LINE
  5
1DA
100
AcDbEntity
100
AcDbLine
  8
0
 62
256
370
-1
  6
ByLayer
 10
127.1400000000000006
 20
128.9730000000000132
 30
0.0
 11
127.0139999999999958
 21
129.3629999999999995
 31
0.0
  0
LINE
  5
1DB
100
AcDbEntity
100
AcDbLine
  8
0
 62
256
370
-1
  6
ByLayer
 10
127.0139999999999958
 20
129.3629999999999995
 30
0.0
 11
126.9369999999999976
 21
129.7659999999999911
 31
0.0
  0
LINE
  5
1DC
100
AcDbEntity
100
AcDbLine
  8
0
 62
256
370
-1
  6
ByLayer
 10
126.9369999999999976
 20
129.7659999999999911
 30
0.0
 11
126.9110000000000014
 21
130.1750000000000114
 31
0.0
  0
ENDSEC
  0
SECTION
  2
OBJECTS
  0
DICTIONARY
  5
C
100
AcDbDictionary
280
0
281
1
  3
ACAD_GROUP
350
D
  3
ACAD_LAYOUT
350
1A
  3
ACAD_MLINESTYLE
350
17
  3
ACAD_PLOTSETTINGS
350
19
  3
ACAD_PLOTSTYLENAME
350
E
  3
AcDbVariableDictionary
350
1DD
  0
DICTIONARY
  5
D
100
AcDbDictionary
280
0
281
1
  0
ACDBDICTIONARYWDFLT
  5
E
100
AcDbDictionary
281
1
  3
Normal
350
F
100
AcDbDictionaryWithDefault
340
F
  0
ACDBPLACEHOLDER
  5
F
  0
DICTIONARY
  5
17
100
AcDbDictionary
280
0
281
1
  3
Standard
350
18
  0
MLINESTYLE
  5
18
100
AcDbMlineStyle
  2
STANDARD
 70
0
  3

 62
256
 51
90.0
 52
90.0
 71
2
 49
0.5
 62
256
  6
BYLAYER
 49
-0.5
 62
256
  6
BYLAYER
  0
DICTIONARY
  5
19
100
AcDbDictionary
280
0
281
1
  0
DICTIONARY
  5
1A
100
AcDbDictionary
281
1
  3
Layout1
350
1E
  3
Layout2
350
26
  3
Model
350
22
  0
LAYOUT
  5
1E
100
AcDbPlotSettings
  1

  2
C:\Program Files\AutoCAD 2002\plotters\DWF ePlot (optimized for plotting).pc3
  4

  6

 40
0.0
 41
0.0
 42
0.0
 43
0.0
 44
0.0
 45
0.0
 46
0.0
 47
0.0
 48
0.0
 49
0.0
140
0.0
141
0.0
142
1.0
143
1.0
 70
688
 72
0
 73
0
 74
5
  7

 75
16
147
1.0
148
0.0
149
0.0
100
AcDbLayout
  1
Layout1
 70
1
 71
1
 10
0.0
 20
0.0
 11
420.0
 21
297.0
 12
0.0
 22
0.0
 32
0.0
 14
100000000000000000000.0
 24
100000000000000000000.0
 34
100000000000000000000.0
 15
-100000000000000000000.0
 25
-100000000000000000000.0
 35
-100000000000000000000.0
146
0.0
 13
0.0
 23
0.0
 33
0.0
 16
1.0
 26
0.0
 36
0.0
 17
0.0
 27
1.0
 37
0.0
 76
0
330
1B
  0
LAYOUT
  5
22
100
AcDbPlotSettings
  1

  2
C:\Program Files\AutoCAD 2002\plotters\DWF ePlot (optimized for plotting).pc3
  4

  6

 40
0.0
 41
0.0
 42
0.0
 43
0.0
 44
0.0
 45
0.0
 46
0.0
 47
0.0
 48
0.0
 49
0.0
140
0.0
141
0.0
142
1.0
143
1.0
 70
1712
 72
0
 73
0
 74
0
  7

 75
0
147
1.0
148
0.0
149
0.0
100
AcDbLayout
  1
Model
 70
1
 71
0
 10
0.0
 20
0.0
 11
12.0
 21
9.0
 12
0.0
 22
0.0
 32
0.0
 14
0.0
 24
0.0
 34
0.0
 15
0.0
 25
0.0
 35
0.0
146
0.0
 13
0.0
 23
0.0
 33
0.0
 16
1.0
 26
0.0
 36
0.0
 17
0.0
 27
1.0
 37
0.0
 76
0
330
1F
  0
LAYOUT
  5
26
100
AcDbPlotSettings
  1

  2
C:\Program Files\AutoCAD 2002\plotters\DWF ePlot (optimized for plotting).pc3
  4

  6

 40
0.0
 41
0.0
 42
0.0
 43
0.0
 44
0.0
 45
0.0
 46
0.0
 47
0.0
 48
0.0
 49
0.0
140
0.0
141
0.0
142
1.0
143
1.0
 70
688
 72
0
 73
0
 74
5
  7

 75
16
147
1.0
148
0.0
149
0.0
100
AcDbLayout
  1
Layout2
 70
1
 71
2
 10
0.0
 20
0.0
 11
12.0
 21
9.0
 12
0.0
 22
0.0
 32
0.0
 14
0.0
 24
0.0
 34
0.0
 15
0.0
 25
0.0
 35
0.0
146
0.0
 13
0.0
 23
0.0
 33
0.0
 16
1.0
 26
0.0
 36
0.0
 17
0.0
 27
1.0
 37
0.0
 76
0
330
23
  0
DICTIONARY
  5
1DD
100
AcDbDictionary
281
1
  3
DIMASSOC
350
1DF
  3
HIDETEXT
350
1DE
  0
DICTIONARYVAR
  5
1DE
100
DictionaryVariables
280
0
  1
2
  0
DICTIONARYVAR
  5
1DF
100
DictionaryVariables
280
0
  1
1
  0
ENDSEC
  0
EOF
