999
dxflib 2.0.4.8
  0
SECTION
  2
HEADER
  9
$ACADVER
  1
AC1015
  9
$HANDSEED
  5
FFFF
  9
$DIMASZ
 40
2.5
  9
$DIMGAP
 40
0.625
  9
$DIMEXO
 40
0.625
  9
$INSUNITS
 70
4
  9
$DIMTXT
 40
2.5
  9
$DIMSTYLE
  2
Standard
  9
$PLIMMAX
 10
210.0
 20
297.0
  9
$PLIMMIN
 10
0.0
 20
0.0
  9
$DIMEXE
 40
1.25
  0
ENDSEC
  0
SECTION
  2
TABLES
  0
TABLE
  2
VPORT
  5
8
100
AcDbSymbolTable
 70
1
  0
VPORT
  5
30
100
AcDbSymbolTableRecord
100
AcDbViewportTableRecord
  2
*Active
 70
0
 10
0.0
 20
0.0
 11
1.0
 21
1.0
 12
286.3055555555554861
 22
148.5
 13
0.0
 23
0.0
 14
10.0
 24
10.0
 15
10.0
 25
10.0
 16
0.0
 26
0.0
 36
1.0
 17
0.0
 27
0.0
 37
0.0
 40
297.0
 41
1.92798353909465
 42
50.0
 43
0.0
 44
0.0
 50
0.0
 51
0.0
 71
0
 72
100
 73
1
 74
3
 75
1
 76
1
 77
0
 78
0
281
0
 65
1
110
0.0
120
0.0
130
0.0
111
1.0
121
0.0
131
0.0
112
0.0
122
1.0
132
0.0
 79
0
146
0.0
  0
ENDTAB
  0
TABLE
  2
LTYPE
  5
5
100
AcDbSymbolTable
 70
21
  0
LTYPE
  5
14
100
AcDbSymbolTableRecord
100
AcDbLinetypeTableRecord
  2
ByBlock
 70
0
  3

 72
65
 73
0
 40
0.0
  0
LTYPE
  5
15
100
AcDbSymbolTableRecord
100
AcDbLinetypeTableRecord
  2
ByLayer
 70
0
  3

 72
65
 73
0
 40
0.0
  0
LTYPE
  5
16
100
AcDbSymbolTableRecord
100
AcDbLinetypeTableRecord
  2
CONTINUOUS
 70
0
  3
Solid line
 72
65
 73
0
 40
0.0
  0
LTYPE
  5
31
100
AcDbSymbolTableRecord
100
AcDbLinetypeTableRecord
  2
DOT
 70
0
  3
Dot . . . . . . . . . . . . . . . . . . . . . .
 72
65
 73
2
 40
6.3499999999999996
 49
0.0
 74
0
 49
-6.3499999999999996
 74
0
  0
LTYPE
  5
32
100
AcDbSymbolTableRecord
100
AcDbLinetypeTableRecord
  2
DOT2
 70
0
  3
Dot (.5x) .....................................
 72
65
 73
2
 40
3.1749999999999998
 49
0.0
 74
0
 49
-3.1749999999999998
 74
0
  0
LTYPE
  5
33
100
AcDbSymbolTableRecord
100
AcDbLinetypeTableRecord
  2
DOTX2
 70
0
  3
Dot (2x) .  .  .  .  .  .  .  .  .  .  .  .  .
 72
65
 73
2
 40
12.6999999999999993
 49
0.0
 74
0
 49
-12.6999999999999993
 74
0
  0
LTYPE
  5
34
100
AcDbSymbolTableRecord
100
AcDbLinetypeTableRecord
  2
DASHED
 70
0
  3
Dashed __ __ __ __ __ __ __ __ __ __ __ __ __ _
 72
65
 73
2
 40
19.0500000000000007
 49
12.6999999999999993
 74
0
 49
-6.3499999999999996
 74
0
  0
LTYPE
  5
35
100
AcDbSymbolTableRecord
100
AcDbLinetypeTableRecord
  2
DASHED2
 70
0
  3
Dashed (.5x) _ _ _ _ _ _ _ _ _ _ _ _ _ _ _ _ _
 72
65
 73
2
 40
9.5250000000000004
 49
6.3499999999999996
 74
0
 49
-3.1749999999999998
 74
0
  0
LTYPE
  5
36
100
AcDbSymbolTableRecord
100
AcDbLinetypeTableRecord
  2
DASHEDX2
 70
0
  3
Dashed (2x) ____  ____  ____  ____  ____  ___
 72
65
 73
2
 40
38.1000000000000014
 49
25.3999999999999986
 74
0
 49
-12.6999999999999993
 74
0
  0
LTYPE
  5
37
100
AcDbSymbolTableRecord
100
AcDbLinetypeTableRecord
  2
DASHDOT
 70
0
  3
Dash dot __ . __ . __ . __ . __ . __ . __ . __
 72
65
 73
4
 40
25.3999999999999986
 49
12.6999999999999993
 74
0
 49
-6.3499999999999996
 74
0
 49
0.0
 74
0
 49
-6.3499999999999996
 74
0
  0
LTYPE
  5
38
100
AcDbSymbolTableRecord
100
AcDbLinetypeTableRecord
  2
DASHDOT2
 70
0
  3
Dash dot (.5x) _._._._._._._._._._._._._._._.
 72
65
 73
4
 40
12.6999999999999993
 49
6.3499999999999996
 74
0
 49
-3.1749999999999998
 74
0
 49
0.0
 74
0
 49
-3.1749999999999998
 74
0
  0
LTYPE
  5
39
100
AcDbSymbolTableRecord
100
AcDbLinetypeTableRecord
  2
DASHDOTX2
 70
0
  3
Dash dot (2x) ____  .  ____  .  ____  .  ___
 72
65
 73
4
 40
50.7999999999999972
 49
25.3999999999999986
 74
0
 49
-12.6999999999999993
 74
0
 49
0.0
 74
0
 49
-12.6999999999999993
 74
0
  0
LTYPE
  5
3A
100
AcDbSymbolTableRecord
100
AcDbLinetypeTableRecord
  2
DIVIDE
 70
0
  3
Divide ____ . . ____ . . ____ . . ____ . . ____
 72
65
 73
6
 40
31.75
 49
12.6999999999999993
 74
0
 49
-6.3499999999999996
 74
0
 49
0.0
 74
0
 49
-6.3499999999999996
 74
0
 49
0.0
 74
0
 49
-6.3499999999999996
 74
0
  0
LTYPE
  5
3B
100
AcDbSymbolTableRecord
100
AcDbLinetypeTableRecord
  2
DIVIDE2
 70
0
  3
Divide (.5x) __..__..__..__..__..__..__..__.._
 72
65
 73
6
 40
15.875
 49
6.3499999999999996
 74
0
 49
-3.1749999999999998
 74
0
 49
0.0
 74
0
 49
-3.1749999999999998
 74
0
 49
0.0
 74
0
 49
-3.1749999999999998
 74
0
  0
LTYPE
  5
3C
100
AcDbSymbolTableRecord
100
AcDbLinetypeTableRecord
  2
DIVIDEX2
 70
0
  3
Divide (2x) ________  .  .  ________  .  .  _
 72
65
 73
6
 40
63.5
 49
25.3999999999999986
 74
0
 49
-12.6999999999999993
 74
0
 49
0.0
 74
0
 49
-12.6999999999999993
 74
0
 49
0.0
 74
0
 49
-12.6999999999999993
 74
0
  0
LTYPE
  5
3D
100
AcDbSymbolTableRecord
100
AcDbLinetypeTableRecord
  2
CENTER
 70
0
  3
Center ____ _ ____ _ ____ _ ____ _ ____ _ ____
 72
65
 73
4
 40
50.7999999999999972
 49
31.75
 74
0
 49
-6.3499999999999996
 74
0
 49
6.3499999999999996
 74
0
 49
-6.3499999999999996
 74
0
  0
LTYPE
  5
3E
100
AcDbSymbolTableRecord
100
AcDbLinetypeTableRecord
  2
CENTER2
 70
0
  3
Center (.5x) ___ _ ___ _ ___ _ ___ _ ___ _ ___
 72
65
 73
4
 40
28.5749999999999993
 49
19.0500000000000007
 74
0
 49
-3.1749999999999998
 74
0
 49
3.1749999999999998
 74
0
 49
-3.1749999999999998
 74
0
  0
LTYPE
  5
3F
100
AcDbSymbolTableRecord
100
AcDbLinetypeTableRecord
  2
CENTERX2
 70
0
  3
Center (2x) ________  __  ________  __  _____
 72
65
 73
4
 40
101.5999999999999943
 49
63.5
 74
0
 49
-12.6999999999999993
 74
0
 49
12.6999999999999993
 74
0
 49
-12.6999999999999993
 74
0
  0
LTYPE
  5
40
100
AcDbSymbolTableRecord
100
AcDbLinetypeTableRecord
  2
BORDER
 70
0
  3
Border __ __ . __ __ . __ __ . __ __ . __ __ .
 72
65
 73
6
 40
44.4500000000000028
 49
12.6999999999999993
 74
0
 49
-6.3499999999999996
 74
0
 49
12.6999999999999993
 74
0
 49
-6.3499999999999996
 74
0
 49
0.0
 74
0
 49
-6.3499999999999996
 74
0
  0
LTYPE
  5
41
100
AcDbSymbolTableRecord
100
AcDbLinetypeTableRecord
  2
BORDER2
 70
0
  3
Border (.5x) __.__.__.__.__.__.__.__.__.__.__.
 72
65
 73
6
 40
22.2250000000000014
 49
6.3499999999999996
 74
0
 49
-3.1749999999999998
 74
0
 49
6.3499999999999996
 74
0
 49
-3.1749999999999998
 74
0
 49
0.0
 74
0
 49
-3.1749999999999998
 74
0
  0
LTYPE
  5
42
100
AcDbSymbolTableRecord
100
AcDbLinetypeTableRecord
  2
BORDERX2
 70
0
  3
Border (2x) ____  ____  .  ____  ____  .  ___
 72
65
 73
6
 40
88.9000000000000057
 49
25.3999999999999986
 74
0
 49
-12.6999999999999993
 74
0
 49
25.3999999999999986
 74
0
 49
-12.6999999999999993
 74
0
 49
0.0
 74
0
 49
-12.6999999999999993
 74
0
  0
ENDTAB
  0
TABLE
  2
LAYER
  5
2
100
AcDbSymbolTable
 70
1
  0
LAYER
  5
10
100
AcDbSymbolTableRecord
100
AcDbLayerTableRecord
  2
0
 70
0
 62
7
  6
CONTINUOUS
370
0
390
F
  0
ENDTAB
  0
TABLE
  2
STYLE
  5
3
100
AcDbSymbolTable
 70
1
  0
STYLE
  5
11
100
AcDbSymbolTableRecord
100
AcDbTextStyleTableRecord
  2
Standard
 70
0
 40
0.0
 41
0.75
 50
0.0
 71
0
 42
2.5
  3
txt
  4

  0
ENDTAB
  0
TABLE
  2
VIEW
  5
6
100
AcDbSymbolTable
 70
0
  0
ENDTAB
  0
TABLE
  2
UCS
  5
7
100
AcDbSymbolTable
 70
0
  0
ENDTAB
  0
TABLE
  2
APPID
  5
9
100
AcDbSymbolTable
 70
1
  0
APPID
  5
12
100
AcDbSymbolTableRecord
100
AcDbRegAppTableRecord
  2
ACAD
 70
0
  0
ENDTAB
  0
TABLE
  2
DIMSTYLE
  5
A
100
AcDbSymbolTable
 70
1
100
AcDbDimStyleTable
 71
0
  0
DIMSTYLE
105
27
100
AcDbSymbolTableRecord
100
AcDbDimStyleTableRecord
  2
Standard
 41
2.5
 42
0.625
 43
3.75
 44
1.25
 70
0
 73
0
 74
0
 77
1
 78
8
140
2.5
141
2.5
143
0.03937007874016
147
0.625
171
3
172
1
271
2
272
2
274
3
278
44
283
0
284
8
340
11
  0
ENDTAB
  0
TABLE
  2
BLOCK_RECORD
  5
1
100
AcDbSymbolTable
 70
1
  0
BLOCK_RECORD
  5
1F
100
AcDbSymbolTableRecord
100
AcDbBlockTableRecord
  2
*Model_Space
340
22
  0
BLOCK_RECORD
  5
1B
100
AcDbSymbolTableRecord
100
AcDbBlockTableRecord
  2
*Paper_Space
340
1E
  0
BLOCK_RECORD
  5
23
100
AcDbSymbolTableRecord
100
AcDbBlockTableRecord
  2
*Paper_Space0
340
26
  0
ENDTAB
  0
ENDSEC
  0
SECTION
  2
BLOCKS
  0
BLOCK
  5
20
100
AcDbEntity
  8
0
100
AcDbBlockBegin
  2
*Model_Space
 70
0
 10
0.0
 20
0.0
 30
0.0
  3
*Model_Space
  1

  0
ENDBLK
  5
21
100
AcDbEntity
  8
0
100
AcDbBlockEnd
  0
BLOCK
  5
1C
100
AcDbEntity
 67
1
  8
0
100
AcDbBlockBegin
  2
*Paper_Space
 70
0
 10
0.0
 20
0.0
 30
0.0
  3
*Paper_Space
  1

  0
ENDBLK
  5
1D
100
AcDbEntity
 67
1
  8
0
100
AcDbBlockEnd
  0
BLOCK
  5
24
100
AcDbEntity
  8
0
100
AcDbBlockBegin
  2
*Paper_Space0
 70
0
 10
0.0
 20
0.0
 30
0.0
  3
*Paper_Space0
  1

  0
ENDBLK
  5
25
100
AcDbEntity
  8
0
100
AcDbBlockEnd
  0
ENDSEC
  0
SECTION
  2
ENTITIES
  0
LINE
  5
43
100
AcDbEntity
100
AcDbLine
  8
0
 62
256
370
-1
  6
ByLayer
 10
-114.2999999999999972
 20
-6.3499999999999996
 30
0.0
 11
-114.2999999999999972
 21
6.3499999999999996
 31
0.0
  0
LINE
  5
44
100
AcDbEntity
100
AcDbLine
  8
0
 62
256
370
-1
  6
ByLayer
 10
-114.2999999999999972
 20
6.3499999999999996
 30
0.0
 11
-114.25
 21
7.1459999999999999
 31
0.0
  0
LINE
  5
45
100
AcDbEntity
100
AcDbLine
  8
0
 62
256
370
-1
  6
ByLayer
 10
-114.25
 20
7.1459999999999999
 30
0.0
 11
-114.1009999999999991
 21
7.9290000000000003
 31
0.0
  0
LINE
  5
46
100
AcDbEntity
100
AcDbLine
  8
0
 62
256
370
-1
  6
ByLayer
 10
-114.1009999999999991
 20
7.9290000000000003
 30
0.0
 11
-113.8539999999999992
 21
8.6880000000000006
 31
0.0
  0
LINE
  5
47
100
AcDbEntity
100
AcDbLine
  8
0
 62
256
370
-1
  6
ByLayer
 10
-113.8539999999999992
 20
8.6880000000000006
 30
0.0
 11
-113.5150000000000006
 21
9.4090000000000007
 31
0.0
  0
LINE
  5
48
100
AcDbEntity
100
AcDbLine
  8
0
 62
256
370
-1
  6
ByLayer
 10
-113.5150000000000006
 20
9.4090000000000007
 30
0.0
 11
-113.0870000000000033
 21
10.0820000000000007
 31
0.0
  0
LINE
  5
49
100
AcDbEntity
100
AcDbLine
  8
0
 62
256
370
-1
  6
ByLayer
 10
-113.0870000000000033
 20
10.0820000000000007
 30
0.0
 11
-112.5789999999999935
 21
10.6969999999999992
 31
0.0
  0
LINE
  5
4A
100
AcDbEntity
100
AcDbLine
  8
0
 62
256
370
-1
  6
ByLayer
 10
-112.5789999999999935
 20
10.6969999999999992
 30
0.0
 11
-111.9980000000000047
 21
11.2430000000000003
 31
0.0
  0
LINE
  5
4B
100
AcDbEntity
100
AcDbLine
  8
0
 62
256
370
-1
  6
ByLayer
 10
-111.9980000000000047
 20
11.2430000000000003
 30
0.0
 11
-111.3520000000000039
 21
11.7110000000000003
 31
0.0
  0
LINE
  5
4C
100
AcDbEntity
100
AcDbLine
  8
0
 62
256
370
-1
  6
ByLayer
 10
-111.3520000000000039
 20
11.7110000000000003
 30
0.0
 11
-110.6539999999999964
 21
12.0960000000000001
 31
0.0
  0
LINE
  5
4D
100
AcDbEntity
100
AcDbLine
  8
0
 62
256
370
-1
  6
ByLayer
 10
-110.6539999999999964
 20
12.0960000000000001
 30
0.0
 11
-109.9120000000000061
 21
12.3889999999999993
 31
0.0
  0
LINE
  5
4E
100
AcDbEntity
100
AcDbLine
  8
0
 62
256
370
-1
  6
ByLayer
 10
-109.9120000000000061
 20
12.3889999999999993
 30
0.0
 11
-109.1400000000000006
 21
12.5879999999999992
 31
0.0
  0
LINE
  5
4F
100
AcDbEntity
100
AcDbLine
  8
0
 62
256
370
-1
  6
ByLayer
 10
-109.1400000000000006
 20
12.5879999999999992
 30
0.0
 11
-108.3490000000000038
 21
12.6869999999999994
 31
0.0
  0
LINE
  5
50
100
AcDbEntity
100
AcDbLine
  8
0
 62
256
370
-1
  6
ByLayer
 10
-108.3490000000000038
 20
12.6869999999999994
 30
0.0
 11
-107.9500000000000028
 21
12.6869999999999994
 31
0.0
  0
LINE
  5
51
100
AcDbEntity
100
AcDbLine
  8
0
 62
256
370
-1
  6
ByLayer
 10
-107.9500000000000028
 20
12.6869999999999994
 30
0.0
 11
-107.9500000000000028
 21
12.6999999999999993
 31
0.0
  0
LINE
  5
52
100
AcDbEntity
100
AcDbLine
  8
0
 62
256
370
-1
  6
ByLayer
 10
-107.9500000000000028
 20
12.6999999999999993
 30
0.0
 11
107.9500000000000028
 21
12.6999999999999993
 31
0.0
  0
LINE
  5
53
100
AcDbEntity
100
AcDbLine
  8
0
 62
256
370
-1
  6
ByLayer
 10
107.9500000000000028
 20
12.6999999999999993
 30
0.0
 11
107.9500000000000028
 21
12.6869999999999994
 31
0.0
  0
LINE
  5
54
100
AcDbEntity
100
AcDbLine
  8
0
 62
256
370
-1
  6
ByLayer
 10
107.9500000000000028
 20
12.6869999999999994
 30
0.0
 11
108.3490000000000038
 21
12.6869999999999994
 31
0.0
  0
LINE
  5
55
100
AcDbEntity
100
AcDbLine
  8
0
 62
256
370
-1
  6
ByLayer
 10
108.3490000000000038
 20
12.6869999999999994
 30
0.0
 11
109.1400000000000006
 21
12.5879999999999992
 31
0.0
  0
LINE
  5
56
100
AcDbEntity
100
AcDbLine
  8
0
 62
256
370
-1
  6
ByLayer
 10
109.1400000000000006
 20
12.5879999999999992
 30
0.0
 11
109.9120000000000061
 21
12.3889999999999993
 31
0.0
  0
LINE
  5
57
100
AcDbEntity
100
AcDbLine
  8
0
 62
256
370
-1
  6
ByLayer
 10
109.9120000000000061
 20
12.3889999999999993
 30
0.0
 11
110.6539999999999964
 21
12.0960000000000001
 31
0.0
  0
LINE
  5
58
100
AcDbEntity
100
AcDbLine
  8
0
 62
256
370
-1
  6
ByLayer
 10
110.6539999999999964
 20
12.0960000000000001
 30
0.0
 11
111.3520000000000039
 21
11.7110000000000003
 31
0.0
  0
LINE
  5
59
100
AcDbEntity
100
AcDbLine
  8
0
 62
256
370
-1
  6
ByLayer
 10
111.3520000000000039
 20
11.7110000000000003
 30
0.0
 11
111.9980000000000047
 21
11.2430000000000003
 31
0.0
  0
LINE
  5
5A
100
AcDbEntity
100
AcDbLine
  8
0
 62
256
370
-1
  6
ByLayer
 10
111.9980000000000047
 20
11.2430000000000003
 30
0.0
 11
112.5789999999999935
 21
10.6969999999999992
 31
0.0
  0
LINE
  5
5B
100
AcDbEntity
100
AcDbLine
  8
0
 62
256
370
-1
  6
ByLayer
 10
112.5789999999999935
 20
10.6969999999999992
 30
0.0
 11
113.0870000000000033
 21
10.0820000000000007
 31
0.0
  0
LINE
  5
5C
100
AcDbEntity
100
AcDbLine
  8
0
 62
256
370
-1
  6
ByLayer
 10
113.0870000000000033
 20
10.0820000000000007
 30
0.0
 11
113.5150000000000006
 21
9.4090000000000007
 31
0.0
  0
LINE
  5
5D
100
AcDbEntity
100
AcDbLine
  8
0
 62
256
370
-1
  6
ByLayer
 10
113.5150000000000006
 20
9.4090000000000007
 30
0.0
 11
113.8539999999999992
 21
8.6880000000000006
 31
0.0
  0
LINE
  5
5E
100
AcDbEntity
100
AcDbLine
  8
0
 62
256
370
-1
  6
ByLayer
 10
113.8539999999999992
 20
8.6880000000000006
 30
0.0
 11
114.1009999999999991
 21
7.9290000000000003
 31
0.0
  0
LINE
  5
5F
100
AcDbEntity
100
AcDbLine
  8
0
 62
256
370
-1
  6
ByLayer
 10
114.1009999999999991
 20
7.9290000000000003
 30
0.0
 11
114.25
 21
7.1459999999999999
 31
0.0
  0
LINE
  5
60
100
AcDbEntity
100
AcDbLine
  8
0
 62
256
370
-1
  6
ByLayer
 10
114.25
 20
7.1459999999999999
 30
0.0
 11
114.2999999999999972
 21
6.3499999999999996
 31
0.0
  0
LINE
  5
61
100
AcDbEntity
100
AcDbLine
  8
0
 62
256
370
-1
  6
ByLayer
 10
114.2999999999999972
 20
6.3499999999999996
 30
0.0
 11
114.2999999999999972
 21
-6.3499999999999996
 31
0.0
  0
LINE
  5
62
100
AcDbEntity
100
AcDbLine
  8
0
 62
256
370
-1
  6
ByLayer
 10
114.2999999999999972
 20
-6.3499999999999996
 30
0.0
 11
114.25
 21
-7.1459999999999999
 31
0.0
  0
LINE
  5
63
100
AcDbEntity
100
AcDbLine
  8
0
 62
256
370
-1
  6
ByLayer
 10
114.25
 20
-7.1459999999999999
 30
0.0
 11
114.1009999999999991
 21
-7.9290000000000003
 31
0.0
  0
LINE
  5
64
100
AcDbEntity
100
AcDbLine
  8
0
 62
256
370
-1
  6
ByLayer
 10
114.1009999999999991
 20
-7.9290000000000003
 30
0.0
 11
113.8539999999999992
 21
-8.6880000000000006
 31
0.0
  0
LINE
  5
65
100
AcDbEntity
100
AcDbLine
  8
0
 62
256
370
-1
  6
ByLayer
 10
113.8539999999999992
 20
-8.6880000000000006
 30
0.0
 11
113.5150000000000006
 21
-9.4090000000000007
 31
0.0
  0
LINE
  5
66
100
AcDbEntity
100
AcDbLine
  8
0
 62
256
370
-1
  6
ByLayer
 10
113.5150000000000006
 20
-9.4090000000000007
 30
0.0
 11
113.0870000000000033
 21
-10.0820000000000007
 31
0.0
  0
LINE
  5
67
100
AcDbEntity
100
AcDbLine
  8
0
 62
256
370
-1
  6
ByLayer
 10
113.0870000000000033
 20
-10.0820000000000007
 30
0.0
 11
112.5789999999999935
 21
-10.6969999999999992
 31
0.0
  0
LINE
  5
68
100
AcDbEntity
100
AcDbLine
  8
0
 62
256
370
-1
  6
ByLayer
 10
112.5789999999999935
 20
-10.6969999999999992
 30
0.0
 11
111.9980000000000047
 21
-11.2430000000000003
 31
0.0
  0
LINE
  5
69
100
AcDbEntity
100
AcDbLine
  8
0
 62
256
370
-1
  6
ByLayer
 10
111.9980000000000047
 20
-11.2430000000000003
 30
0.0
 11
111.3520000000000039
 21
-11.7110000000000003
 31
0.0
  0
LINE
  5
6A
100
AcDbEntity
100
AcDbLine
  8
0
 62
256
370
-1
  6
ByLayer
 10
111.3520000000000039
 20
-11.7110000000000003
 30
0.0
 11
110.6539999999999964
 21
-12.0960000000000001
 31
0.0
  0
LINE
  5
6B
100
AcDbEntity
100
AcDbLine
  8
0
 62
256
370
-1
  6
ByLayer
 10
110.6539999999999964
 20
-12.0960000000000001
 30
0.0
 11
109.9120000000000061
 21
-12.3889999999999993
 31
0.0
  0
LINE
  5
6C
100
AcDbEntity
100
AcDbLine
  8
0
 62
256
370
-1
  6
ByLayer
 10
109.9120000000000061
 20
-12.3889999999999993
 30
0.0
 11
109.1400000000000006
 21
-12.5879999999999992
 31
0.0
  0
LINE
  5
6D
100
AcDbEntity
100
AcDbLine
  8
0
 62
256
370
-1
  6
ByLayer
 10
109.1400000000000006
 20
-12.5879999999999992
 30
0.0
 11
108.3490000000000038
 21
-12.6869999999999994
 31
0.0
  0
LINE
  5
6E
100
AcDbEntity
100
AcDbLine
  8
0
 62
256
370
-1
  6
ByLayer
 10
108.3490000000000038
 20
-12.6869999999999994
 30
0.0
 11
107.9500000000000028
 21
-12.6869999999999994
 31
0.0
  0
LINE
  5
6F
100
AcDbEntity
100
AcDbLine
  8
0
 62
256
370
-1
  6
ByLayer
 10
107.9500000000000028
 20
-12.6869999999999994
 30
0.0
 11
107.9500000000000028
 21
-12.6999999999999993
 31
0.0
  0
LINE
  5
70
100
AcDbEntity
100
AcDbLine
  8
0
 62
256
370
-1
  6
ByLayer
 10
107.9500000000000028
 20
-12.6999999999999993
 30
0.0
 11
-107.9500000000000028
 21
-12.6999999999999993
 31
0.0
  0
LINE
  5
71
100
AcDbEntity
100
AcDbLine
  8
0
 62
256
370
-1
  6
ByLayer
 10
-107.9500000000000028
 20
-12.6999999999999993
 30
0.0
 11
-107.9500000000000028
 21
-12.6869999999999994
 31
0.0
  0
LINE
  5
72
100
AcDbEntity
100
AcDbLine
  8
0
 62
256
370
-1
  6
ByLayer
 10
-107.9500000000000028
 20
-12.6869999999999994
 30
0.0
 11
-108.3490000000000038
 21
-12.6869999999999994
 31
0.0
  0
LINE
  5
73
100
AcDbEntity
100
AcDbLine
  8
0
 62
256
370
-1
  6
ByLayer
 10
-108.3490000000000038
 20
-12.6869999999999994
 30
0.0
 11
-109.1400000000000006
 21
-12.5879999999999992
 31
0.0
  0
LINE
  5
74
100
AcDbEntity
100
AcDbLine
  8
0
 62
256
370
-1
  6
ByLayer
 10
-109.1400000000000006
 20
-12.5879999999999992
 30
0.0
 11
-109.9120000000000061
 21
-12.3889999999999993
 31
0.0
  0
LINE
  5
75
100
AcDbEntity
100
AcDbLine
  8
0
 62
256
370
-1
  6
ByLayer
 10
-109.9120000000000061
 20
-12.3889999999999993
 30
0.0
 11
-110.6539999999999964
 21
-12.0960000000000001
 31
0.0
  0
LINE
  5
76
100
AcDbEntity
100
AcDbLine
  8
0
 62
256
370
-1
  6
ByLayer
 10
-110.6539999999999964
 20
-12.0960000000000001
 30
0.0
 11
-111.3520000000000039
 21
-11.7110000000000003
 31
0.0
  0
LINE
  5
77
100
AcDbEntity
100
AcDbLine
  8
0
 62
256
370
-1
  6
ByLayer
 10
-111.3520000000000039
 20
-11.7110000000000003
 30
0.0
 11
-111.9980000000000047
 21
-11.2430000000000003
 31
0.0
  0
LINE
  5
78
100
AcDbEntity
100
AcDbLine
  8
0
 62
256
370
-1
  6
ByLayer
 10
-111.9980000000000047
 20
-11.2430000000000003
 30
0.0
 11
-112.5789999999999935
 21
-10.6969999999999992
 31
0.0
  0
LINE
  5
79
100
AcDbEntity
100
AcDbLine
  8
0
 62
256
370
-1
  6
ByLayer
 10
-112.5789999999999935
 20
-10.6969999999999992
 30
0.0
 11
-113.0870000000000033
 21
-10.0820000000000007
 31
0.0
  0
LINE
  5
7A
100
AcDbEntity
100
AcDbLine
  8
0
 62
256
370
-1
  6
ByLayer
 10
-113.0870000000000033
 20
-10.0820000000000007
 30
0.0
 11
-113.5150000000000006
 21
-9.4090000000000007
 31
0.0
  0
LINE
  5
7B
100
AcDbEntity
100
AcDbLine
  8
0
 62
256
370
-1
  6
ByLayer
 10
-113.5150000000000006
 20
-9.4090000000000007
 30
0.0
 11
-113.8539999999999992
 21
-8.6880000000000006
 31
0.0
  0
LINE
  5
7C
100
AcDbEntity
100
AcDbLine
  8
0
 62
256
370
-1
  6
ByLayer
 10
-113.8539999999999992
 20
-8.6880000000000006
 30
0.0
 11
-114.1009999999999991
 21
-7.9290000000000003
 31
0.0
  0
LINE
  5
7D
100
AcDbEntity
100
AcDbLine
  8
0
 62
256
370
-1
  6
ByLayer
 10
-114.1009999999999991
 20
-7.9290000000000003
 30
0.0
 11
-114.25
 21
-7.1459999999999999
 31
0.0
  0
LINE
  5
7E
100
AcDbEntity
100
AcDbLine
  8
0
 62
256
370
-1
  6
ByLayer
 10
-114.25
 20
-7.1459999999999999
 30
0.0
 11
-114.2999999999999972
 21
-6.3499999999999996
 31
0.0
  0
LINE
  5
7F
100
AcDbEntity
100
AcDbLine
  8
0
 62
256
370
-1
  6
ByLayer
 10
-101.5999999999999943
 20
0.0
 30
0.0
 11
-101.5499999999999972
 21
0.796
 31
0.0
  0
LINE
  5
80
100
AcDbEntity
100
AcDbLine
  8
0
 62
256
370
-1
  6
ByLayer
 10
-101.5499999999999972
 20
0.796
 30
0.0
 11
-101.4009999999999962
 21
1.579
 31
0.0
  0
LINE
  5
81
100
AcDbEntity
100
AcDbLine
  8
0
 62
256
370
-1
  6
ByLayer
 10
-101.4009999999999962
 20
1.579
 30
0.0
 11
-101.1539999999999964
 21
2.3380000000000001
 31
0.0
  0
LINE
  5
82
100
AcDbEntity
100
AcDbLine
  8
0
 62
256
370
-1
  6
ByLayer
 10
-101.1539999999999964
 20
2.3380000000000001
 30
0.0
 11
-100.8149999999999977
 21
3.0590000000000002
 31
0.0
  0
LINE
  5
83
100
AcDbEntity
100
AcDbLine
  8
0
 62
256
370
-1
  6
ByLayer
 10
-100.8149999999999977
 20
3.0590000000000002
 30
0.0
 11
-100.3870000000000005
 21
3.7320000000000002
 31
0.0
  0
LINE
  5
84
100
AcDbEntity
100
AcDbLine
  8
0
 62
256
370
-1
  6
ByLayer
 10
-100.3870000000000005
 20
3.7320000000000002
 30
0.0
 11
-99.8790000000000049
 21
4.3470000000000004
 31
0.0
  0
LINE
  5
85
100
AcDbEntity
100
AcDbLine
  8
0
 62
256
370
-1
  6
ByLayer
 10
-99.8790000000000049
 20
4.3470000000000004
 30
0.0
 11
-99.2980000000000018
 21
4.8929999999999998
 31
0.0
  0
LINE
  5
86
100
AcDbEntity
100
AcDbLine
  8
0
 62
256
370
-1
  6
ByLayer
 10
-99.2980000000000018
 20
4.8929999999999998
 30
0.0
 11
-98.652000000000001
 21
5.3609999999999998
 31
0.0
  0
LINE
  5
87
100
AcDbEntity
100
AcDbLine
  8
0
 62
256
370
-1
  6
ByLayer
 10
-98.652000000000001
 20
5.3609999999999998
 30
0.0
 11
-97.9539999999999935
 21
5.7460000000000004
 31
0.0
  0
LINE
  5
88
100
AcDbEntity
100
AcDbLine
  8
0
 62
256
370
-1
  6
ByLayer
 10
-97.9539999999999935
 20
5.7460000000000004
 30
0.0
 11
-97.2120000000000033
 21
6.0389999999999997
 31
0.0
  0
LINE
  5
89
100
AcDbEntity
100
AcDbLine
  8
0
 62
256
370
-1
  6
ByLayer
 10
-97.2120000000000033
 20
6.0389999999999997
 30
0.0
 11
-96.4399999999999977
 21
6.2380000000000004
 31
0.0
  0
LINE
  5
8A
100
AcDbEntity
100
AcDbLine
  8
0
 62
256
370
-1
  6
ByLayer
 10
-96.4399999999999977
 20
6.2380000000000004
 30
0.0
 11
-95.6490000000000009
 21
6.3369999999999997
 31
0.0
  0
LINE
  5
8B
100
AcDbEntity
100
AcDbLine
  8
0
 62
256
370
-1
  6
ByLayer
 10
-95.6490000000000009
 20
6.3369999999999997
 30
0.0
 11
-94.8509999999999991
 21
6.3369999999999997
 31
0.0
  0
LINE
  5
8C
100
AcDbEntity
100
AcDbLine
  8
0
 62
256
370
-1
  6
ByLayer
 10
-94.8509999999999991
 20
6.3369999999999997
 30
0.0
 11
-94.0600000000000023
 21
6.2380000000000004
 31
0.0
  0
LINE
  5
8D
100
AcDbEntity
100
AcDbLine
  8
0
 62
256
370
-1
  6
ByLayer
 10
-94.0600000000000023
 20
6.2380000000000004
 30
0.0
 11
-93.2879999999999967
 21
6.0389999999999997
 31
0.0
  0
LINE
  5
8E
100
AcDbEntity
100
AcDbLine
  8
0
 62
256
370
-1
  6
ByLayer
 10
-93.2879999999999967
 20
6.0389999999999997
 30
0.0
 11
-92.5460000000000065
 21
5.7460000000000004
 31
0.0
  0
LINE
  5
8F
100
AcDbEntity
100
AcDbLine
  8
0
 62
256
370
-1
  6
ByLayer
 10
-92.5460000000000065
 20
5.7460000000000004
 30
0.0
 11
-91.847999999999999
 21
5.3609999999999998
 31
0.0
  0
LINE
  5
90
100
AcDbEntity
100
AcDbLine
  8
0
 62
256
370
-1
  6
ByLayer
 10
-91.847999999999999
 20
5.3609999999999998
 30
0.0
 11
-91.2019999999999982
 21
4.8929999999999998
 31
0.0
  0
LINE
  5
91
100
AcDbEntity
100
AcDbLine
  8
0
 62
256
370
-1
  6
ByLayer
 10
-91.2019999999999982
 20
4.8929999999999998
 30
0.0
 11
-90.6209999999999951
 21
4.3470000000000004
 31
0.0
  0
LINE
  5
92
100
AcDbEntity
100
AcDbLine
  8
0
 62
256
370
-1
  6
ByLayer
 10
-90.6209999999999951
 20
4.3470000000000004
 30
0.0
 11
-90.1129999999999995
 21
3.7320000000000002
 31
0.0
  0
LINE
  5
93
100
AcDbEntity
100
AcDbLine
  8
0
 62
256
370
-1
  6
ByLayer
 10
-90.1129999999999995
 20
3.7320000000000002
 30
0.0
 11
-89.6850000000000023
 21
3.0590000000000002
 31
0.0
  0
LINE
  5
94
100
AcDbEntity
100
AcDbLine
  8
0
 62
256
370
-1
  6
ByLayer
 10
-89.6850000000000023
 20
3.0590000000000002
 30
0.0
 11
-89.3460000000000036
 21
2.3380000000000001
 31
0.0
  0
LINE
  5
95
100
AcDbEntity
100
AcDbLine
  8
0
 62
256
370
-1
  6
ByLayer
 10
-89.3460000000000036
 20
2.3380000000000001
 30
0.0
 11
-89.0990000000000038
 21
1.579
 31
0.0
  0
LINE
  5
96
100
AcDbEntity
100
AcDbLine
  8
0
 62
256
370
-1
  6
ByLayer
 10
-89.0990000000000038
 20
1.579
 30
0.0
 11
-88.9500000000000028
 21
0.796
 31
0.0
  0
LINE
  5
97
100
AcDbEntity
100
AcDbLine
  8
0
 62
256
370
-1
  6
ByLayer
 10
-88.9500000000000028
 20
0.796
 30
0.0
 11
-88.9000000000000057
 21
0.0
 31
0.0
  0
LINE
  5
98
100
AcDbEntity
100
AcDbLine
  8
0
 62
256
370
-1
  6
ByLayer
 10
-88.9000000000000057
 20
0.0
 30
0.0
 11
-88.9500000000000028
 21
-0.796
 31
0.0
  0
LINE
  5
99
100
AcDbEntity
100
AcDbLine
  8
0
 62
256
370
-1
  6
ByLayer
 10
-88.9500000000000028
 20
-0.796
 30
0.0
 11
-89.0990000000000038
 21
-1.579
 31
0.0
  0
LINE
  5
9A
100
AcDbEntity
100
AcDbLine
  8
0
 62
256
370
-1
  6
ByLayer
 10
-89.0990000000000038
 20
-1.579
 30
0.0
 11
-89.3460000000000036
 21
-2.3380000000000001
 31
0.0
  0
LINE
  5
9B
100
AcDbEntity
100
AcDbLine
  8
0
 62
256
370
-1
  6
ByLayer
 10
-89.3460000000000036
 20
-2.3380000000000001
 30
0.0
 11
-89.6850000000000023
 21
-3.0590000000000002
 31
0.0
  0
LINE
  5
9C
100
AcDbEntity
100
AcDbLine
  8
0
 62
256
370
-1
  6
ByLayer
 10
-89.6850000000000023
 20
-3.0590000000000002
 30
0.0
 11
-90.1129999999999995
 21
-3.7320000000000002
 31
0.0
  0
LINE
  5
9D
100
AcDbEntity
100
AcDbLine
  8
0
 62
256
370
-1
  6
ByLayer
 10
-90.1129999999999995
 20
-3.7320000000000002
 30
0.0
 11
-90.6209999999999951
 21
-4.3470000000000004
 31
0.0
  0
LINE
  5
9E
100
AcDbEntity
100
AcDbLine
  8
0
 62
256
370
-1
  6
ByLayer
 10
-90.6209999999999951
 20
-4.3470000000000004
 30
0.0
 11
-91.2019999999999982
 21
-4.8929999999999998
 31
0.0
  0
LINE
  5
9F
100
AcDbEntity
100
AcDbLine
  8
0
 62
256
370
-1
  6
ByLayer
 10
-91.2019999999999982
 20
-4.8929999999999998
 30
0.0
 11
-91.847999999999999
 21
-5.3609999999999998
 31
0.0
  0
LINE
  5
A0
100
AcDbEntity
100
AcDbLine
  8
0
 62
256
370
-1
  6
ByLayer
 10
-91.847999999999999
 20
-5.3609999999999998
 30
0.0
 11
-92.5460000000000065
 21
-5.7460000000000004
 31
0.0
  0
LINE
  5
A1
100
AcDbEntity
100
AcDbLine
  8
0
 62
256
370
-1
  6
ByLayer
 10
-92.5460000000000065
 20
-5.7460000000000004
 30
0.0
 11
-93.2879999999999967
 21
-6.0389999999999997
 31
0.0
  0
LINE
  5
A2
100
AcDbEntity
100
AcDbLine
  8
0
 62
256
370
-1
  6
ByLayer
 10
-93.2879999999999967
 20
-6.0389999999999997
 30
0.0
 11
-94.0600000000000023
 21
-6.2380000000000004
 31
0.0
  0
LINE
  5
A3
100
AcDbEntity
100
AcDbLine
  8
0
 62
256
370
-1
  6
ByLayer
 10
-94.0600000000000023
 20
-6.2380000000000004
 30
0.0
 11
-94.8509999999999991
 21
-6.3369999999999997
 31
0.0
  0
LINE
  5
A4
100
AcDbEntity
100
AcDbLine
  8
0
 62
256
370
-1
  6
ByLayer
 10
-94.8509999999999991
 20
-6.3369999999999997
 30
0.0
 11
-95.6490000000000009
 21
-6.3369999999999997
 31
0.0
  0
LINE
  5
A5
100
AcDbEntity
100
AcDbLine
  8
0
 62
256
370
-1
  6
ByLayer
 10
-95.6490000000000009
 20
-6.3369999999999997
 30
0.0
 11
-96.4399999999999977
 21
-6.2380000000000004
 31
0.0
  0
LINE
  5
A6
100
AcDbEntity
100
AcDbLine
  8
0
 62
256
370
-1
  6
ByLayer
 10
-96.4399999999999977
 20
-6.2380000000000004
 30
0.0
 11
-97.2120000000000033
 21
-6.0389999999999997
 31
0.0
  0
LINE
  5
A7
100
AcDbEntity
100
AcDbLine
  8
0
 62
256
370
-1
  6
ByLayer
 10
-97.2120000000000033
 20
-6.0389999999999997
 30
0.0
 11
-97.9539999999999935
 21
-5.7460000000000004
 31
0.0
  0
LINE
  5
A8
100
AcDbEntity
100
AcDbLine
  8
0
 62
256
370
-1
  6
ByLayer
 10
-97.9539999999999935
 20
-5.7460000000000004
 30
0.0
 11
-98.652000000000001
 21
-5.3609999999999998
 31
0.0
  0
LINE
  5
A9
100
AcDbEntity
100
AcDbLine
  8
0
 62
256
370
-1
  6
ByLayer
 10
-98.652000000000001
 20
-5.3609999999999998
 30
0.0
 11
-99.2980000000000018
 21
-4.8929999999999998
 31
0.0
  0
LINE
  5
AA
100
AcDbEntity
100
AcDbLine
  8
0
 62
256
370
-1
  6
ByLayer
 10
-99.2980000000000018
 20
-4.8929999999999998
 30
0.0
 11
-99.8790000000000049
 21
-4.3470000000000004
 31
0.0
  0
LINE
  5
AB
100
AcDbEntity
100
AcDbLine
  8
0
 62
256
370
-1
  6
ByLayer
 10
-99.8790000000000049
 20
-4.3470000000000004
 30
0.0
 11
-100.3870000000000005
 21
-3.7320000000000002
 31
0.0
  0
LINE
  5
AC
100
AcDbEntity
100
AcDbLine
  8
0
 62
256
370
-1
  6
ByLayer
 10
-100.3870000000000005
 20
-3.7320000000000002
 30
0.0
 11
-100.8149999999999977
 21
-3.0590000000000002
 31
0.0
  0
LINE
  5
AD
100
AcDbEntity
100
AcDbLine
  8
0
 62
256
370
-1
  6
ByLayer
 10
-100.8149999999999977
 20
-3.0590000000000002
 30
0.0
 11
-101.1539999999999964
 21
-2.3380000000000001
 31
0.0
  0
LINE
  5
AE
100
AcDbEntity
100
AcDbLine
  8
0
 62
256
370
-1
  6
ByLayer
 10
-101.1539999999999964
 20
-2.3380000000000001
 30
0.0
 11
-101.4009999999999962
 21
-1.579
 31
0.0
  0
LINE
  5
AF
100
AcDbEntity
100
AcDbLine
  8
0
 62
256
370
-1
  6
ByLayer
 10
-101.4009999999999962
 20
-1.579
 30
0.0
 11
-101.5499999999999972
 21
-0.796
 31
0.0
  0
LINE
  5
B0
100
AcDbEntity
100
AcDbLine
  8
0
 62
256
370
-1
  6
ByLayer
 10
-101.5499999999999972
 20
-0.796
 30
0.0
 11
-101.5999999999999943
 21
0.0
 31
0.0
  0
LINE
  5
B1
100
AcDbEntity
100
AcDbLine
  8
0
 62
256
370
-1
  6
ByLayer
 10
-82.4860000000000042
 20
0.0
 30
0.0
 11
-82.4369999999999976
 21
0.788
 31
0.0
  0
LINE
  5
B2
100
AcDbEntity
100
AcDbLine
  8
0
 62
256
370
-1
  6
ByLayer
 10
-82.4369999999999976
 20
0.788
 30
0.0
 11
-82.2890000000000015
 21
1.5629999999999999
 31
0.0
  0
LINE
  5
B3
100
AcDbEntity
100
AcDbLine
  8
0
 62
256
370
-1
  6
ByLayer
 10
-82.2890000000000015
 20
1.5629999999999999
 30
0.0
 11
-82.0450000000000017
 21
2.3140000000000001
 31
0.0
  0
LINE
  5
B4
100
AcDbEntity
100
AcDbLine
  8
0
 62
256
370
-1
  6
ByLayer
 10
-82.0450000000000017
 20
2.3140000000000001
 30
0.0
 11
-81.7090000000000032
 21
3.0289999999999999
 31
0.0
  0
LINE
  5
B5
100
AcDbEntity
100
AcDbLine
  8
0
 62
256
370
-1
  6
ByLayer
 10
-81.7090000000000032
 20
3.0289999999999999
 30
0.0
 11
-81.2860000000000014
 21
3.6949999999999998
 31
0.0
  0
LINE
  5
B6
100
AcDbEntity
100
AcDbLine
  8
0
 62
256
370
-1
  6
ByLayer
 10
-81.2860000000000014
 20
3.6949999999999998
 30
0.0
 11
-80.7830000000000013
 21
4.3029999999999999
 31
0.0
  0
LINE
  5
B7
100
AcDbEntity
100
AcDbLine
  8
0
 62
256
370
-1
  6
ByLayer
 10
-80.7830000000000013
 20
4.3029999999999999
 30
0.0
 11
-80.2069999999999936
 21
4.8440000000000003
 31
0.0
  0
LINE
  5
B8
100
AcDbEntity
100
AcDbLine
  8
0
 62
256
370
-1
  6
ByLayer
 10
-80.2069999999999936
 20
4.8440000000000003
 30
0.0
 11
-79.5679999999999978
 21
5.3079999999999998
 31
0.0
  0
LINE
  5
B9
100
AcDbEntity
100
AcDbLine
  8
0
 62
256
370
-1
  6
ByLayer
 10
-79.5679999999999978
 20
5.3079999999999998
 30
0.0
 11
-78.8769999999999953
 21
5.6879999999999997
 31
0.0
  0
LINE
  5
BA
100
AcDbEntity
100
AcDbLine
  8
0
 62
256
370
-1
  6
ByLayer
 10
-78.8769999999999953
 20
5.6879999999999997
 30
0.0
 11
-78.1430000000000007
 21
5.9790000000000001
 31
0.0
  0
LINE
  5
BB
100
AcDbEntity
100
AcDbLine
  8
0
 62
256
370
-1
  6
ByLayer
 10
-78.1430000000000007
 20
5.9790000000000001
 30
0.0
 11
-77.3780000000000001
 21
6.1749999999999998
 31
0.0
  0
LINE
  5
BC
100
AcDbEntity
100
AcDbLine
  8
0
 62
256
370
-1
  6
ByLayer
 10
-77.3780000000000001
 20
6.1749999999999998
 30
0.0
 11
-76.5949999999999989
 21
6.274
 31
0.0
  0
LINE
  5
BD
100
AcDbEntity
100
AcDbLine
  8
0
 62
256
370
-1
  6
ByLayer
 10
-76.5949999999999989
 20
6.274
 30
0.0
 11
-75.8050000000000068
 21
6.274
 31
0.0
  0
LINE
  5
BE
100
AcDbEntity
100
AcDbLine
  8
0
 62
256
370
-1
  6
ByLayer
 10
-75.8050000000000068
 20
6.274
 30
0.0
 11
-75.0220000000000056
 21
6.1749999999999998
 31
0.0
  0
LINE
  5
BF
100
AcDbEntity
100
AcDbLine
  8
0
 62
256
370
-1
  6
ByLayer
 10
-75.0220000000000056
 20
6.1749999999999998
 30
0.0
 11
-74.257000000000005
 21
5.9790000000000001
 31
0.0
  0
LINE
  5
C0
100
AcDbEntity
100
AcDbLine
  8
0
 62
256
370
-1
  6
ByLayer
 10
-74.257000000000005
 20
5.9790000000000001
 30
0.0
 11
-73.5229999999999961
 21
5.6879999999999997
 31
0.0
  0
LINE
  5
C1
100
AcDbEntity
100
AcDbLine
  8
0
 62
256
370
-1
  6
ByLayer
 10
-73.5229999999999961
 20
5.6879999999999997
 30
0.0
 11
-72.8319999999999936
 21
5.3079999999999998
 31
0.0
  0
LINE
  5
C2
100
AcDbEntity
100
AcDbLine
  8
0
 62
256
370
-1
  6
ByLayer
 10
-72.8319999999999936
 20
5.3079999999999998
 30
0.0
 11
-72.1929999999999978
 21
4.8440000000000003
 31
0.0
  0
LINE
  5
C3
100
AcDbEntity
100
AcDbLine
  8
0
 62
256
370
-1
  6
ByLayer
 10
-72.1929999999999978
 20
4.8440000000000003
 30
0.0
 11
-71.6170000000000044
 21
4.3029999999999999
 31
0.0
  0
LINE
  5
C4
100
AcDbEntity
100
AcDbLine
  8
0
 62
256
370
-1
  6
ByLayer
 10
-71.6170000000000044
 20
4.3029999999999999
 30
0.0
 11
-71.1140000000000043
 21
3.6949999999999998
 31
0.0
  0
LINE
  5
C5
100
AcDbEntity
100
AcDbLine
  8
0
 62
256
370
-1
  6
ByLayer
 10
-71.1140000000000043
 20
3.6949999999999998
 30
0.0
 11
-70.6910000000000025
 21
3.0289999999999999
 31
0.0
  0
LINE
  5
C6
100
AcDbEntity
100
AcDbLine
  8
0
 62
256
370
-1
  6
ByLayer
 10
-70.6910000000000025
 20
3.0289999999999999
 30
0.0
 11
-70.355000000000004
 21
2.3140000000000001
 31
0.0
  0
LINE
  5
C7
100
AcDbEntity
100
AcDbLine
  8
0
 62
256
370
-1
  6
ByLayer
 10
-70.355000000000004
 20
2.3140000000000001
 30
0.0
 11
-70.1110000000000042
 21
1.5629999999999999
 31
0.0
  0
LINE
  5
C8
100
AcDbEntity
100
AcDbLine
  8
0
 62
256
370
-1
  6
ByLayer
 10
-70.1110000000000042
 20
1.5629999999999999
 30
0.0
 11
-69.9629999999999939
 21
0.788
 31
0.0
  0
LINE
  5
C9
100
AcDbEntity
100
AcDbLine
  8
0
 62
256
370
-1
  6
ByLayer
 10
-69.9629999999999939
 20
0.788
 30
0.0
 11
-69.9140000000000015
 21
0.0
 31
0.0
  0
LINE
  5
CA
100
AcDbEntity
100
AcDbLine
  8
0
 62
256
370
-1
  6
ByLayer
 10
-69.9140000000000015
 20
0.0
 30
0.0
 11
-69.9629999999999939
 21
-0.788
 31
0.0
  0
LINE
  5
CB
100
AcDbEntity
100
AcDbLine
  8
0
 62
256
370
-1
  6
ByLayer
 10
-69.9629999999999939
 20
-0.788
 30
0.0
 11
-70.1110000000000042
 21
-1.5629999999999999
 31
0.0
  0
LINE
  5
CC
100
AcDbEntity
100
AcDbLine
  8
0
 62
256
370
-1
  6
ByLayer
 10
-70.1110000000000042
 20
-1.5629999999999999
 30
0.0
 11
-70.355000000000004
 21
-2.3140000000000001
 31
0.0
  0
LINE
  5
CD
100
AcDbEntity
100
AcDbLine
  8
0
 62
256
370
-1
  6
ByLayer
 10
-70.355000000000004
 20
-2.3140000000000001
 30
0.0
 11
-70.6910000000000025
 21
-3.0289999999999999
 31
0.0
  0
LINE
  5
CE
100
AcDbEntity
100
AcDbLine
  8
0
 62
256
370
-1
  6
ByLayer
 10
-70.6910000000000025
 20
-3.0289999999999999
 30
0.0
 11
-71.1140000000000043
 21
-3.6949999999999998
 31
0.0
  0
LINE
  5
CF
100
AcDbEntity
100
AcDbLine
  8
0
 62
256
370
-1
  6
ByLayer
 10
-71.1140000000000043
 20
-3.6949999999999998
 30
0.0
 11
-71.6170000000000044
 21
-4.3029999999999999
 31
0.0
  0
LINE
  5
D0
100
AcDbEntity
100
AcDbLine
  8
0
 62
256
370
-1
  6
ByLayer
 10
-71.6170000000000044
 20
-4.3029999999999999
 30
0.0
 11
-72.1929999999999978
 21
-4.8440000000000003
 31
0.0
  0
LINE
  5
D1
100
AcDbEntity
100
AcDbLine
  8
0
 62
256
370
-1
  6
ByLayer
 10
-72.1929999999999978
 20
-4.8440000000000003
 30
0.0
 11
-72.8319999999999936
 21
-5.3079999999999998
 31
0.0
  0
LINE
  5
D2
100
AcDbEntity
100
AcDbLine
  8
0
 62
256
370
-1
  6
ByLayer
 10
-72.8319999999999936
 20
-5.3079999999999998
 30
0.0
 11
-73.5229999999999961
 21
-5.6879999999999997
 31
0.0
  0
LINE
  5
D3
100
AcDbEntity
100
AcDbLine
  8
0
 62
256
370
-1
  6
ByLayer
 10
-73.5229999999999961
 20
-5.6879999999999997
 30
0.0
 11
-74.257000000000005
 21
-5.9790000000000001
 31
0.0
  0
LINE
  5
D4
100
AcDbEntity
100
AcDbLine
  8
0
 62
256
370
-1
  6
ByLayer
 10
-74.257000000000005
 20
-5.9790000000000001
 30
0.0
 11
-75.0220000000000056
 21
-6.1749999999999998
 31
0.0
  0
LINE
  5
D5
100
AcDbEntity
100
AcDbLine
  8
0
 62
256
370
-1
  6
ByLayer
 10
-75.0220000000000056
 20
-6.1749999999999998
 30
0.0
 11
-75.8050000000000068
 21
-6.274
 31
0.0
  0
LINE
  5
D6
100
AcDbEntity
100
AcDbLine
  8
0
 62
256
370
-1
  6
ByLayer
 10
-75.8050000000000068
 20
-6.274
 30
0.0
 11
-76.5949999999999989
 21
-6.274
 31
0.0
  0
LINE
  5
D7
100
AcDbEntity
100
AcDbLine
  8
0
 62
256
370
-1
  6
ByLayer
 10
-76.5949999999999989
 20
-6.274
 30
0.0
 11
-77.3780000000000001
 21
-6.1749999999999998
 31
0.0
  0
LINE
  5
D8
100
AcDbEntity
100
AcDbLine
  8
0
 62
256
370
-1
  6
ByLayer
 10
-77.3780000000000001
 20
-6.1749999999999998
 30
0.0
 11
-78.1430000000000007
 21
-5.9790000000000001
 31
0.0
  0
LINE
  5
D9
100
AcDbEntity
100
AcDbLine
  8
0
 62
256
370
-1
  6
ByLayer
 10
-78.1430000000000007
 20
-5.9790000000000001
 30
0.0
 11
-78.8769999999999953
 21
-5.6879999999999997
 31
0.0
  0
LINE
  5
DA
100
AcDbEntity
100
AcDbLine
  8
0
 62
256
370
-1
  6
ByLayer
 10
-78.8769999999999953
 20
-5.6879999999999997
 30
0.0
 11
-79.5679999999999978
 21
-5.3079999999999998
 31
0.0
  0
LINE
  5
DB
100
AcDbEntity
100
AcDbLine
  8
0
 62
256
370
-1
  6
ByLayer
 10
-79.5679999999999978
 20
-5.3079999999999998
 30
0.0
 11
-80.2069999999999936
 21
-4.8440000000000003
 31
0.0
  0
LINE
  5
DC
100
AcDbEntity
100
AcDbLine
  8
0
 62
256
370
-1
  6
ByLayer
 10
-80.2069999999999936
 20
-4.8440000000000003
 30
0.0
 11
-80.7830000000000013
 21
-4.3029999999999999
 31
0.0
  0
LINE
  5
DD
100
AcDbEntity
100
AcDbLine
  8
0
 62
256
370
-1
  6
ByLayer
 10
-80.7830000000000013
 20
-4.3029999999999999
 30
0.0
 11
-81.2860000000000014
 21
-3.6949999999999998
 31
0.0
  0
LINE
  5
DE
100
AcDbEntity
100
AcDbLine
  8
0
 62
256
370
-1
  6
ByLayer
 10
-81.2860000000000014
 20
-3.6949999999999998
 30
0.0
 11
-81.7090000000000032
 21
-3.0289999999999999
 31
0.0
  0
LINE
  5
DF
100
AcDbEntity
100
AcDbLine
  8
0
 62
256
370
-1
  6
ByLayer
 10
-81.7090000000000032
 20
-3.0289999999999999
 30
0.0
 11
-82.0450000000000017
 21
-2.3140000000000001
 31
0.0
  0
LINE
  5
E0
100
AcDbEntity
100
AcDbLine
  8
0
 62
256
370
-1
  6
ByLayer
 10
-82.0450000000000017
 20
-2.3140000000000001
 30
0.0
 11
-82.2890000000000015
 21
-1.5629999999999999
 31
0.0
  0
LINE
  5
E1
100
AcDbEntity
100
AcDbLine
  8
0
 62
256
370
-1
  6
ByLayer
 10
-82.2890000000000015
 20
-1.5629999999999999
 30
0.0
 11
-82.4369999999999976
 21
-0.788
 31
0.0
  0
LINE
  5
E2
100
AcDbEntity
100
AcDbLine
  8
0
 62
256
370
-1
  6
ByLayer
 10
-82.4369999999999976
 20
-0.788
 30
0.0
 11
-82.4860000000000042
 21
0.0
 31
0.0
  0
LINE
  5
E3
100
AcDbEntity
100
AcDbLine
  8
0
 62
256
370
-1
  6
ByLayer
 10
-63.3729999999999976
 20
0.0
 30
0.0
 11
-63.3239999999999981
 21
0.78
 31
0.0
  0
LINE
  5
E4
100
AcDbEntity
100
AcDbLine
  8
0
 62
256
370
-1
  6
ByLayer
 10
-63.3239999999999981
 20
0.78
 30
0.0
 11
-63.1769999999999996
 21
1.548
 31
0.0
  0
LINE
  5
E5
100
AcDbEntity
100
AcDbLine
  8
0
 62
256
370
-1
  6
ByLayer
 10
-63.1769999999999996
 20
1.548
 30
0.0
 11
-62.9359999999999999
 21
2.2909999999999999
 31
0.0
  0
LINE
  5
E6
100
AcDbEntity
100
AcDbLine
  8
0
 62
256
370
-1
  6
ByLayer
 10
-62.9359999999999999
 20
2.2909999999999999
 30
0.0
 11
-62.6030000000000015
 21
2.9980000000000002
 31
0.0
  0
LINE
  5
E7
100
AcDbEntity
100
AcDbLine
  8
0
 62
256
370
-1
  6
ByLayer
 10
-62.6030000000000015
 20
2.9980000000000002
 30
0.0
 11
-62.1850000000000023
 21
3.6579999999999999
 31
0.0
  0
LINE
  5
E8
100
AcDbEntity
100
AcDbLine
  8
0
 62
256
370
-1
  6
ByLayer
 10
-62.1850000000000023
 20
3.6579999999999999
 30
0.0
 11
-61.6859999999999999
 21
4.2599999999999998
 31
0.0
  0
LINE
  5
E9
100
AcDbEntity
100
AcDbLine
  8
0
 62
256
370
-1
  6
ByLayer
 10
-61.6859999999999999
 20
4.2599999999999998
 30
0.0
 11
-61.1169999999999973
 21
4.7949999999999999
 31
0.0
  0
LINE
  5
EA
100
AcDbEntity
100
AcDbLine
  8
0
 62
256
370
-1
  6
ByLayer
 10
-61.1169999999999973
 20
4.7949999999999999
 30
0.0
 11
-60.4840000000000018
 21
5.2539999999999996
 31
0.0
  0
LINE
  5
EB
100
AcDbEntity
100
AcDbLine
  8
0
 62
256
370
-1
  6
ByLayer
 10
-60.4840000000000018
 20
5.2539999999999996
 30
0.0
 11
-59.7999999999999972
 21
5.6310000000000002
 31
0.0
  0
LINE
  5
EC
100
AcDbEntity
100
AcDbLine
  8
0
 62
256
370
-1
  6
ByLayer
 10
-59.7999999999999972
 20
5.6310000000000002
 30
0.0
 11
-59.0730000000000004
 21
5.9180000000000001
 31
0.0
  0
LINE
  5
ED
100
AcDbEntity
100
AcDbLine
  8
0
 62
256
370
-1
  6
ByLayer
 10
-59.0730000000000004
 20
5.9180000000000001
 30
0.0
 11
-58.3160000000000025
 21
6.1130000000000004
 31
0.0
  0
LINE
  5
EE
100
AcDbEntity
100
AcDbLine
  8
0
 62
256
370
-1
  6
ByLayer
 10
-58.3160000000000025
 20
6.1130000000000004
 30
0.0
 11
-57.5409999999999968
 21
6.2110000000000003
 31
0.0
  0
LINE
  5
EF
100
AcDbEntity
100
AcDbLine
  8
0
 62
256
370
-1
  6
ByLayer
 10
-57.5409999999999968
 20
6.2110000000000003
 30
0.0
 11
-56.7590000000000003
 21
6.2110000000000003
 31
0.0
  0
LINE
  5
F0
100
AcDbEntity
100
AcDbLine
  8
0
 62
256
370
-1
  6
ByLayer
 10
-56.7590000000000003
 20
6.2110000000000003
 30
0.0
 11
-55.9840000000000018
 21
6.1130000000000004
 31
0.0
  0
LINE
  5
F1
100
AcDbEntity
100
AcDbLine
  8
0
 62
256
370
-1
  6
ByLayer
 10
-55.9840000000000018
 20
6.1130000000000004
 30
0.0
 11
-55.2269999999999968
 21
5.9180000000000001
 31
0.0
  0
LINE
  5
F2
100
AcDbEntity
100
AcDbLine
  8
0
 62
256
370
-1
  6
ByLayer
 10
-55.2269999999999968
 20
5.9180000000000001
 30
0.0
 11
-54.5
 21
5.6310000000000002
 31
0.0
  0
LINE
  5
F3
100
AcDbEntity
100
AcDbLine
  8
0
 62
256
370
-1
  6
ByLayer
 10
-54.5
 20
5.6310000000000002
 30
0.0
 11
-53.8160000000000025
 21
5.2539999999999996
 31
0.0
  0
LINE
  5
F4
100
AcDbEntity
100
AcDbLine
  8
0
 62
256
370
-1
  6
ByLayer
 10
-53.8160000000000025
 20
5.2539999999999996
 30
0.0
 11
-53.1829999999999998
 21
4.7949999999999999
 31
0.0
  0
LINE
  5
F5
100
AcDbEntity
100
AcDbLine
  8
0
 62
256
370
-1
  6
ByLayer
 10
-53.1829999999999998
 20
4.7949999999999999
 30
0.0
 11
-52.6139999999999972
 21
4.2599999999999998
 31
0.0
  0
LINE
  5
F6
100
AcDbEntity
100
AcDbLine
  8
0
 62
256
370
-1
  6
ByLayer
 10
-52.6139999999999972
 20
4.2599999999999998
 30
0.0
 11
-52.115000000000002
 21
3.6579999999999999
 31
0.0
  0
LINE
  5
F7
100
AcDbEntity
100
AcDbLine
  8
0
 62
256
370
-1
  6
ByLayer
 10
-52.115000000000002
 20
3.6579999999999999
 30
0.0
 11
-51.6970000000000027
 21
2.9980000000000002
 31
0.0
  0
LINE
  5
F8
100
AcDbEntity
100
AcDbLine
  8
0
 62
256
370
-1
  6
ByLayer
 10
-51.6970000000000027
 20
2.9980000000000002
 30
0.0
 11
-51.3639999999999972
 21
2.2909999999999999
 31
0.0
  0
LINE
  5
F9
100
AcDbEntity
100
AcDbLine
  8
0
 62
256
370
-1
  6
ByLayer
 10
-51.3639999999999972
 20
2.2909999999999999
 30
0.0
 11
-51.1229999999999976
 21
1.548
 31
0.0
  0
LINE
  5
FA
100
AcDbEntity
100
AcDbLine
  8
0
 62
256
370
-1
  6
ByLayer
 10
-51.1229999999999976
 20
1.548
 30
0.0
 11
-50.9759999999999991
 21
0.78
 31
0.0
  0
LINE
  5
FB
100
AcDbEntity
100
AcDbLine
  8
0
 62
256
370
-1
  6
ByLayer
 10
-50.9759999999999991
 20
0.78
 30
0.0
 11
-50.9269999999999996
 21
0.0
 31
0.0
  0
LINE
  5
FC
100
AcDbEntity
100
AcDbLine
  8
0
 62
256
370
-1
  6
ByLayer
 10
-50.9269999999999996
 20
0.0
 30
0.0
 11
-50.9759999999999991
 21
-0.78
 31
0.0
  0
LINE
  5
FD
100
AcDbEntity
100
AcDbLine
  8
0
 62
256
370
-1
  6
ByLayer
 10
-50.9759999999999991
 20
-0.78
 30
0.0
 11
-51.1229999999999976
 21
-1.548
 31
0.0
  0
LINE
  5
FE
100
AcDbEntity
100
AcDbLine
  8
0
 62
256
370
-1
  6
ByLayer
 10
-51.1229999999999976
 20
-1.548
 30
0.0
 11
-51.3639999999999972
 21
-2.2909999999999999
 31
0.0
  0
LINE
  5
FF
100
AcDbEntity
100
AcDbLine
  8
0
 62
256
370
-1
  6
ByLayer
 10
-51.3639999999999972
 20
-2.2909999999999999
 30
0.0
 11
-51.6970000000000027
 21
-2.9980000000000002
 31
0.0
  0
LINE
  5
100
100
AcDbEntity
100
AcDbLine
  8
0
 62
256
370
-1
  6
ByLayer
 10
-51.6970000000000027
 20
-2.9980000000000002
 30
0.0
 11
-52.115000000000002
 21
-3.6579999999999999
 31
0.0
  0
LINE
  5
101
100
AcDbEntity
100
AcDbLine
  8
0
 62
256
370
-1
  6
ByLayer
 10
-52.115000000000002
 20
-3.6579999999999999
 30
0.0
 11
-52.6139999999999972
 21
-4.2599999999999998
 31
0.0
  0
LINE
  5
102
100
AcDbEntity
100
AcDbLine
  8
0
 62
256
370
-1
  6
ByLayer
 10
-52.6139999999999972
 20
-4.2599999999999998
 30
0.0
 11
-53.1829999999999998
 21
-4.7949999999999999
 31
0.0
  0
LINE
  5
103
100
AcDbEntity
100
AcDbLine
  8
0
 62
256
370
-1
  6
ByLayer
 10
-53.1829999999999998
 20
-4.7949999999999999
 30
0.0
 11
-53.8160000000000025
 21
-5.2539999999999996
 31
0.0
  0
LINE
  5
104
100
AcDbEntity
100
AcDbLine
  8
0
 62
256
370
-1
  6
ByLayer
 10
-53.8160000000000025
 20
-5.2539999999999996
 30
0.0
 11
-54.5
 21
-5.6310000000000002
 31
0.0
  0
LINE
  5
105
100
AcDbEntity
100
AcDbLine
  8
0
 62
256
370
-1
  6
ByLayer
 10
-54.5
 20
-5.6310000000000002
 30
0.0
 11
-55.2269999999999968
 21
-5.9180000000000001
 31
0.0
  0
LINE
  5
106
100
AcDbEntity
100
AcDbLine
  8
0
 62
256
370
-1
  6
ByLayer
 10
-55.2269999999999968
 20
-5.9180000000000001
 30
0.0
 11
-55.9840000000000018
 21
-6.1130000000000004
 31
0.0
  0
LINE
  5
107
100
AcDbEntity
100
AcDbLine
  8
0
 62
256
370
-1
  6
ByLayer
 10
-55.9840000000000018
 20
-6.1130000000000004
 30
0.0
 11
-56.7590000000000003
 21
-6.2110000000000003
 31
0.0
  0
LINE
  5
108
100
AcDbEntity
100
AcDbLine
  8
0
 62
256
370
-1
  6
ByLayer
 10
-56.7590000000000003
 20
-6.2110000000000003
 30
0.0
 11
-57.5409999999999968
 21
-6.2110000000000003
 31
0.0
  0
LINE
  5
109
100
AcDbEntity
100
AcDbLine
  8
0
 62
256
370
-1
  6
ByLayer
 10
-57.5409999999999968
 20
-6.2110000000000003
 30
0.0
 11
-58.3160000000000025
 21
-6.1130000000000004
 31
0.0
  0
LINE
  5
10A
100
AcDbEntity
100
AcDbLine
  8
0
 62
256
370
-1
  6
ByLayer
 10
-58.3160000000000025
 20
-6.1130000000000004
 30
0.0
 11
-59.0730000000000004
 21
-5.9180000000000001
 31
0.0
  0
LINE
  5
10B
100
AcDbEntity
100
AcDbLine
  8
0
 62
256
370
-1
  6
ByLayer
 10
-59.0730000000000004
 20
-5.9180000000000001
 30
0.0
 11
-59.7999999999999972
 21
-5.6310000000000002
 31
0.0
  0
LINE
  5
10C
100
AcDbEntity
100
AcDbLine
  8
0
 62
256
370
-1
  6
ByLayer
 10
-59.7999999999999972
 20
-5.6310000000000002
 30
0.0
 11
-60.4840000000000018
 21
-5.2539999999999996
 31
0.0
  0
LINE
  5
10D
100
AcDbEntity
100
AcDbLine
  8
0
 62
256
370
-1
  6
ByLayer
 10
-60.4840000000000018
 20
-5.2539999999999996
 30
0.0
 11
-61.1169999999999973
 21
-4.7949999999999999
 31
0.0
  0
LINE
  5
10E
100
AcDbEntity
100
AcDbLine
  8
0
 62
256
370
-1
  6
ByLayer
 10
-61.1169999999999973
 20
-4.7949999999999999
 30
0.0
 11
-61.6859999999999999
 21
-4.2599999999999998
 31
0.0
  0
LINE
  5
10F
100
AcDbEntity
100
AcDbLine
  8
0
 62
256
370
-1
  6
ByLayer
 10
-61.6859999999999999
 20
-4.2599999999999998
 30
0.0
 11
-62.1850000000000023
 21
-3.6579999999999999
 31
0.0
  0
LINE
  5
110
100
AcDbEntity
100
AcDbLine
  8
0
 62
256
370
-1
  6
ByLayer
 10
-62.1850000000000023
 20
-3.6579999999999999
 30
0.0
 11
-62.6030000000000015
 21
-2.9980000000000002
 31
0.0
  0
LINE
  5
111
100
AcDbEntity
100
AcDbLine
  8
0
 62
256
370
-1
  6
ByLayer
 10
-62.6030000000000015
 20
-2.9980000000000002
 30
0.0
 11
-62.9359999999999999
 21
-2.2909999999999999
 31
0.0
  0
LINE
  5
112
100
AcDbEntity
100
AcDbLine
  8
0
 62
256
370
-1
  6
ByLayer
 10
-62.9359999999999999
 20
-2.2909999999999999
 30
0.0
 11
-63.1769999999999996
 21
-1.548
 31
0.0
  0
LINE
  5
113
100
AcDbEntity
100
AcDbLine
  8
0
 62
256
370
-1
  6
ByLayer
 10
-63.1769999999999996
 20
-1.548
 30
0.0
 11
-63.3239999999999981
 21
-0.78
 31
0.0
  0
LINE
  5
114
100
AcDbEntity
100
AcDbLine
  8
0
 62
256
370
-1
  6
ByLayer
 10
-63.3239999999999981
 20
-0.78
 30
0.0
 11
-63.3729999999999976
 21
0.0
 31
0.0
  0
LINE
  5
115
100
AcDbEntity
100
AcDbLine
  8
0
 62
256
370
-1
  6
ByLayer
 10
-44.2590000000000003
 20
0.0
 30
0.0
 11
-44.2109999999999985
 21
0.772
 31
0.0
  0
LINE
  5
116
100
AcDbEntity
100
AcDbLine
  8
0
 62
256
370
-1
  6
ByLayer
 10
-44.2109999999999985
 20
0.772
 30
0.0
 11
-44.0660000000000025
 21
1.532
 31
0.0
  0
LINE
  5
117
100
AcDbEntity
100
AcDbLine
  8
0
 62
256
370
-1
  6
ByLayer
 10
-44.0660000000000025
 20
1.532
 30
0.0
 11
-43.8269999999999982
 21
2.2669999999999999
 31
0.0
  0
LINE
  5
118
100
AcDbEntity
100
AcDbLine
  8
0
 62
256
370
-1
  6
ByLayer
 10
-43.8269999999999982
 20
2.2669999999999999
 30
0.0
 11
-43.4979999999999976
 21
2.9670000000000001
 31
0.0
  0
LINE
  5
119
100
AcDbEntity
100
AcDbLine
  8
0
 62
256
370
-1
  6
ByLayer
 10
-43.4979999999999976
 20
2.9670000000000001
 30
0.0
 11
-43.0829999999999984
 21
3.6200000000000001
 31
0.0
  0
LINE
  5
11A
100
AcDbEntity
100
AcDbLine
  8
0
 62
256
370
-1
  6
ByLayer
 10
-43.0829999999999984
 20
3.6200000000000001
 30
0.0
 11
-42.5900000000000034
 21
4.2160000000000002
 31
0.0
  0
LINE
  5
11B
100
AcDbEntity
100
AcDbLine
  8
0
 62
256
370
-1
  6
ByLayer
 10
-42.5900000000000034
 20
4.2160000000000002
 30
0.0
 11
-42.0260000000000034
 21
4.7460000000000004
 31
0.0
  0
LINE
  5
11C
100
AcDbEntity
100
AcDbLine
  8
0
 62
256
370
-1
  6
ByLayer
 10
-42.0260000000000034
 20
4.7460000000000004
 30
0.0
 11
-41.3999999999999986
 21
5.2009999999999996
 31
0.0
  0
LINE
  5
11D
100
AcDbEntity
100
AcDbLine
  8
0
 62
256
370
-1
  6
ByLayer
 10
-41.3999999999999986
 20
5.2009999999999996
 30
0.0
 11
-40.722999999999999
 21
5.5730000000000004
 31
0.0
  0
LINE
  5
11E
100
AcDbEntity
100
AcDbLine
  8
0
 62
256
370
-1
  6
ByLayer
 10
-40.722999999999999
 20
5.5730000000000004
 30
0.0
 11
-40.0030000000000001
 21
5.8579999999999997
 31
0.0
  0
LINE
  5
11F
100
AcDbEntity
100
AcDbLine
  8
0
 62
256
370
-1
  6
ByLayer
 10
-40.0030000000000001
 20
5.8579999999999997
 30
0.0
 11
-39.2539999999999978
 21
6.0499999999999998
 31
0.0
  0
LINE
  5
120
100
AcDbEntity
100
AcDbLine
  8
0
 62
256
370
-1
  6
ByLayer
 10
-39.2539999999999978
 20
6.0499999999999998
 30
0.0
 11
-38.4870000000000019
 21
6.1470000000000002
 31
0.0
  0
LINE
  5
121
100
AcDbEntity
100
AcDbLine
  8
0
 62
256
370
-1
  6
ByLayer
 10
-38.4870000000000019
 20
6.1470000000000002
 30
0.0
 11
-37.713000000000001
 21
6.1470000000000002
 31
0.0
  0
LINE
  5
122
100
AcDbEntity
100
AcDbLine
  8
0
 62
256
370
-1
  6
ByLayer
 10
-37.713000000000001
 20
6.1470000000000002
 30
0.0
 11
-36.945999999999998
 21
6.0499999999999998
 31
0.0
  0
LINE
  5
123
100
AcDbEntity
100
AcDbLine
  8
0
 62
256
370
-1
  6
ByLayer
 10
-36.945999999999998
 20
6.0499999999999998
 30
0.0
 11
-36.1970000000000027
 21
5.8579999999999997
 31
0.0
  0
LINE
  5
124
100
AcDbEntity
100
AcDbLine
  8
0
 62
256
370
-1
  6
ByLayer
 10
-36.1970000000000027
 20
5.8579999999999997
 30
0.0
 11
-35.4769999999999968
 21
5.5730000000000004
 31
0.0
  0
LINE
  5
125
100
AcDbEntity
100
AcDbLine
  8
0
 62
256
370
-1
  6
ByLayer
 10
-35.4769999999999968
 20
5.5730000000000004
 30
0.0
 11
-34.7999999999999972
 21
5.2009999999999996
 31
0.0
  0
LINE
  5
126
100
AcDbEntity
100
AcDbLine
  8
0
 62
256
370
-1
  6
ByLayer
 10
-34.7999999999999972
 20
5.2009999999999996
 30
0.0
 11
-34.1739999999999995
 21
4.7460000000000004
 31
0.0
  0
LINE
  5
127
100
AcDbEntity
100
AcDbLine
  8
0
 62
256
370
-1
  6
ByLayer
 10
-34.1739999999999995
 20
4.7460000000000004
 30
0.0
 11
-33.6099999999999994
 21
4.2160000000000002
 31
0.0
  0
LINE
  5
128
100
AcDbEntity
100
AcDbLine
  8
0
 62
256
370
-1
  6
ByLayer
 10
-33.6099999999999994
 20
4.2160000000000002
 30
0.0
 11
-33.1169999999999973
 21
3.6200000000000001
 31
0.0
  0
LINE
  5
129
100
AcDbEntity
100
AcDbLine
  8
0
 62
256
370
-1
  6
ByLayer
 10
-33.1169999999999973
 20
3.6200000000000001
 30
0.0
 11
-32.7019999999999982
 21
2.9670000000000001
 31
0.0
  0
LINE
  5
12A
100
AcDbEntity
100
AcDbLine
  8
0
 62
256
370
-1
  6
ByLayer
 10
-32.7019999999999982
 20
2.9670000000000001
 30
0.0
 11
-32.3729999999999976
 21
2.2669999999999999
 31
0.0
  0
LINE
  5
12B
100
AcDbEntity
100
AcDbLine
  8
0
 62
256
370
-1
  6
ByLayer
 10
-32.3729999999999976
 20
2.2669999999999999
 30
0.0
 11
-32.1340000000000003
 21
1.532
 31
0.0
  0
LINE
  5
12C
100
AcDbEntity
100
AcDbLine
  8
0
 62
256
370
-1
  6
ByLayer
 10
-32.1340000000000003
 20
1.532
 30
0.0
 11
-31.9890000000000008
 21
0.772
 31
0.0
  0
LINE
  5
12D
100
AcDbEntity
100
AcDbLine
  8
0
 62
256
370
-1
  6
ByLayer
 10
-31.9890000000000008
 20
0.772
 30
0.0
 11
-31.9409999999999989
 21
0.0
 31
0.0
  0
LINE
  5
12E
100
AcDbEntity
100
AcDbLine
  8
0
 62
256
370
-1
  6
ByLayer
 10
-31.9409999999999989
 20
0.0
 30
0.0
 11
-31.9890000000000008
 21
-0.772
 31
0.0
  0
LINE
  5
12F
100
AcDbEntity
100
AcDbLine
  8
0
 62
256
370
-1
  6
ByLayer
 10
-31.9890000000000008
 20
-0.772
 30
0.0
 11
-32.1340000000000003
 21
-1.532
 31
0.0
  0
LINE
  5
130
100
AcDbEntity
100
AcDbLine
  8
0
 62
256
370
-1
  6
ByLayer
 10
-32.1340000000000003
 20
-1.532
 30
0.0
 11
-32.3729999999999976
 21
-2.2669999999999999
 31
0.0
  0
LINE
  5
131
100
AcDbEntity
100
AcDbLine
  8
0
 62
256
370
-1
  6
ByLayer
 10
-32.3729999999999976
 20
-2.2669999999999999
 30
0.0
 11
-32.7019999999999982
 21
-2.9670000000000001
 31
0.0
  0
LINE
  5
132
100
AcDbEntity
100
AcDbLine
  8
0
 62
256
370
-1
  6
ByLayer
 10
-32.7019999999999982
 20
-2.9670000000000001
 30
0.0
 11
-33.1169999999999973
 21
-3.6200000000000001
 31
0.0
  0
LINE
  5
133
100
AcDbEntity
100
AcDbLine
  8
0
 62
256
370
-1
  6
ByLayer
 10
-33.1169999999999973
 20
-3.6200000000000001
 30
0.0
 11
-33.6099999999999994
 21
-4.2160000000000002
 31
0.0
  0
LINE
  5
134
100
AcDbEntity
100
AcDbLine
  8
0
 62
256
370
-1
  6
ByLayer
 10
-33.6099999999999994
 20
-4.2160000000000002
 30
0.0
 11
-34.1739999999999995
 21
-4.7460000000000004
 31
0.0
  0
LINE
  5
135
100
AcDbEntity
100
AcDbLine
  8
0
 62
256
370
-1
  6
ByLayer
 10
-34.1739999999999995
 20
-4.7460000000000004
 30
0.0
 11
-34.7999999999999972
 21
-5.2009999999999996
 31
0.0
  0
LINE
  5
136
100
AcDbEntity
100
AcDbLine
  8
0
 62
256
370
-1
  6
ByLayer
 10
-34.7999999999999972
 20
-5.2009999999999996
 30
0.0
 11
-35.4769999999999968
 21
-5.5730000000000004
 31
0.0
  0
LINE
  5
137
100
AcDbEntity
100
AcDbLine
  8
0
 62
256
370
-1
  6
ByLayer
 10
-35.4769999999999968
 20
-5.5730000000000004
 30
0.0
 11
-36.1970000000000027
 21
-5.8579999999999997
 31
0.0
  0
LINE
  5
138
100
AcDbEntity
100
AcDbLine
  8
0
 62
256
370
-1
  6
ByLayer
 10
-36.1970000000000027
 20
-5.8579999999999997
 30
0.0
 11
-36.945999999999998
 21
-6.0499999999999998
 31
0.0
  0
LINE
  5
139
100
AcDbEntity
100
AcDbLine
  8
0
 62
256
370
-1
  6
ByLayer
 10
-36.945999999999998
 20
-6.0499999999999998
 30
0.0
 11
-37.713000000000001
 21
-6.1470000000000002
 31
0.0
  0
LINE
  5
13A
100
AcDbEntity
100
AcDbLine
  8
0
 62
256
370
-1
  6
ByLayer
 10
-37.713000000000001
 20
-6.1470000000000002
 30
0.0
 11
-38.4870000000000019
 21
-6.1470000000000002
 31
0.0
  0
LINE
  5
13B
100
AcDbEntity
100
AcDbLine
  8
0
 62
256
370
-1
  6
ByLayer
 10
-38.4870000000000019
 20
-6.1470000000000002
 30
0.0
 11
-39.2539999999999978
 21
-6.0499999999999998
 31
0.0
  0
LINE
  5
13C
100
AcDbEntity
100
AcDbLine
  8
0
 62
256
370
-1
  6
ByLayer
 10
-39.2539999999999978
 20
-6.0499999999999998
 30
0.0
 11
-40.0030000000000001
 21
-5.8579999999999997
 31
0.0
  0
LINE
  5
13D
100
AcDbEntity
100
AcDbLine
  8
0
 62
256
370
-1
  6
ByLayer
 10
-40.0030000000000001
 20
-5.8579999999999997
 30
0.0
 11
-40.722999999999999
 21
-5.5730000000000004
 31
0.0
  0
LINE
  5
13E
100
AcDbEntity
100
AcDbLine
  8
0
 62
256
370
-1
  6
ByLayer
 10
-40.722999999999999
 20
-5.5730000000000004
 30
0.0
 11
-41.3999999999999986
 21
-5.2009999999999996
 31
0.0
  0
LINE
  5
13F
100
AcDbEntity
100
AcDbLine
  8
0
 62
256
370
-1
  6
ByLayer
 10
-41.3999999999999986
 20
-5.2009999999999996
 30
0.0
 11
-42.0260000000000034
 21
-4.7460000000000004
 31
0.0
  0
LINE
  5
140
100
AcDbEntity
100
AcDbLine
  8
0
 62
256
370
-1
  6
ByLayer
 10
-42.0260000000000034
 20
-4.7460000000000004
 30
0.0
 11
-42.5900000000000034
 21
-4.2160000000000002
 31
0.0
  0
LINE
  5
141
100
AcDbEntity
100
AcDbLine
  8
0
 62
256
370
-1
  6
ByLayer
 10
-42.5900000000000034
 20
-4.2160000000000002
 30
0.0
 11
-43.0829999999999984
 21
-3.6200000000000001
 31
0.0
  0
LINE
  5
142
100
AcDbEntity
100
AcDbLine
  8
0
 62
256
370
-1
  6
ByLayer
 10
-43.0829999999999984
 20
-3.6200000000000001
 30
0.0
 11
-43.4979999999999976
 21
-2.9670000000000001
 31
0.0
  0
LINE
  5
143
100
AcDbEntity
100
AcDbLine
  8
0
 62
256
370
-1
  6
ByLayer
 10
-43.4979999999999976
 20
-2.9670000000000001
 30
0.0
 11
-43.8269999999999982
 21
-2.2669999999999999
 31
0.0
  0
LINE
  5
144
100
AcDbEntity
100
AcDbLine
  8
0
 62
256
370
-1
  6
ByLayer
 10
-43.8269999999999982
 20
-2.2669999999999999
 30
0.0
 11
-44.0660000000000025
 21
-1.532
 31
0.0
  0
LINE
  5
145
100
AcDbEntity
100
AcDbLine
  8
0
 62
256
370
-1
  6
ByLayer
 10
-44.0660000000000025
 20
-1.532
 30
0.0
 11
-44.2109999999999985
 21
-0.772
 31
0.0
  0
LINE
  5
146
100
AcDbEntity
100
AcDbLine
  8
0
 62
256
370
-1
  6
ByLayer
 10
-44.2109999999999985
 20
-0.772
 30
0.0
 11
-44.2590000000000003
 21
0.0
 31
0.0
  0
LINE
  5
147
100
AcDbEntity
100
AcDbLine
  8
0
 62
256
370
-1
  6
ByLayer
 10
-25.1460000000000008
 20
0.0
 30
0.0
 11
-25.097999999999999
 21
0.764
 31
0.0
  0
LINE
  5
148
100
AcDbEntity
100
AcDbLine
  8
0
 62
256
370
-1
  6
ByLayer
 10
-25.097999999999999
 20
0.764
 30
0.0
 11
-24.9540000000000006
 21
1.516
 31
0.0
  0
LINE
  5
149
100
AcDbEntity
100
AcDbLine
  8
0
 62
256
370
-1
  6
ByLayer
 10
-24.9540000000000006
 20
1.516
 30
0.0
 11
-24.718
 21
2.2440000000000002
 31
0.0
  0
LINE
  5
14A
100
AcDbEntity
100
AcDbLine
  8
0
 62
256
370
-1
  6
ByLayer
 10
-24.718
 20
2.2440000000000002
 30
0.0
 11
-24.3919999999999995
 21
2.9369999999999998
 31
0.0
  0
LINE
  5
14B
100
AcDbEntity
100
AcDbLine
  8
0
 62
256
370
-1
  6
ByLayer
 10
-24.3919999999999995
 20
2.9369999999999998
 30
0.0
 11
-23.9819999999999993
 21
3.5830000000000002
 31
0.0
  0
LINE
  5
14C
100
AcDbEntity
100
AcDbLine
  8
0
 62
256
370
-1
  6
ByLayer
 10
-23.9819999999999993
 20
3.5830000000000002
 30
0.0
 11
-23.4939999999999998
 21
4.173
 31
0.0
  0
LINE
  5
14D
100
AcDbEntity
100
AcDbLine
  8
0
 62
256
370
-1
  6
ByLayer
 10
-23.4939999999999998
 20
4.173
 30
0.0
 11
-22.9359999999999999
 21
4.6970000000000001
 31
0.0
  0
LINE
  5
14E
100
AcDbEntity
100
AcDbLine
  8
0
 62
256
370
-1
  6
ByLayer
 10
-22.9359999999999999
 20
4.6970000000000001
 30
0.0
 11
-22.3159999999999989
 21
5.1470000000000002
 31
0.0
  0
LINE
  5
14F
100
AcDbEntity
100
AcDbLine
  8
0
 62
256
370
-1
  6
ByLayer
 10
-22.3159999999999989
 20
5.1470000000000002
 30
0.0
 11
-21.6460000000000008
 21
5.516
 31
0.0
  0
LINE
  5
150
100
AcDbEntity
100
AcDbLine
  8
0
 62
256
370
-1
  6
ByLayer
 10
-21.6460000000000008
 20
5.516
 30
0.0
 11
-20.9340000000000011
 21
5.798
 31
0.0
  0
LINE
  5
151
100
AcDbEntity
100
AcDbLine
  8
0
 62
256
370
-1
  6
ByLayer
 10
-20.9340000000000011
 20
5.798
 30
0.0
 11
-20.1920000000000002
 21
5.9880000000000004
 31
0.0
  0
LINE
  5
152
100
AcDbEntity
100
AcDbLine
  8
0
 62
256
370
-1
  6
ByLayer
 10
-20.1920000000000002
 20
5.9880000000000004
 30
0.0
 11
-19.4329999999999998
 21
6.0839999999999996
 31
0.0
  0
LINE
  5
153
100
AcDbEntity
100
AcDbLine
  8
0
 62
256
370
-1
  6
ByLayer
 10
-19.4329999999999998
 20
6.0839999999999996
 30
0.0
 11
-18.6670000000000016
 21
6.0839999999999996
 31
0.0
  0
LINE
  5
154
100
AcDbEntity
100
AcDbLine
  8
0
 62
256
370
-1
  6
ByLayer
 10
-18.6670000000000016
 20
6.0839999999999996
 30
0.0
 11
-17.9080000000000013
 21
5.9880000000000004
 31
0.0
  0
LINE
  5
155
100
AcDbEntity
100
AcDbLine
  8
0
 62
256
370
-1
  6
ByLayer
 10
-17.9080000000000013
 20
5.9880000000000004
 30
0.0
 11
-17.1660000000000004
 21
5.798
 31
0.0
  0
LINE
  5
156
100
AcDbEntity
100
AcDbLine
  8
0
 62
256
370
-1
  6
ByLayer
 10
-17.1660000000000004
 20
5.798
 30
0.0
 11
-16.4540000000000006
 21
5.516
 31
0.0
  0
LINE
  5
157
100
AcDbEntity
100
AcDbLine
  8
0
 62
256
370
-1
  6
ByLayer
 10
-16.4540000000000006
 20
5.516
 30
0.0
 11
-15.7840000000000007
 21
5.1470000000000002
 31
0.0
  0
LINE
  5
158
100
AcDbEntity
100
AcDbLine
  8
0
 62
256
370
-1
  6
ByLayer
 10
-15.7840000000000007
 20
5.1470000000000002
 30
0.0
 11
-15.1639999999999997
 21
4.6970000000000001
 31
0.0
  0
LINE
  5
159
100
AcDbEntity
100
AcDbLine
  8
0
 62
256
370
-1
  6
ByLayer
 10
-15.1639999999999997
 20
4.6970000000000001
 30
0.0
 11
-14.6059999999999999
 21
4.173
 31
0.0
  0
LINE
  5
15A
100
AcDbEntity
100
AcDbLine
  8
0
 62
256
370
-1
  6
ByLayer
 10
-14.6059999999999999
 20
4.173
 30
0.0
 11
-14.1180000000000003
 21
3.5830000000000002
 31
0.0
  0
LINE
  5
15B
100
AcDbEntity
100
AcDbLine
  8
0
 62
256
370
-1
  6
ByLayer
 10
-14.1180000000000003
 20
3.5830000000000002
 30
0.0
 11
-13.7080000000000002
 21
2.9369999999999998
 31
0.0
  0
LINE
  5
15C
100
AcDbEntity
100
AcDbLine
  8
0
 62
256
370
-1
  6
ByLayer
 10
-13.7080000000000002
 20
2.9369999999999998
 30
0.0
 11
-13.3819999999999997
 21
2.2440000000000002
 31
0.0
  0
LINE
  5
15D
100
AcDbEntity
100
AcDbLine
  8
0
 62
256
370
-1
  6
ByLayer
 10
-13.3819999999999997
 20
2.2440000000000002
 30
0.0
 11
-13.1460000000000008
 21
1.516
 31
0.0
  0
LINE
  5
15E
100
AcDbEntity
100
AcDbLine
  8
0
 62
256
370
-1
  6
ByLayer
 10
-13.1460000000000008
 20
1.516
 30
0.0
 11
-13.0020000000000007
 21
0.764
 31
0.0
  0
LINE
  5
15F
100
AcDbEntity
100
AcDbLine
  8
0
 62
256
370
-1
  6
ByLayer
 10
-13.0020000000000007
 20
0.764
 30
0.0
 11
-12.9540000000000006
 21
0.0
 31
0.0
  0
LINE
  5
160
100
AcDbEntity
100
AcDbLine
  8
0
 62
256
370
-1
  6
ByLayer
 10
-12.9540000000000006
 20
0.0
 30
0.0
 11
-13.0020000000000007
 21
-0.764
 31
0.0
  0
LINE
  5
161
100
AcDbEntity
100
AcDbLine
  8
0
 62
256
370
-1
  6
ByLayer
 10
-13.0020000000000007
 20
-0.764
 30
0.0
 11
-13.1460000000000008
 21
-1.516
 31
0.0
  0
LINE
  5
162
100
AcDbEntity
100
AcDbLine
  8
0
 62
256
370
-1
  6
ByLayer
 10
-13.1460000000000008
 20
-1.516
 30
0.0
 11
-13.3819999999999997
 21
-2.2440000000000002
 31
0.0
  0
LINE
  5
163
100
AcDbEntity
100
AcDbLine
  8
0
 62
256
370
-1
  6
ByLayer
 10
-13.3819999999999997
 20
-2.2440000000000002
 30
0.0
 11
-13.7080000000000002
 21
-2.9369999999999998
 31
0.0
  0
LINE
  5
164
100
AcDbEntity
100
AcDbLine
  8
0
 62
256
370
-1
  6
ByLayer
 10
-13.7080000000000002
 20
-2.9369999999999998
 30
0.0
 11
-14.1180000000000003
 21
-3.5830000000000002
 31
0.0
  0
LINE
  5
165
100
AcDbEntity
100
AcDbLine
  8
0
 62
256
370
-1
  6
ByLayer
 10
-14.1180000000000003
 20
-3.5830000000000002
 30
0.0
 11
-14.6059999999999999
 21
-4.173
 31
0.0
  0
LINE
  5
166
100
AcDbEntity
100
AcDbLine
  8
0
 62
256
370
-1
  6
ByLayer
 10
-14.6059999999999999
 20
-4.173
 30
0.0
 11
-15.1639999999999997
 21
-4.6970000000000001
 31
0.0
  0
LINE
  5
167
100
AcDbEntity
100
AcDbLine
  8
0
 62
256
370
-1
  6
ByLayer
 10
-15.1639999999999997
 20
-4.6970000000000001
 30
0.0
 11
-15.7840000000000007
 21
-5.1470000000000002
 31
0.0
  0
LINE
  5
168
100
AcDbEntity
100
AcDbLine
  8
0
 62
256
370
-1
  6
ByLayer
 10
-15.7840000000000007
 20
-5.1470000000000002
 30
0.0
 11
-16.4540000000000006
 21
-5.516
 31
0.0
  0
LINE
  5
169
100
AcDbEntity
100
AcDbLine
  8
0
 62
256
370
-1
  6
ByLayer
 10
-16.4540000000000006
 20
-5.516
 30
0.0
 11
-17.1660000000000004
 21
-5.798
 31
0.0
  0
LINE
  5
16A
100
AcDbEntity
100
AcDbLine
  8
0
 62
256
370
-1
  6
ByLayer
 10
-17.1660000000000004
 20
-5.798
 30
0.0
 11
-17.9080000000000013
 21
-5.9880000000000004
 31
0.0
  0
LINE
  5
16B
100
AcDbEntity
100
AcDbLine
  8
0
 62
256
370
-1
  6
ByLayer
 10
-17.9080000000000013
 20
-5.9880000000000004
 30
0.0
 11
-18.6670000000000016
 21
-6.0839999999999996
 31
0.0
  0
LINE
  5
16C
100
AcDbEntity
100
AcDbLine
  8
0
 62
256
370
-1
  6
ByLayer
 10
-18.6670000000000016
 20
-6.0839999999999996
 30
0.0
 11
-19.4329999999999998
 21
-6.0839999999999996
 31
0.0
  0
LINE
  5
16D
100
AcDbEntity
100
AcDbLine
  8
0
 62
256
370
-1
  6
ByLayer
 10
-19.4329999999999998
 20
-6.0839999999999996
 30
0.0
 11
-20.1920000000000002
 21
-5.9880000000000004
 31
0.0
  0
LINE
  5
16E
100
AcDbEntity
100
AcDbLine
  8
0
 62
256
370
-1
  6
ByLayer
 10
-20.1920000000000002
 20
-5.9880000000000004
 30
0.0
 11
-20.9340000000000011
 21
-5.798
 31
0.0
  0
LINE
  5
16F
100
AcDbEntity
100
AcDbLine
  8
0
 62
256
370
-1
  6
ByLayer
 10
-20.9340000000000011
 20
-5.798
 30
0.0
 11
-21.6460000000000008
 21
-5.516
 31
0.0
  0
LINE
  5
170
100
AcDbEntity
100
AcDbLine
  8
0
 62
256
370
-1
  6
ByLayer
 10
-21.6460000000000008
 20
-5.516
 30
0.0
 11
-22.3159999999999989
 21
-5.1470000000000002
 31
0.0
  0
LINE
  5
171
100
AcDbEntity
100
AcDbLine
  8
0
 62
256
370
-1
  6
ByLayer
 10
-22.3159999999999989
 20
-5.1470000000000002
 30
0.0
 11
-22.9359999999999999
 21
-4.6970000000000001
 31
0.0
  0
LINE
  5
172
100
AcDbEntity
100
AcDbLine
  8
0
 62
256
370
-1
  6
ByLayer
 10
-22.9359999999999999
 20
-4.6970000000000001
 30
0.0
 11
-23.4939999999999998
 21
-4.173
 31
0.0
  0
LINE
  5
173
100
AcDbEntity
100
AcDbLine
  8
0
 62
256
370
-1
  6
ByLayer
 10
-23.4939999999999998
 20
-4.173
 30
0.0
 11
-23.9819999999999993
 21
-3.5830000000000002
 31
0.0
  0
LINE
  5
174
100
AcDbEntity
100
AcDbLine
  8
0
 62
256
370
-1
  6
ByLayer
 10
-23.9819999999999993
 20
-3.5830000000000002
 30
0.0
 11
-24.3919999999999995
 21
-2.9369999999999998
 31
0.0
  0
LINE
  5
175
100
AcDbEntity
100
AcDbLine
  8
0
 62
256
370
-1
  6
ByLayer
 10
-24.3919999999999995
 20
-2.9369999999999998
 30
0.0
 11
-24.718
 21
-2.2440000000000002
 31
0.0
  0
LINE
  5
176
100
AcDbEntity
100
AcDbLine
  8
0
 62
256
370
-1
  6
ByLayer
 10
-24.718
 20
-2.2440000000000002
 30
0.0
 11
-24.9540000000000006
 21
-1.516
 31
0.0
  0
LINE
  5
177
100
AcDbEntity
100
AcDbLine
  8
0
 62
256
370
-1
  6
ByLayer
 10
-24.9540000000000006
 20
-1.516
 30
0.0
 11
-25.097999999999999
 21
-0.764
 31
0.0
  0
LINE
  5
178
100
AcDbEntity
100
AcDbLine
  8
0
 62
256
370
-1
  6
ByLayer
 10
-25.097999999999999
 20
-0.764
 30
0.0
 11
-25.1460000000000008
 21
0.0
 31
0.0
  0
LINE
  5
179
100
AcDbEntity
100
AcDbLine
  8
0
 62
256
370
-1
  6
ByLayer
 10
-6.0330000000000004
 20
0.0
 30
0.0
 11
-5.9850000000000003
 21
0.756
 31
0.0
  0
LINE
  5
17A
100
AcDbEntity
100
AcDbLine
  8
0
 62
256
370
-1
  6
ByLayer
 10
-5.9850000000000003
 20
0.756
 30
0.0
 11
-5.843
 21
1.5
 31
0.0
  0
LINE
  5
17B
100
AcDbEntity
100
AcDbLine
  8
0
 62
256
370
-1
  6
ByLayer
 10
-5.843
 20
1.5
 30
0.0
 11
-5.609
 21
2.2210000000000001
 31
0.0
  0
LINE
  5
17C
100
AcDbEntity
100
AcDbLine
  8
0
 62
256
370
-1
  6
ByLayer
 10
-5.609
 20
2.2210000000000001
 30
0.0
 11
-5.2859999999999996
 21
2.9060000000000001
 31
0.0
  0
LINE
  5
17D
100
AcDbEntity
100
AcDbLine
  8
0
 62
256
370
-1
  6
ByLayer
 10
-5.2859999999999996
 20
2.9060000000000001
 30
0.0
 11
-4.8799999999999999
 21
3.5459999999999998
 31
0.0
  0
LINE
  5
17E
100
AcDbEntity
100
AcDbLine
  8
0
 62
256
370
-1
  6
ByLayer
 10
-4.8799999999999999
 20
3.5459999999999998
 30
0.0
 11
-4.3979999999999997
 21
4.1299999999999999
 31
0.0
  0
LINE
  5
17F
100
AcDbEntity
100
AcDbLine
  8
0
 62
256
370
-1
  6
ByLayer
 10
-4.3979999999999997
 20
4.1299999999999999
 30
0.0
 11
-3.8450000000000002
 21
4.6479999999999997
 31
0.0
  0
LINE
  5
180
100
AcDbEntity
100
AcDbLine
  8
0
 62
256
370
-1
  6
ByLayer
 10
-3.8450000000000002
 20
4.6479999999999997
 30
0.0
 11
-3.2320000000000002
 21
5.093
 31
0.0
  0
LINE
  5
181
100
AcDbEntity
100
AcDbLine
  8
0
 62
256
370
-1
  6
ByLayer
 10
-3.2320000000000002
 20
5.093
 30
0.0
 11
-2.569
 21
5.4580000000000002
 31
0.0
  0
LINE
  5
182
100
AcDbEntity
100
AcDbLine
  8
0
 62
256
370
-1
  6
ByLayer
 10
-2.569
 20
5.4580000000000002
 30
0.0
 11
-1.8640000000000001
 21
5.7370000000000001
 31
0.0
  0
LINE
  5
183
100
AcDbEntity
100
AcDbLine
  8
0
 62
256
370
-1
  6
ByLayer
 10
-1.8640000000000001
 20
5.7370000000000001
 30
0.0
 11
-1.1299999999999999
 21
5.9260000000000002
 31
0.0
  0
LINE
  5
184
100
AcDbEntity
100
AcDbLine
  8
0
 62
256
370
-1
  6
ByLayer
 10
-1.1299999999999999
 20
5.9260000000000002
 30
0.0
 11
-0.379
 21
6.0209999999999999
 31
0.0
  0
LINE
  5
185
100
AcDbEntity
100
AcDbLine
  8
0
 62
256
370
-1
  6
ByLayer
 10
-0.379
 20
6.0209999999999999
 30
0.0
 11
0.379
 21
6.0209999999999999
 31
0.0
  0
LINE
  5
186
100
AcDbEntity
100
AcDbLine
  8
0
 62
256
370
-1
  6
ByLayer
 10
0.379
 20
6.0209999999999999
 30
0.0
 11
1.1299999999999999
 21
5.9260000000000002
 31
0.0
  0
LINE
  5
187
100
AcDbEntity
100
AcDbLine
  8
0
 62
256
370
-1
  6
ByLayer
 10
1.1299999999999999
 20
5.9260000000000002
 30
0.0
 11
1.8640000000000001
 21
5.7370000000000001
 31
0.0
  0
LINE
  5
188
100
AcDbEntity
100
AcDbLine
  8
0
 62
256
370
-1
  6
ByLayer
 10
1.8640000000000001
 20
5.7370000000000001
 30
0.0
 11
2.569
 21
5.4580000000000002
 31
0.0
  0
LINE
  5
189
100
AcDbEntity
100
AcDbLine
  8
0
 62
256
370
-1
  6
ByLayer
 10
2.569
 20
5.4580000000000002
 30
0.0
 11
3.2320000000000002
 21
5.093
 31
0.0
  0
LINE
  5
18A
100
AcDbEntity
100
AcDbLine
  8
0
 62
256
370
-1
  6
ByLayer
 10
3.2320000000000002
 20
5.093
 30
0.0
 11
3.8450000000000002
 21
4.6479999999999997
 31
0.0
  0
LINE
  5
18B
100
AcDbEntity
100
AcDbLine
  8
0
 62
256
370
-1
  6
ByLayer
 10
3.8450000000000002
 20
4.6479999999999997
 30
0.0
 11
4.3979999999999997
 21
4.1299999999999999
 31
0.0
  0
LINE
  5
18C
100
AcDbEntity
100
AcDbLine
  8
0
 62
256
370
-1
  6
ByLayer
 10
4.3979999999999997
 20
4.1299999999999999
 30
0.0
 11
4.8799999999999999
 21
3.5459999999999998
 31
0.0
  0
LINE
  5
18D
100
AcDbEntity
100
AcDbLine
  8
0
 62
256
370
-1
  6
ByLayer
 10
4.8799999999999999
 20
3.5459999999999998
 30
0.0
 11
5.2859999999999996
 21
2.9060000000000001
 31
0.0
  0
LINE
  5
18E
100
AcDbEntity
100
AcDbLine
  8
0
 62
256
370
-1
  6
ByLayer
 10
5.2859999999999996
 20
2.9060000000000001
 30
0.0
 11
5.609
 21
2.2210000000000001
 31
0.0
  0
LINE
  5
18F
100
AcDbEntity
100
AcDbLine
  8
0
 62
256
370
-1
  6
ByLayer
 10
5.609
 20
2.2210000000000001
 30
0.0
 11
5.843
 21
1.5
 31
0.0
  0
LINE
  5
190
100
AcDbEntity
100
AcDbLine
  8
0
 62
256
370
-1
  6
ByLayer
 10
5.843
 20
1.5
 30
0.0
 11
5.9850000000000003
 21
0.756
 31
0.0
  0
LINE
  5
191
100
AcDbEntity
100
AcDbLine
  8
0
 62
256
370
-1
  6
ByLayer
 10
5.9850000000000003
 20
0.756
 30
0.0
 11
6.0330000000000004
 21
0.0
 31
0.0
  0
LINE
  5
192
100
AcDbEntity
100
AcDbLine
  8
0
 62
256
370
-1
  6
ByLayer
 10
6.0330000000000004
 20
0.0
 30
0.0
 11
5.9850000000000003
 21
-0.756
 31
0.0
  0
LINE
  5
193
100
AcDbEntity
100
AcDbLine
  8
0
 62
256
370
-1
  6
ByLayer
 10
5.9850000000000003
 20
-0.756
 30
0.0
 11
5.843
 21
-1.5
 31
0.0
  0
LINE
  5
194
100
AcDbEntity
100
AcDbLine
  8
0
 62
256
370
-1
  6
ByLayer
 10
5.843
 20
-1.5
 30
0.0
 11
5.609
 21
-2.2210000000000001
 31
0.0
  0
LINE
  5
195
100
AcDbEntity
100
AcDbLine
  8
0
 62
256
370
-1
  6
ByLayer
 10
5.609
 20
-2.2210000000000001
 30
0.0
 11
5.2859999999999996
 21
-2.9060000000000001
 31
0.0
  0
LINE
  5
196
100
AcDbEntity
100
AcDbLine
  8
0
 62
256
370
-1
  6
ByLayer
 10
5.2859999999999996
 20
-2.9060000000000001
 30
0.0
 11
4.8799999999999999
 21
-3.5459999999999998
 31
0.0
  0
LINE
  5
197
100
AcDbEntity
100
AcDbLine
  8
0
 62
256
370
-1
  6
ByLayer
 10
4.8799999999999999
 20
-3.5459999999999998
 30
0.0
 11
4.3979999999999997
 21
-4.1299999999999999
 31
0.0
  0
LINE
  5
198
100
AcDbEntity
100
AcDbLine
  8
0
 62
256
370
-1
  6
ByLayer
 10
4.3979999999999997
 20
-4.1299999999999999
 30
0.0
 11
3.8450000000000002
 21
-4.6479999999999997
 31
0.0
  0
LINE
  5
199
100
AcDbEntity
100
AcDbLine
  8
0
 62
256
370
-1
  6
ByLayer
 10
3.8450000000000002
 20
-4.6479999999999997
 30
0.0
 11
3.2320000000000002
 21
-5.093
 31
0.0
  0
LINE
  5
19A
100
AcDbEntity
100
AcDbLine
  8
0
 62
256
370
-1
  6
ByLayer
 10
3.2320000000000002
 20
-5.093
 30
0.0
 11
2.569
 21
-5.4580000000000002
 31
0.0
  0
LINE
  5
19B
100
AcDbEntity
100
AcDbLine
  8
0
 62
256
370
-1
  6
ByLayer
 10
2.569
 20
-5.4580000000000002
 30
0.0
 11
1.8640000000000001
 21
-5.7370000000000001
 31
0.0
  0
LINE
  5
19C
100
AcDbEntity
100
AcDbLine
  8
0
 62
256
370
-1
  6
ByLayer
 10
1.8640000000000001
 20
-5.7370000000000001
 30
0.0
 11
1.1299999999999999
 21
-5.9260000000000002
 31
0.0
  0
LINE
  5
19D
100
AcDbEntity
100
AcDbLine
  8
0
 62
256
370
-1
  6
ByLayer
 10
1.1299999999999999
 20
-5.9260000000000002
 30
0.0
 11
0.379
 21
-6.0209999999999999
 31
0.0
  0
LINE
  5
19E
100
AcDbEntity
100
AcDbLine
  8
0
 62
256
370
-1
  6
ByLayer
 10
0.379
 20
-6.0209999999999999
 30
0.0
 11
-0.379
 21
-6.0209999999999999
 31
0.0
  0
LINE
  5
19F
100
AcDbEntity
100
AcDbLine
  8
0
 62
256
370
-1
  6
ByLayer
 10
-0.379
 20
-6.0209999999999999
 30
0.0
 11
-1.1299999999999999
 21
-5.9260000000000002
 31
0.0
  0
LINE
  5
1A0
100
AcDbEntity
100
AcDbLine
  8
0
 62
256
370
-1
  6
ByLayer
 10
-1.1299999999999999
 20
-5.9260000000000002
 30
0.0
 11
-1.8640000000000001
 21
-5.7370000000000001
 31
0.0
  0
LINE
  5
1A1
100
AcDbEntity
100
AcDbLine
  8
0
 62
256
370
-1
  6
ByLayer
 10
-1.8640000000000001
 20
-5.7370000000000001
 30
0.0
 11
-2.569
 21
-5.4580000000000002
 31
0.0
  0
LINE
  5
1A2
100
AcDbEntity
100
AcDbLine
  8
0
 62
256
370
-1
  6
ByLayer
 10
-2.569
 20
-5.4580000000000002
 30
0.0
 11
-3.2320000000000002
 21
-5.093
 31
0.0
  0
LINE
  5
1A3
100
AcDbEntity
100
AcDbLine
  8
0
 62
256
370
-1
  6
ByLayer
 10
-3.2320000000000002
 20
-5.093
 30
0.0
 11
-3.8450000000000002
 21
-4.6479999999999997
 31
0.0
  0
LINE
  5
1A4
100
AcDbEntity
100
AcDbLine
  8
0
 62
256
370
-1
  6
ByLayer
 10
-3.8450000000000002
 20
-4.6479999999999997
 30
0.0
 11
-4.3979999999999997
 21
-4.1299999999999999
 31
0.0
  0
LINE
  5
1A5
100
AcDbEntity
100
AcDbLine
  8
0
 62
256
370
-1
  6
ByLayer
 10
-4.3979999999999997
 20
-4.1299999999999999
 30
0.0
 11
-4.8799999999999999
 21
-3.5459999999999998
 31
0.0
  0
LINE
  5
1A6
100
AcDbEntity
100
AcDbLine
  8
0
 62
256
370
-1
  6
ByLayer
 10
-4.8799999999999999
 20
-3.5459999999999998
 30
0.0
 11
-5.2859999999999996
 21
-2.9060000000000001
 31
0.0
  0
LINE
  5
1A7
100
AcDbEntity
100
AcDbLine
  8
0
 62
256
370
-1
  6
ByLayer
 10
-5.2859999999999996
 20
-2.9060000000000001
 30
0.0
 11
-5.609
 21
-2.2210000000000001
 31
0.0
  0
LINE
  5
1A8
100
AcDbEntity
100
AcDbLine
  8
0
 62
256
370
-1
  6
ByLayer
 10
-5.609
 20
-2.2210000000000001
 30
0.0
 11
-5.843
 21
-1.5
 31
0.0
  0
LINE
  5
1A9
100
AcDbEntity
100
AcDbLine
  8
0
 62
256
370
-1
  6
ByLayer
 10
-5.843
 20
-1.5
 30
0.0
 11
-5.9850000000000003
 21
-0.756
 31
0.0
  0
LINE
  5
1AA
100
AcDbEntity
100
AcDbLine
  8
0
 62
256
370
-1
  6
ByLayer
 10
-5.9850000000000003
 20
-0.756
 30
0.0
 11
-6.0330000000000004
 21
0.0
 31
0.0
  0
LINE
  5
1AB
100
AcDbEntity
100
AcDbLine
  8
0
 62
256
370
-1
  6
ByLayer
 10
13.0809999999999995
 20
0.0
 30
0.0
 11
13.1280000000000001
 21
0.748
 31
0.0
  0
LINE
  5
1AC
100
AcDbEntity
100
AcDbLine
  8
0
 62
256
370
-1
  6
ByLayer
 10
13.1280000000000001
 20
0.748
 30
0.0
 11
13.2690000000000001
 21
1.484
 31
0.0
  0
LINE
  5
1AD
100
AcDbEntity
100
AcDbLine
  8
0
 62
256
370
-1
  6
ByLayer
 10
13.2690000000000001
 20
1.484
 30
0.0
 11
13.5
 21
2.1970000000000001
 31
0.0
  0
LINE
  5
1AE
100
AcDbEntity
100
AcDbLine
  8
0
 62
256
370
-1
  6
ByLayer
 10
13.5
 20
2.1970000000000001
 30
0.0
 11
13.8190000000000008
 21
2.8759999999999999
 31
0.0
  0
LINE
  5
1AF
100
AcDbEntity
100
AcDbLine
  8
0
 62
256
370
-1
  6
ByLayer
 10
13.8190000000000008
 20
2.8759999999999999
 30
0.0
 11
14.2210000000000001
 21
3.508
 31
0.0
  0
LINE
  5
1B0
100
AcDbEntity
100
AcDbLine
  8
0
 62
256
370
-1
  6
ByLayer
 10
14.2210000000000001
 20
3.508
 30
0.0
 11
14.6989999999999998
 21
4.0860000000000003
 31
0.0
  0
LINE
  5
1B1
100
AcDbEntity
100
AcDbLine
  8
0
 62
256
370
-1
  6
ByLayer
 10
14.6989999999999998
 20
4.0860000000000003
 30
0.0
 11
15.2449999999999992
 21
4.5990000000000002
 31
0.0
  0
LINE
  5
1B2
100
AcDbEntity
100
AcDbLine
  8
0
 62
256
370
-1
  6
ByLayer
 10
15.2449999999999992
 20
4.5990000000000002
 30
0.0
 11
15.8520000000000003
 21
5.04
 31
0.0
  0
LINE
  5
1B3
100
AcDbEntity
100
AcDbLine
  8
0
 62
256
370
-1
  6
ByLayer
 10
15.8520000000000003
 20
5.04
 30
0.0
 11
16.5090000000000003
 21
5.4009999999999998
 31
0.0
  0
LINE
  5
1B4
100
AcDbEntity
100
AcDbLine
  8
0
 62
256
370
-1
  6
ByLayer
 10
16.5090000000000003
 20
5.4009999999999998
 30
0.0
 11
17.2049999999999983
 21
5.6769999999999996
 31
0.0
  0
LINE
  5
1B5
100
AcDbEntity
100
AcDbLine
  8
0
 62
256
370
-1
  6
ByLayer
 10
17.2049999999999983
 20
5.6769999999999996
 30
0.0
 11
17.9319999999999986
 21
5.8630000000000004
 31
0.0
  0
LINE
  5
1B6
100
AcDbEntity
100
AcDbLine
  8
0
 62
256
370
-1
  6
ByLayer
 10
17.9319999999999986
 20
5.8630000000000004
 30
0.0
 11
18.6750000000000007
 21
5.9569999999999999
 31
0.0
  0
LINE
  5
1B7
100
AcDbEntity
100
AcDbLine
  8
0
 62
256
370
-1
  6
ByLayer
 10
18.6750000000000007
 20
5.9569999999999999
 30
0.0
 11
19.4250000000000007
 21
5.9569999999999999
 31
0.0
  0
LINE
  5
1B8
100
AcDbEntity
100
AcDbLine
  8
0
 62
256
370
-1
  6
ByLayer
 10
19.4250000000000007
 20
5.9569999999999999
 30
0.0
 11
20.1679999999999993
 21
5.8630000000000004
 31
0.0
  0
LINE
  5
1B9
100
AcDbEntity
100
AcDbLine
  8
0
 62
256
370
-1
  6
ByLayer
 10
20.1679999999999993
 20
5.8630000000000004
 30
0.0
 11
20.8949999999999996
 21
5.6769999999999996
 31
0.0
  0
LINE
  5
1BA
100
AcDbEntity
100
AcDbLine
  8
0
 62
256
370
-1
  6
ByLayer
 10
20.8949999999999996
 20
5.6769999999999996
 30
0.0
 11
21.5910000000000011
 21
5.4009999999999998
 31
0.0
  0
LINE
  5
1BB
100
AcDbEntity
100
AcDbLine
  8
0
 62
256
370
-1
  6
ByLayer
 10
21.5910000000000011
 20
5.4009999999999998
 30
0.0
 11
22.2480000000000011
 21
5.04
 31
0.0
  0
LINE
  5
1BC
100
AcDbEntity
100
AcDbLine
  8
0
 62
256
370
-1
  6
ByLayer
 10
22.2480000000000011
 20
5.04
 30
0.0
 11
22.8550000000000004
 21
4.5990000000000002
 31
0.0
  0
LINE
  5
1BD
100
AcDbEntity
100
AcDbLine
  8
0
 62
256
370
-1
  6
ByLayer
 10
22.8550000000000004
 20
4.5990000000000002
 30
0.0
 11
23.4009999999999998
 21
4.0860000000000003
 31
0.0
  0
LINE
  5
1BE
100
AcDbEntity
100
AcDbLine
  8
0
 62
256
370
-1
  6
ByLayer
 10
23.4009999999999998
 20
4.0860000000000003
 30
0.0
 11
23.8790000000000013
 21
3.508
 31
0.0
  0
LINE
  5
1BF
100
AcDbEntity
100
AcDbLine
  8
0
 62
256
370
-1
  6
ByLayer
 10
23.8790000000000013
 20
3.508
 30
0.0
 11
24.2809999999999988
 21
2.8759999999999999
 31
0.0
  0
LINE
  5
1C0
100
AcDbEntity
100
AcDbLine
  8
0
 62
256
370
-1
  6
ByLayer
 10
24.2809999999999988
 20
2.8759999999999999
 30
0.0
 11
24.6000000000000014
 21
2.1970000000000001
 31
0.0
  0
LINE
  5
1C1
100
AcDbEntity
100
AcDbLine
  8
0
 62
256
370
-1
  6
ByLayer
 10
24.6000000000000014
 20
2.1970000000000001
 30
0.0
 11
24.8309999999999995
 21
1.484
 31
0.0
  0
LINE
  5
1C2
100
AcDbEntity
100
AcDbLine
  8
0
 62
256
370
-1
  6
ByLayer
 10
24.8309999999999995
 20
1.484
 30
0.0
 11
24.9720000000000013
 21
0.748
 31
0.0
  0
LINE
  5
1C3
100
AcDbEntity
100
AcDbLine
  8
0
 62
256
370
-1
  6
ByLayer
 10
24.9720000000000013
 20
0.748
 30
0.0
 11
25.0189999999999984
 21
0.0
 31
0.0
  0
LINE
  5
1C4
100
AcDbEntity
100
AcDbLine
  8
0
 62
256
370
-1
  6
ByLayer
 10
25.0189999999999984
 20
0.0
 30
0.0
 11
24.9720000000000013
 21
-0.748
 31
0.0
  0
LINE
  5
1C5
100
AcDbEntity
100
AcDbLine
  8
0
 62
256
370
-1
  6
ByLayer
 10
24.9720000000000013
 20
-0.748
 30
0.0
 11
24.8309999999999995
 21
-1.484
 31
0.0
  0
LINE
  5
1C6
100
AcDbEntity
100
AcDbLine
  8
0
 62
256
370
-1
  6
ByLayer
 10
24.8309999999999995
 20
-1.484
 30
0.0
 11
24.6000000000000014
 21
-2.1970000000000001
 31
0.0
  0
LINE
  5
1C7
100
AcDbEntity
100
AcDbLine
  8
0
 62
256
370
-1
  6
ByLayer
 10
24.6000000000000014
 20
-2.1970000000000001
 30
0.0
 11
24.2809999999999988
 21
-2.8759999999999999
 31
0.0
  0
LINE
  5
1C8
100
AcDbEntity
100
AcDbLine
  8
0
 62
256
370
-1
  6
ByLayer
 10
24.2809999999999988
 20
-2.8759999999999999
 30
0.0
 11
23.8790000000000013
 21
-3.508
 31
0.0
  0
LINE
  5
1C9
100
AcDbEntity
100
AcDbLine
  8
0
 62
256
370
-1
  6
ByLayer
 10
23.8790000000000013
 20
-3.508
 30
0.0
 11
23.4009999999999998
 21
-4.0860000000000003
 31
0.0
  0
LINE
  5
1CA
100
AcDbEntity
100
AcDbLine
  8
0
 62
256
370
-1
  6
ByLayer
 10
23.4009999999999998
 20
-4.0860000000000003
 30
0.0
 11
22.8550000000000004
 21
-4.5990000000000002
 31
0.0
  0
LINE
  5
1CB
100
AcDbEntity
100
AcDbLine
  8
0
 62
256
370
-1
  6
ByLayer
 10
22.8550000000000004
 20
-4.5990000000000002
 30
0.0
 11
22.2480000000000011
 21
-5.04
 31
0.0
  0
LINE
  5
1CC
100
AcDbEntity
100
AcDbLine
  8
0
 62
256
370
-1
  6
ByLayer
 10
22.2480000000000011
 20
-5.04
 30
0.0
 11
21.5910000000000011
 21
-5.4009999999999998
 31
0.0
  0
LINE
  5
1CD
100
AcDbEntity
100
AcDbLine
  8
0
 62
256
370
-1
  6
ByLayer
 10
21.5910000000000011
 20
-5.4009999999999998
 30
0.0
 11
20.8949999999999996
 21
-5.6769999999999996
 31
0.0
  0
LINE
  5
1CE
100
AcDbEntity
100
AcDbLine
  8
0
 62
256
370
-1
  6
ByLayer
 10
20.8949999999999996
 20
-5.6769999999999996
 30
0.0
 11
20.1679999999999993
 21
-5.8630000000000004
 31
0.0
  0
LINE
  5
1CF
100
AcDbEntity
100
AcDbLine
  8
0
 62
256
370
-1
  6
ByLayer
 10
20.1679999999999993
 20
-5.8630000000000004
 30
0.0
 11
19.4250000000000007
 21
-5.9569999999999999
 31
0.0
  0
LINE
  5
1D0
100
AcDbEntity
100
AcDbLine
  8
0
 62
256
370
-1
  6
ByLayer
 10
19.4250000000000007
 20
-5.9569999999999999
 30
0.0
 11
18.6750000000000007
 21
-5.9569999999999999
 31
0.0
  0
LINE
  5
1D1
100
AcDbEntity
100
AcDbLine
  8
0
 62
256
370
-1
  6
ByLayer
 10
18.6750000000000007
 20
-5.9569999999999999
 30
0.0
 11
17.9319999999999986
 21
-5.8630000000000004
 31
0.0
  0
LINE
  5
1D2
100
AcDbEntity
100
AcDbLine
  8
0
 62
256
370
-1
  6
ByLayer
 10
17.9319999999999986
 20
-5.8630000000000004
 30
0.0
 11
17.2049999999999983
 21
-5.6769999999999996
 31
0.0
  0
LINE
  5
1D3
100
AcDbEntity
100
AcDbLine
  8
0
 62
256
370
-1
  6
ByLayer
 10
17.2049999999999983
 20
-5.6769999999999996
 30
0.0
 11
16.5090000000000003
 21
-5.4009999999999998
 31
0.0
  0
LINE
  5
1D4
100
AcDbEntity
100
AcDbLine
  8
0
 62
256
370
-1
  6
ByLayer
 10
16.5090000000000003
 20
-5.4009999999999998
 30
0.0
 11
15.8520000000000003
 21
-5.04
 31
0.0
  0
LINE
  5
1D5
100
AcDbEntity
100
AcDbLine
  8
0
 62
256
370
-1
  6
ByLayer
 10
15.8520000000000003
 20
-5.04
 30
0.0
 11
15.2449999999999992
 21
-4.5990000000000002
 31
0.0
  0
LINE
  5
1D6
100
AcDbEntity
100
AcDbLine
  8
0
 62
256
370
-1
  6
ByLayer
 10
15.2449999999999992
 20
-4.5990000000000002
 30
0.0
 11
14.6989999999999998
 21
-4.0860000000000003
 31
0.0
  0
LINE
  5
1D7
100
AcDbEntity
100
AcDbLine
  8
0
 62
256
370
-1
  6
ByLayer
 10
14.6989999999999998
 20
-4.0860000000000003
 30
0.0
 11
14.2210000000000001
 21
-3.508
 31
0.0
  0
LINE
  5
1D8
100
AcDbEntity
100
AcDbLine
  8
0
 62
256
370
-1
  6
ByLayer
 10
14.2210000000000001
 20
-3.508
 30
0.0
 11
13.8190000000000008
 21
-2.8759999999999999
 31
0.0
  0
LINE
  5
1D9
100
AcDbEntity
100
AcDbLine
  8
0
 62
256
370
-1
  6
ByLayer
 10
13.8190000000000008
 20
-2.8759999999999999
 30
0.0
 11
13.5
 21
-2.1970000000000001
 31
0.0
  0
LINE
  5
1DA
100
AcDbEntity
100
AcDbLine
  8
0
 62
256
370
-1
  6
ByLayer
 10
13.5
 20
-2.1970000000000001
 30
0.0
 11
13.2690000000000001
 21
-1.484
 31
0.0
  0
LINE
  5
1DB
100
AcDbEntity
100
AcDbLine
  8
0
 62
256
370
-1
  6
ByLayer
 10
13.2690000000000001
 20
-1.484
 30
0.0
 11
13.1280000000000001
 21
-0.748
 31
0.0
  0
LINE
  5
1DC
100
AcDbEntity
100
AcDbLine
  8
0
 62
256
370
-1
  6
ByLayer
 10
13.1280000000000001
 20
-0.748
 30
0.0
 11
13.0809999999999995
 21
0.0
 31
0.0
  0
LINE
  5
1DD
100
AcDbEntity
100
AcDbLine
  8
0
 62
256
370
-1
  6
ByLayer
 10
32.1940000000000026
 20
0.0
 30
0.0
 11
32.2409999999999997
 21
0.74
 31
0.0
  0
LINE
  5
1DE
100
AcDbEntity
100
AcDbLine
  8
0
 62
256
370
-1
  6
ByLayer
 10
32.2409999999999997
 20
0.74
 30
0.0
 11
32.3800000000000026
 21
1.4690000000000001
 31
0.0
  0
LINE
  5
1DF
100
AcDbEntity
100
AcDbLine
  8
0
 62
256
370
-1
  6
ByLayer
 10
32.3800000000000026
 20
1.4690000000000001
 30
0.0
 11
32.6090000000000018
 21
2.1739999999999999
 31
0.0
  0
LINE
  5
1E0
100
AcDbEntity
100
AcDbLine
  8
0
 62
256
370
-1
  6
ByLayer
 10
32.6090000000000018
 20
2.1739999999999999
 30
0.0
 11
32.9249999999999972
 21
2.8450000000000002
 31
0.0
  0
LINE
  5
1E1
100
AcDbEntity
100
AcDbLine
  8
0
 62
256
370
-1
  6
ByLayer
 10
32.9249999999999972
 20
2.8450000000000002
 30
0.0
 11
33.3220000000000027
 21
3.4710000000000001
 31
0.0
  0
LINE
  5
1E2
100
AcDbEntity
100
AcDbLine
  8
0
 62
256
370
-1
  6
ByLayer
 10
33.3220000000000027
 20
3.4710000000000001
 30
0.0
 11
33.7950000000000017
 21
4.0430000000000001
 31
0.0
  0
LINE
  5
1E3
100
AcDbEntity
100
AcDbLine
  8
0
 62
256
370
-1
  6
ByLayer
 10
33.7950000000000017
 20
4.0430000000000001
 30
0.0
 11
34.3359999999999985
 21
4.5499999999999998
 31
0.0
  0
LINE
  5
1E4
100
AcDbEntity
100
AcDbLine
  8
0
 62
256
370
-1
  6
ByLayer
 10
34.3359999999999985
 20
4.5499999999999998
 30
0.0
 11
34.9359999999999999
 21
4.9859999999999998
 31
0.0
  0
LINE
  5
1E5
100
AcDbEntity
100
AcDbLine
  8
0
 62
256
370
-1
  6
ByLayer
 10
34.9359999999999999
 20
4.9859999999999998
 30
0.0
 11
35.5859999999999985
 21
5.343
 31
0.0
  0
LINE
  5
1E6
100
AcDbEntity
100
AcDbLine
  8
0
 62
256
370
-1
  6
ByLayer
 10
35.5859999999999985
 20
5.343
 30
0.0
 11
36.2749999999999986
 21
5.6159999999999997
 31
0.0
  0
LINE
  5
1E7
100
AcDbEntity
100
AcDbLine
  8
0
 62
256
370
-1
  6
ByLayer
 10
36.2749999999999986
 20
5.6159999999999997
 30
0.0
 11
36.9930000000000021
 21
5.8010000000000002
 31
0.0
  0
LINE
  5
1E8
100
AcDbEntity
100
AcDbLine
  8
0
 62
256
370
-1
  6
ByLayer
 10
36.9930000000000021
 20
5.8010000000000002
 30
0.0
 11
37.7289999999999992
 21
5.8940000000000001
 31
0.0
  0
LINE
  5
1E9
100
AcDbEntity
100
AcDbLine
  8
0
 62
256
370
-1
  6
ByLayer
 10
37.7289999999999992
 20
5.8940000000000001
 30
0.0
 11
38.4709999999999965
 21
5.8940000000000001
 31
0.0
  0
LINE
  5
1EA
100
AcDbEntity
100
AcDbLine
  8
0
 62
256
370
-1
  6
ByLayer
 10
38.4709999999999965
 20
5.8940000000000001
 30
0.0
 11
39.2070000000000007
 21
5.8010000000000002
 31
0.0
  0
LINE
  5
1EB
100
AcDbEntity
100
AcDbLine
  8
0
 62
256
370
-1
  6
ByLayer
 10
39.2070000000000007
 20
5.8010000000000002
 30
0.0
 11
39.9249999999999972
 21
5.6159999999999997
 31
0.0
  0
LINE
  5
1EC
100
AcDbEntity
100
AcDbLine
  8
0
 62
256
370
-1
  6
ByLayer
 10
39.9249999999999972
 20
5.6159999999999997
 30
0.0
 11
40.6139999999999972
 21
5.343
 31
0.0
  0
LINE
  5
1ED
100
AcDbEntity
100
AcDbLine
  8
0
 62
256
370
-1
  6
ByLayer
 10
40.6139999999999972
 20
5.343
 30
0.0
 11
41.2640000000000029
 21
4.9859999999999998
 31
0.0
  0
LINE
  5
1EE
100
AcDbEntity
100
AcDbLine
  8
0
 62
256
370
-1
  6
ByLayer
 10
41.2640000000000029
 20
4.9859999999999998
 30
0.0
 11
41.8639999999999972
 21
4.5499999999999998
 31
0.0
  0
LINE
  5
1EF
100
AcDbEntity
100
AcDbLine
  8
0
 62
256
370
-1
  6
ByLayer
 10
41.8639999999999972
 20
4.5499999999999998
 30
0.0
 11
42.4050000000000011
 21
4.0430000000000001
 31
0.0
  0
LINE
  5
1F0
100
AcDbEntity
100
AcDbLine
  8
0
 62
256
370
-1
  6
ByLayer
 10
42.4050000000000011
 20
4.0430000000000001
 30
0.0
 11
42.8780000000000001
 21
3.4710000000000001
 31
0.0
  0
LINE
  5
1F1
100
AcDbEntity
100
AcDbLine
  8
0
 62
256
370
-1
  6
ByLayer
 10
42.8780000000000001
 20
3.4710000000000001
 30
0.0
 11
43.2749999999999986
 21
2.8450000000000002
 31
0.0
  0
LINE
  5
1F2
100
AcDbEntity
100
AcDbLine
  8
0
 62
256
370
-1
  6
ByLayer
 10
43.2749999999999986
 20
2.8450000000000002
 30
0.0
 11
43.5910000000000011
 21
2.1739999999999999
 31
0.0
  0
LINE
  5
1F3
100
AcDbEntity
100
AcDbLine
  8
0
 62
256
370
-1
  6
ByLayer
 10
43.5910000000000011
 20
2.1739999999999999
 30
0.0
 11
43.8200000000000003
 21
1.4690000000000001
 31
0.0
  0
LINE
  5
1F4
100
AcDbEntity
100
AcDbLine
  8
0
 62
256
370
-1
  6
ByLayer
 10
43.8200000000000003
 20
1.4690000000000001
 30
0.0
 11
43.9590000000000032
 21
0.74
 31
0.0
  0
LINE
  5
1F5
100
AcDbEntity
100
AcDbLine
  8
0
 62
256
370
-1
  6
ByLayer
 10
43.9590000000000032
 20
0.74
 30
0.0
 11
44.0060000000000002
 21
0.0
 31
0.0
  0
LINE
  5
1F6
100
AcDbEntity
100
AcDbLine
  8
0
 62
256
370
-1
  6
ByLayer
 10
44.0060000000000002
 20
0.0
 30
0.0
 11
43.9590000000000032
 21
-0.74
 31
0.0
  0
LINE
  5
1F7
100
AcDbEntity
100
AcDbLine
  8
0
 62
256
370
-1
  6
ByLayer
 10
43.9590000000000032
 20
-0.74
 30
0.0
 11
43.8200000000000003
 21
-1.4690000000000001
 31
0.0
  0
LINE
  5
1F8
100
AcDbEntity
100
AcDbLine
  8
0
 62
256
370
-1
  6
ByLayer
 10
43.8200000000000003
 20
-1.4690000000000001
 30
0.0
 11
43.5910000000000011
 21
-2.1739999999999999
 31
0.0
  0
LINE
  5
1F9
100
AcDbEntity
100
AcDbLine
  8
0
 62
256
370
-1
  6
ByLayer
 10
43.5910000000000011
 20
-2.1739999999999999
 30
0.0
 11
43.2749999999999986
 21
-2.8450000000000002
 31
0.0
  0
LINE
  5
1FA
100
AcDbEntity
100
AcDbLine
  8
0
 62
256
370
-1
  6
ByLayer
 10
43.2749999999999986
 20
-2.8450000000000002
 30
0.0
 11
42.8780000000000001
 21
-3.4710000000000001
 31
0.0
  0
LINE
  5
1FB
100
AcDbEntity
100
AcDbLine
  8
0
 62
256
370
-1
  6
ByLayer
 10
42.8780000000000001
 20
-3.4710000000000001
 30
0.0
 11
42.4050000000000011
 21
-4.0430000000000001
 31
0.0
  0
LINE
  5
1FC
100
AcDbEntity
100
AcDbLine
  8
0
 62
256
370
-1
  6
ByLayer
 10
42.4050000000000011
 20
-4.0430000000000001
 30
0.0
 11
41.8639999999999972
 21
-4.5499999999999998
 31
0.0
  0
LINE
  5
1FD
100
AcDbEntity
100
AcDbLine
  8
0
 62
256
370
-1
  6
ByLayer
 10
41.8639999999999972
 20
-4.5499999999999998
 30
0.0
 11
41.2640000000000029
 21
-4.9859999999999998
 31
0.0
  0
LINE
  5
1FE
100
AcDbEntity
100
AcDbLine
  8
0
 62
256
370
-1
  6
ByLayer
 10
41.2640000000000029
 20
-4.9859999999999998
 30
0.0
 11
40.6139999999999972
 21
-5.343
 31
0.0
  0
LINE
  5
1FF
100
AcDbEntity
100
AcDbLine
  8
0
 62
256
370
-1
  6
ByLayer
 10
40.6139999999999972
 20
-5.343
 30
0.0
 11
39.9249999999999972
 21
-5.6159999999999997
 31
0.0
  0
LINE
  5
200
100
AcDbEntity
100
AcDbLine
  8
0
 62
256
370
-1
  6
ByLayer
 10
39.9249999999999972
 20
-5.6159999999999997
 30
0.0
 11
39.2070000000000007
 21
-5.8010000000000002
 31
0.0
  0
LINE
  5
201
100
AcDbEntity
100
AcDbLine
  8
0
 62
256
370
-1
  6
ByLayer
 10
39.2070000000000007
 20
-5.8010000000000002
 30
0.0
 11
38.4709999999999965
 21
-5.8940000000000001
 31
0.0
  0
LINE
  5
202
100
AcDbEntity
100
AcDbLine
  8
0
 62
256
370
-1
  6
ByLayer
 10
38.4709999999999965
 20
-5.8940000000000001
 30
0.0
 11
37.7289999999999992
 21
-5.8940000000000001
 31
0.0
  0
LINE
  5
203
100
AcDbEntity
100
AcDbLine
  8
0
 62
256
370
-1
  6
ByLayer
 10
37.7289999999999992
 20
-5.8940000000000001
 30
0.0
 11
36.9930000000000021
 21
-5.8010000000000002
 31
0.0
  0
LINE
  5
204
100
AcDbEntity
100
AcDbLine
  8
0
 62
256
370
-1
  6
ByLayer
 10
36.9930000000000021
 20
-5.8010000000000002
 30
0.0
 11
36.2749999999999986
 21
-5.6159999999999997
 31
0.0
  0
LINE
  5
205
100
AcDbEntity
100
AcDbLine
  8
0
 62
256
370
-1
  6
ByLayer
 10
36.2749999999999986
 20
-5.6159999999999997
 30
0.0
 11
35.5859999999999985
 21
-5.343
 31
0.0
  0
LINE
  5
206
100
AcDbEntity
100
AcDbLine
  8
0
 62
256
370
-1
  6
ByLayer
 10
35.5859999999999985
 20
-5.343
 30
0.0
 11
34.9359999999999999
 21
-4.9859999999999998
 31
0.0
  0
LINE
  5
207
100
AcDbEntity
100
AcDbLine
  8
0
 62
256
370
-1
  6
ByLayer
 10
34.9359999999999999
 20
-4.9859999999999998
 30
0.0
 11
34.3359999999999985
 21
-4.5499999999999998
 31
0.0
  0
LINE
  5
208
100
AcDbEntity
100
AcDbLine
  8
0
 62
256
370
-1
  6
ByLayer
 10
34.3359999999999985
 20
-4.5499999999999998
 30
0.0
 11
33.7950000000000017
 21
-4.0430000000000001
 31
0.0
  0
LINE
  5
209
100
AcDbEntity
100
AcDbLine
  8
0
 62
256
370
-1
  6
ByLayer
 10
33.7950000000000017
 20
-4.0430000000000001
 30
0.0
 11
33.3220000000000027
 21
-3.4710000000000001
 31
0.0
  0
LINE
  5
20A
100
AcDbEntity
100
AcDbLine
  8
0
 62
256
370
-1
  6
ByLayer
 10
33.3220000000000027
 20
-3.4710000000000001
 30
0.0
 11
32.9249999999999972
 21
-2.8450000000000002
 31
0.0
  0
LINE
  5
20B
100
AcDbEntity
100
AcDbLine
  8
0
 62
256
370
-1
  6
ByLayer
 10
32.9249999999999972
 20
-2.8450000000000002
 30
0.0
 11
32.6090000000000018
 21
-2.1739999999999999
 31
0.0
  0
LINE
  5
20C
100
AcDbEntity
100
AcDbLine
  8
0
 62
256
370
-1
  6
ByLayer
 10
32.6090000000000018
 20
-2.1739999999999999
 30
0.0
 11
32.3800000000000026
 21
-1.4690000000000001
 31
0.0
  0
LINE
  5
20D
100
AcDbEntity
100
AcDbLine
  8
0
 62
256
370
-1
  6
ByLayer
 10
32.3800000000000026
 20
-1.4690000000000001
 30
0.0
 11
32.2409999999999997
 21
-0.74
 31
0.0
  0
LINE
  5
20E
100
AcDbEntity
100
AcDbLine
  8
0
 62
256
370
-1
  6
ByLayer
 10
32.2409999999999997
 20
-0.74
 30
0.0
 11
32.1940000000000026
 21
0.0
 31
0.0
  0
LINE
  5
20F
100
AcDbEntity
100
AcDbLine
  8
0
 62
256
370
-1
  6
ByLayer
 10
51.3079999999999998
 20
0.0
 30
0.0
 11
51.3539999999999992
 21
0.732
 31
0.0
  0
LINE
  5
210
100
AcDbEntity
100
AcDbLine
  8
0
 62
256
370
-1
  6
ByLayer
 10
51.3539999999999992
 20
0.732
 30
0.0
 11
51.4919999999999973
 21
1.4530000000000001
 31
0.0
  0
LINE
  5
211
100
AcDbEntity
100
AcDbLine
  8
0
 62
256
370
-1
  6
ByLayer
 10
51.4919999999999973
 20
1.4530000000000001
 30
0.0
 11
51.7180000000000035
 21
2.1509999999999998
 31
0.0
  0
LINE
  5
212
100
AcDbEntity
100
AcDbLine
  8
0
 62
256
370
-1
  6
ByLayer
 10
51.7180000000000035
 20
2.1509999999999998
 30
0.0
 11
52.0309999999999988
 21
2.8140000000000001
 31
0.0
  0
LINE
  5
213
100
AcDbEntity
100
AcDbLine
  8
0
 62
256
370
-1
  6
ByLayer
 10
52.0309999999999988
 20
2.8140000000000001
 30
0.0
 11
52.4239999999999995
 21
3.4340000000000002
 31
0.0
  0
LINE
  5
214
100
AcDbEntity
100
AcDbLine
  8
0
 62
256
370
-1
  6
ByLayer
 10
52.4239999999999995
 20
3.4340000000000002
 30
0.0
 11
52.8909999999999982
 21
3.9990000000000001
 31
0.0
  0
LINE
  5
215
100
AcDbEntity
100
AcDbLine
  8
0
 62
256
370
-1
  6
ByLayer
 10
52.8909999999999982
 20
3.9990000000000001
 30
0.0
 11
53.4260000000000019
 21
4.5010000000000003
 31
0.0
  0
LINE
  5
216
100
AcDbEntity
100
AcDbLine
  8
0
 62
256
370
-1
  6
ByLayer
 10
53.4260000000000019
 20
4.5010000000000003
 30
0.0
 11
54.0200000000000031
 21
4.9329999999999998
 31
0.0
  0
LINE
  5
217
100
AcDbEntity
100
AcDbLine
  8
0
 62
256
370
-1
  6
ByLayer
 10
54.0200000000000031
 20
4.9329999999999998
 30
0.0
 11
54.6629999999999967
 21
5.2859999999999996
 31
0.0
  0
LINE
  5
218
100
AcDbEntity
100
AcDbLine
  8
0
 62
256
370
-1
  6
ByLayer
 10
54.6629999999999967
 20
5.2859999999999996
 30
0.0
 11
55.3449999999999989
 21
5.556
 31
0.0
  0
LINE
  5
219
100
AcDbEntity
100
AcDbLine
  8
0
 62
256
370
-1
  6
ByLayer
 10
55.3449999999999989
 20
5.556
 30
0.0
 11
56.0549999999999997
 21
5.7389999999999999
 31
0.0
  0
LINE
  5
21A
100
AcDbEntity
100
AcDbLine
  8
0
 62
256
370
-1
  6
ByLayer
 10
56.0549999999999997
 20
5.7389999999999999
 30
0.0
 11
56.7830000000000013
 21
5.8300000000000001
 31
0.0
  0
LINE
  5
21B
100
AcDbEntity
100
AcDbLine
  8
0
 62
256
370
-1
  6
ByLayer
 10
56.7830000000000013
 20
5.8300000000000001
 30
0.0
 11
57.517000000000003
 21
5.8300000000000001
 31
0.0
  0
LINE
  5
21C
100
AcDbEntity
100
AcDbLine
  8
0
 62
256
370
-1
  6
ByLayer
 10
57.517000000000003
 20
5.8300000000000001
 30
0.0
 11
58.2449999999999974
 21
5.7389999999999999
 31
0.0
  0
LINE
  5
21D
100
AcDbEntity
100
AcDbLine
  8
0
 62
256
370
-1
  6
ByLayer
 10
58.2449999999999974
 20
5.7389999999999999
 30
0.0
 11
58.9549999999999983
 21
5.556
 31
0.0
  0
LINE
  5
21E
100
AcDbEntity
100
AcDbLine
  8
0
 62
256
370
-1
  6
ByLayer
 10
58.9549999999999983
 20
5.556
 30
0.0
 11
59.6370000000000005
 21
5.2859999999999996
 31
0.0
  0
LINE
  5
21F
100
AcDbEntity
100
AcDbLine
  8
0
 62
256
370
-1
  6
ByLayer
 10
59.6370000000000005
 20
5.2859999999999996
 30
0.0
 11
60.2800000000000011
 21
4.9329999999999998
 31
0.0
  0
LINE
  5
220
100
AcDbEntity
100
AcDbLine
  8
0
 62
256
370
-1
  6
ByLayer
 10
60.2800000000000011
 20
4.9329999999999998
 30
0.0
 11
60.8740000000000023
 21
4.5010000000000003
 31
0.0
  0
LINE
  5
221
100
AcDbEntity
100
AcDbLine
  8
0
 62
256
370
-1
  6
ByLayer
 10
60.8740000000000023
 20
4.5010000000000003
 30
0.0
 11
61.4089999999999989
 21
3.9990000000000001
 31
0.0
  0
LINE
  5
222
100
AcDbEntity
100
AcDbLine
  8
0
 62
256
370
-1
  6
ByLayer
 10
61.4089999999999989
 20
3.9990000000000001
 30
0.0
 11
61.8759999999999977
 21
3.4340000000000002
 31
0.0
  0
LINE
  5
223
100
AcDbEntity
100
AcDbLine
  8
0
 62
256
370
-1
  6
ByLayer
 10
61.8759999999999977
 20
3.4340000000000002
 30
0.0
 11
62.2689999999999984
 21
2.8140000000000001
 31
0.0
  0
LINE
  5
224
100
AcDbEntity
100
AcDbLine
  8
0
 62
256
370
-1
  6
ByLayer
 10
62.2689999999999984
 20
2.8140000000000001
 30
0.0
 11
62.5820000000000007
 21
2.1509999999999998
 31
0.0
  0
LINE
  5
225
100
AcDbEntity
100
AcDbLine
  8
0
 62
256
370
-1
  6
ByLayer
 10
62.5820000000000007
 20
2.1509999999999998
 30
0.0
 11
62.8079999999999998
 21
1.4530000000000001
 31
0.0
  0
LINE
  5
226
100
AcDbEntity
100
AcDbLine
  8
0
 62
256
370
-1
  6
ByLayer
 10
62.8079999999999998
 20
1.4530000000000001
 30
0.0
 11
62.945999999999998
 21
0.732
 31
0.0
  0
LINE
  5
227
100
AcDbEntity
100
AcDbLine
  8
0
 62
256
370
-1
  6
ByLayer
 10
62.945999999999998
 20
0.732
 30
0.0
 11
62.9919999999999973
 21
0.0
 31
0.0
  0
LINE
  5
228
100
AcDbEntity
100
AcDbLine
  8
0
 62
256
370
-1
  6
ByLayer
 10
62.9919999999999973
 20
0.0
 30
0.0
 11
62.945999999999998
 21
-0.732
 31
0.0
  0
LINE
  5
229
100
AcDbEntity
100
AcDbLine
  8
0
 62
256
370
-1
  6
ByLayer
 10
62.945999999999998
 20
-0.732
 30
0.0
 11
62.8079999999999998
 21
-1.4530000000000001
 31
0.0
  0
LINE
  5
22A
100
AcDbEntity
100
AcDbLine
  8
0
 62
256
370
-1
  6
ByLayer
 10
62.8079999999999998
 20
-1.4530000000000001
 30
0.0
 11
62.5820000000000007
 21
-2.1509999999999998
 31
0.0
  0
LINE
  5
22B
100
AcDbEntity
100
AcDbLine
  8
0
 62
256
370
-1
  6
ByLayer
 10
62.5820000000000007
 20
-2.1509999999999998
 30
0.0
 11
62.2689999999999984
 21
-2.8140000000000001
 31
0.0
  0
LINE
  5
22C
100
AcDbEntity
100
AcDbLine
  8
0
 62
256
370
-1
  6
ByLayer
 10
62.2689999999999984
 20
-2.8140000000000001
 30
0.0
 11
61.8759999999999977
 21
-3.4340000000000002
 31
0.0
  0
LINE
  5
22D
100
AcDbEntity
100
AcDbLine
  8
0
 62
256
370
-1
  6
ByLayer
 10
61.8759999999999977
 20
-3.4340000000000002
 30
0.0
 11
61.4089999999999989
 21
-3.9990000000000001
 31
0.0
  0
LINE
  5
22E
100
AcDbEntity
100
AcDbLine
  8
0
 62
256
370
-1
  6
ByLayer
 10
61.4089999999999989
 20
-3.9990000000000001
 30
0.0
 11
60.8740000000000023
 21
-4.5010000000000003
 31
0.0
  0
LINE
  5
22F
100
AcDbEntity
100
AcDbLine
  8
0
 62
256
370
-1
  6
ByLayer
 10
60.8740000000000023
 20
-4.5010000000000003
 30
0.0
 11
60.2800000000000011
 21
-4.9329999999999998
 31
0.0
  0
LINE
  5
230
100
AcDbEntity
100
AcDbLine
  8
0
 62
256
370
-1
  6
ByLayer
 10
60.2800000000000011
 20
-4.9329999999999998
 30
0.0
 11
59.6370000000000005
 21
-5.2859999999999996
 31
0.0
  0
LINE
  5
231
100
AcDbEntity
100
AcDbLine
  8
0
 62
256
370
-1
  6
ByLayer
 10
59.6370000000000005
 20
-5.2859999999999996
 30
0.0
 11
58.9549999999999983
 21
-5.556
 31
0.0
  0
LINE
  5
232
100
AcDbEntity
100
AcDbLine
  8
0
 62
256
370
-1
  6
ByLayer
 10
58.9549999999999983
 20
-5.556
 30
0.0
 11
58.2449999999999974
 21
-5.7389999999999999
 31
0.0
  0
LINE
  5
233
100
AcDbEntity
100
AcDbLine
  8
0
 62
256
370
-1
  6
ByLayer
 10
58.2449999999999974
 20
-5.7389999999999999
 30
0.0
 11
57.517000000000003
 21
-5.8300000000000001
 31
0.0
  0
LINE
  5
234
100
AcDbEntity
100
AcDbLine
  8
0
 62
256
370
-1
  6
ByLayer
 10
57.517000000000003
 20
-5.8300000000000001
 30
0.0
 11
56.7830000000000013
 21
-5.8300000000000001
 31
0.0
  0
LINE
  5
235
100
AcDbEntity
100
AcDbLine
  8
0
 62
256
370
-1
  6
ByLayer
 10
56.7830000000000013
 20
-5.8300000000000001
 30
0.0
 11
56.0549999999999997
 21
-5.7389999999999999
 31
0.0
  0
LINE
  5
236
100
AcDbEntity
100
AcDbLine
  8
0
 62
256
370
-1
  6
ByLayer
 10
56.0549999999999997
 20
-5.7389999999999999
 30
0.0
 11
55.3449999999999989
 21
-5.556
 31
0.0
  0
LINE
  5
237
100
AcDbEntity
100
AcDbLine
  8
0
 62
256
370
-1
  6
ByLayer
 10
55.3449999999999989
 20
-5.556
 30
0.0
 11
54.6629999999999967
 21
-5.2859999999999996
 31
0.0
  0
LINE
  5
238
100
AcDbEntity
100
AcDbLine
  8
0
 62
256
370
-1
  6
ByLayer
 10
54.6629999999999967
 20
-5.2859999999999996
 30
0.0
 11
54.0200000000000031
 21
-4.9329999999999998
 31
0.0
  0
LINE
  5
239
100
AcDbEntity
100
AcDbLine
  8
0
 62
256
370
-1
  6
ByLayer
 10
54.0200000000000031
 20
-4.9329999999999998
 30
0.0
 11
53.4260000000000019
 21
-4.5010000000000003
 31
0.0
  0
LINE
  5
23A
100
AcDbEntity
100
AcDbLine
  8
0
 62
256
370
-1
  6
ByLayer
 10
53.4260000000000019
 20
-4.5010000000000003
 30
0.0
 11
52.8909999999999982
 21
-3.9990000000000001
 31
0.0
  0
LINE
  5
23B
100
AcDbEntity
100
AcDbLine
  8
0
 62
256
370
-1
  6
ByLayer
 10
52.8909999999999982
 20
-3.9990000000000001
 30
0.0
 11
52.4239999999999995
 21
-3.4340000000000002
 31
0.0
  0
LINE
  5
23C
100
AcDbEntity
100
AcDbLine
  8
0
 62
256
370
-1
  6
ByLayer
 10
52.4239999999999995
 20
-3.4340000000000002
 30
0.0
 11
52.0309999999999988
 21
-2.8140000000000001
 31
0.0
  0
LINE
  5
23D
100
AcDbEntity
100
AcDbLine
  8
0
 62
256
370
-1
  6
ByLayer
 10
52.0309999999999988
 20
-2.8140000000000001
 30
0.0
 11
51.7180000000000035
 21
-2.1509999999999998
 31
0.0
  0
LINE
  5
23E
100
AcDbEntity
100
AcDbLine
  8
0
 62
256
370
-1
  6
ByLayer
 10
51.7180000000000035
 20
-2.1509999999999998
 30
0.0
 11
51.4919999999999973
 21
-1.4530000000000001
 31
0.0
  0
LINE
  5
23F
100
AcDbEntity
100
AcDbLine
  8
0
 62
256
370
-1
  6
ByLayer
 10
51.4919999999999973
 20
-1.4530000000000001
 30
0.0
 11
51.3539999999999992
 21
-0.732
 31
0.0
  0
LINE
  5
240
100
AcDbEntity
100
AcDbLine
  8
0
 62
256
370
-1
  6
ByLayer
 10
51.3539999999999992
 20
-0.732
 30
0.0
 11
51.3079999999999998
 21
0.0
 31
0.0
  0
LINE
  5
241
100
AcDbEntity
100
AcDbLine
  8
0
 62
256
370
-1
  6
ByLayer
 10
70.421999999999997
 20
0.0
 30
0.0
 11
70.4669999999999987
 21
0.724
 31
0.0
  0
LINE
  5
242
100
AcDbEntity
100
AcDbLine
  8
0
 62
256
370
-1
  6
ByLayer
 10
70.4669999999999987
 20
0.724
 30
0.0
 11
70.6029999999999944
 21
1.4370000000000001
 31
0.0
  0
LINE
  5
243
100
AcDbEntity
100
AcDbLine
  8
0
 62
256
370
-1
  6
ByLayer
 10
70.6029999999999944
 20
1.4370000000000001
 30
0.0
 11
70.8269999999999982
 21
2.1269999999999998
 31
0.0
  0
LINE
  5
244
100
AcDbEntity
100
AcDbLine
  8
0
 62
256
370
-1
  6
ByLayer
 10
70.8269999999999982
 20
2.1269999999999998
 30
0.0
 11
71.1359999999999957
 21
2.7839999999999998
 31
0.0
  0
LINE
  5
245
100
AcDbEntity
100
AcDbLine
  8
0
 62
256
370
-1
  6
ByLayer
 10
71.1359999999999957
 20
2.7839999999999998
 30
0.0
 11
71.5250000000000057
 21
3.3969999999999998
 31
0.0
  0
LINE
  5
246
100
AcDbEntity
100
AcDbLine
  8
0
 62
256
370
-1
  6
ByLayer
 10
71.5250000000000057
 20
3.3969999999999998
 30
0.0
 11
71.9879999999999995
 21
3.956
 31
0.0
  0
LINE
  5
247
100
AcDbEntity
100
AcDbLine
  8
0
 62
256
370
-1
  6
ByLayer
 10
71.9879999999999995
 20
3.956
 30
0.0
 11
72.5169999999999959
 21
4.452
 31
0.0
  0
LINE
  5
248
100
AcDbEntity
100
AcDbLine
  8
0
 62
256
370
-1
  6
ByLayer
 10
72.5169999999999959
 20
4.452
 30
0.0
 11
73.1039999999999992
 21
4.8789999999999996
 31
0.0
  0
LINE
  5
249
100
AcDbEntity
100
AcDbLine
  8
0
 62
256
370
-1
  6
ByLayer
 10
73.1039999999999992
 20
4.8789999999999996
 30
0.0
 11
73.7399999999999949
 21
5.2290000000000001
 31
0.0
  0
LINE
  5
24A
100
AcDbEntity
100
AcDbLine
  8
0
 62
256
370
-1
  6
ByLayer
 10
73.7399999999999949
 20
5.2290000000000001
 30
0.0
 11
74.4140000000000015
 21
5.4960000000000004
 31
0.0
  0
LINE
  5
24B
100
AcDbEntity
100
AcDbLine
  8
0
 62
256
370
-1
  6
ByLayer
 10
74.4140000000000015
 20
5.4960000000000004
 30
0.0
 11
75.1170000000000044
 21
5.6760000000000002
 31
0.0
  0
LINE
  5
24C
100
AcDbEntity
100
AcDbLine
  8
0
 62
256
370
-1
  6
ByLayer
 10
75.1170000000000044
 20
5.6760000000000002
 30
0.0
 11
75.8370000000000033
 21
5.7670000000000003
 31
0.0
  0
LINE
  5
24D
100
AcDbEntity
100
AcDbLine
  8
0
 62
256
370
-1
  6
ByLayer
 10
75.8370000000000033
 20
5.7670000000000003
 30
0.0
 11
76.5630000000000024
 21
5.7670000000000003
 31
0.0
  0
LINE
  5
24E
100
AcDbEntity
100
AcDbLine
  8
0
 62
256
370
-1
  6
ByLayer
 10
76.5630000000000024
 20
5.7670000000000003
 30
0.0
 11
77.2830000000000013
 21
5.6760000000000002
 31
0.0
  0
LINE
  5
24F
100
AcDbEntity
100
AcDbLine
  8
0
 62
256
370
-1
  6
ByLayer
 10
77.2830000000000013
 20
5.6760000000000002
 30
0.0
 11
77.9860000000000042
 21
5.4960000000000004
 31
0.0
  0
LINE
  5
250
100
AcDbEntity
100
AcDbLine
  8
0
 62
256
370
-1
  6
ByLayer
 10
77.9860000000000042
 20
5.4960000000000004
 30
0.0
 11
78.6599999999999966
 21
5.2290000000000001
 31
0.0
  0
LINE
  5
251
100
AcDbEntity
100
AcDbLine
  8
0
 62
256
370
-1
  6
ByLayer
 10
78.6599999999999966
 20
5.2290000000000001
 30
0.0
 11
79.2960000000000065
 21
4.8789999999999996
 31
0.0
  0
LINE
  5
252
100
AcDbEntity
100
AcDbLine
  8
0
 62
256
370
-1
  6
ByLayer
 10
79.2960000000000065
 20
4.8789999999999996
 30
0.0
 11
79.8829999999999956
 21
4.452
 31
0.0
  0
LINE
  5
253
100
AcDbEntity
100
AcDbLine
  8
0
 62
256
370
-1
  6
ByLayer
 10
79.8829999999999956
 20
4.452
 30
0.0
 11
80.4120000000000061
 21
3.956
 31
0.0
  0
LINE
  5
254
100
AcDbEntity
100
AcDbLine
  8
0
 62
256
370
-1
  6
ByLayer
 10
80.4120000000000061
 20
3.956
 30
0.0
 11
80.875
 21
3.3969999999999998
 31
0.0
  0
LINE
  5
255
100
AcDbEntity
100
AcDbLine
  8
0
 62
256
370
-1
  6
ByLayer
 10
80.875
 20
3.3969999999999998
 30
0.0
 11
81.2639999999999958
 21
2.7839999999999998
 31
0.0
  0
LINE
  5
256
100
AcDbEntity
100
AcDbLine
  8
0
 62
256
370
-1
  6
ByLayer
 10
81.2639999999999958
 20
2.7839999999999998
 30
0.0
 11
81.5729999999999933
 21
2.1269999999999998
 31
0.0
  0
LINE
  5
257
100
AcDbEntity
100
AcDbLine
  8
0
 62
256
370
-1
  6
ByLayer
 10
81.5729999999999933
 20
2.1269999999999998
 30
0.0
 11
81.796999999999997
 21
1.4370000000000001
 31
0.0
  0
LINE
  5
258
100
AcDbEntity
100
AcDbLine
  8
0
 62
256
370
-1
  6
ByLayer
 10
81.796999999999997
 20
1.4370000000000001
 30
0.0
 11
81.9330000000000069
 21
0.724
 31
0.0
  0
LINE
  5
259
100
AcDbEntity
100
AcDbLine
  8
0
 62
256
370
-1
  6
ByLayer
 10
81.9330000000000069
 20
0.724
 30
0.0
 11
81.9789999999999992
 21
0.0
 31
0.0
  0
LINE
  5
25A
100
AcDbEntity
100
AcDbLine
  8
0
 62
256
370
-1
  6
ByLayer
 10
81.9789999999999992
 20
0.0
 30
0.0
 11
81.9330000000000069
 21
-0.724
 31
0.0
  0
LINE
  5
25B
100
AcDbEntity
100
AcDbLine
  8
0
 62
256
370
-1
  6
ByLayer
 10
81.9330000000000069
 20
-0.724
 30
0.0
 11
81.796999999999997
 21
-1.4370000000000001
 31
0.0
  0
LINE
  5
25C
100
AcDbEntity
100
AcDbLine
  8
0
 62
256
370
-1
  6
ByLayer
 10
81.796999999999997
 20
-1.4370000000000001
 30
0.0
 11
81.5729999999999933
 21
-2.1269999999999998
 31
0.0
  0
LINE
  5
25D
100
AcDbEntity
100
AcDbLine
  8
0
 62
256
370
-1
  6
ByLayer
 10
81.5729999999999933
 20
-2.1269999999999998
 30
0.0
 11
81.2639999999999958
 21
-2.7839999999999998
 31
0.0
  0
LINE
  5
25E
100
AcDbEntity
100
AcDbLine
  8
0
 62
256
370
-1
  6
ByLayer
 10
81.2639999999999958
 20
-2.7839999999999998
 30
0.0
 11
80.875
 21
-3.3969999999999998
 31
0.0
  0
LINE
  5
25F
100
AcDbEntity
100
AcDbLine
  8
0
 62
256
370
-1
  6
ByLayer
 10
80.875
 20
-3.3969999999999998
 30
0.0
 11
80.4120000000000061
 21
-3.956
 31
0.0
  0
LINE
  5
260
100
AcDbEntity
100
AcDbLine
  8
0
 62
256
370
-1
  6
ByLayer
 10
80.4120000000000061
 20
-3.956
 30
0.0
 11
79.8829999999999956
 21
-4.452
 31
0.0
  0
LINE
  5
261
100
AcDbEntity
100
AcDbLine
  8
0
 62
256
370
-1
  6
ByLayer
 10
79.8829999999999956
 20
-4.452
 30
0.0
 11
79.2960000000000065
 21
-4.8789999999999996
 31
0.0
  0
LINE
  5
262
100
AcDbEntity
100
AcDbLine
  8
0
 62
256
370
-1
  6
ByLayer
 10
79.2960000000000065
 20
-4.8789999999999996
 30
0.0
 11
78.6599999999999966
 21
-5.2290000000000001
 31
0.0
  0
LINE
  5
263
100
AcDbEntity
100
AcDbLine
  8
0
 62
256
370
-1
  6
ByLayer
 10
78.6599999999999966
 20
-5.2290000000000001
 30
0.0
 11
77.9860000000000042
 21
-5.4960000000000004
 31
0.0
  0
LINE
  5
264
100
AcDbEntity
100
AcDbLine
  8
0
 62
256
370
-1
  6
ByLayer
 10
77.9860000000000042
 20
-5.4960000000000004
 30
0.0
 11
77.2830000000000013
 21
-5.6760000000000002
 31
0.0
  0
LINE
  5
265
100
AcDbEntity
100
AcDbLine
  8
0
 62
256
370
-1
  6
ByLayer
 10
77.2830000000000013
 20
-5.6760000000000002
 30
0.0
 11
76.5630000000000024
 21
-5.7670000000000003
 31
0.0
  0
LINE
  5
266
100
AcDbEntity
100
AcDbLine
  8
0
 62
256
370
-1
  6
ByLayer
 10
76.5630000000000024
 20
-5.7670000000000003
 30
0.0
 11
75.8370000000000033
 21
-5.7670000000000003
 31
0.0
  0
LINE
  5
267
100
AcDbEntity
100
AcDbLine
  8
0
 62
256
370
-1
  6
ByLayer
 10
75.8370000000000033
 20
-5.7670000000000003
 30
0.0
 11
75.1170000000000044
 21
-5.6760000000000002
 31
0.0
  0
LINE
  5
268
100
AcDbEntity
100
AcDbLine
  8
0
 62
256
370
-1
  6
ByLayer
 10
75.1170000000000044
 20
-5.6760000000000002
 30
0.0
 11
74.4140000000000015
 21
-5.4960000000000004
 31
0.0
  0
LINE
  5
269
100
AcDbEntity
100
AcDbLine
  8
0
 62
256
370
-1
  6
ByLayer
 10
74.4140000000000015
 20
-5.4960000000000004
 30
0.0
 11
73.7399999999999949
 21
-5.2290000000000001
 31
0.0
  0
LINE
  5
26A
100
AcDbEntity
100
AcDbLine
  8
0
 62
256
370
-1
  6
ByLayer
 10
73.7399999999999949
 20
-5.2290000000000001
 30
0.0
 11
73.1039999999999992
 21
-4.8789999999999996
 31
0.0
  0
LINE
  5
26B
100
AcDbEntity
100
AcDbLine
  8
0
 62
256
370
-1
  6
ByLayer
 10
73.1039999999999992
 20
-4.8789999999999996
 30
0.0
 11
72.5169999999999959
 21
-4.452
 31
0.0
  0
LINE
  5
26C
100
AcDbEntity
100
AcDbLine
  8
0
 62
256
370
-1
  6
ByLayer
 10
72.5169999999999959
 20
-4.452
 30
0.0
 11
71.9879999999999995
 21
-3.956
 31
0.0
  0
LINE
  5
26D
100
AcDbEntity
100
AcDbLine
  8
0
 62
256
370
-1
  6
ByLayer
 10
71.9879999999999995
 20
-3.956
 30
0.0
 11
71.5250000000000057
 21
-3.3969999999999998
 31
0.0
  0
LINE
  5
26E
100
AcDbEntity
100
AcDbLine
  8
0
 62
256
370
-1
  6
ByLayer
 10
71.5250000000000057
 20
-3.3969999999999998
 30
0.0
 11
71.1359999999999957
 21
-2.7839999999999998
 31
0.0
  0
LINE
  5
26F
100
AcDbEntity
100
AcDbLine
  8
0
 62
256
370
-1
  6
ByLayer
 10
71.1359999999999957
 20
-2.7839999999999998
 30
0.0
 11
70.8269999999999982
 21
-2.1269999999999998
 31
0.0
  0
LINE
  5
270
100
AcDbEntity
100
AcDbLine
  8
0
 62
256
370
-1
  6
ByLayer
 10
70.8269999999999982
 20
-2.1269999999999998
 30
0.0
 11
70.6029999999999944
 21
-1.4370000000000001
 31
0.0
  0
LINE
  5
271
100
AcDbEntity
100
AcDbLine
  8
0
 62
256
370
-1
  6
ByLayer
 10
70.6029999999999944
 20
-1.4370000000000001
 30
0.0
 11
70.4669999999999987
 21
-0.724
 31
0.0
  0
LINE
  5
272
100
AcDbEntity
100
AcDbLine
  8
0
 62
256
370
-1
  6
ByLayer
 10
70.4669999999999987
 20
-0.724
 30
0.0
 11
70.421999999999997
 21
0.0
 31
0.0
  0
ENDSEC
  0
SECTION
  2
OBJECTS
  0
DICTIONARY
  5
C
100
AcDbDictionary
280
0
281
1
  3
ACAD_GROUP
350
D
  3
ACAD_LAYOUT
350
1A
  3
ACAD_MLINESTYLE
350
17
  3
ACAD_PLOTSETTINGS
350
19
  3
ACAD_PLOTSTYLENAME
350
E
  3
AcDbVariableDictionary
350
273
  0
DICTIONARY
  5
D
100
AcDbDictionary
280
0
281
1
  0
ACDBDICTIONARYWDFLT
  5
E
100
AcDbDictionary
281
1
  3
Normal
350
F
100
AcDbDictionaryWithDefault
340
F
  0
ACDBPLACEHOLDER
  5
F
  0
DICTIONARY
  5
17
100
AcDbDictionary
280
0
281
1
  3
Standard
350
18
  0
MLINESTYLE
  5
18
100
AcDbMlineStyle
  2
STANDARD
 70
0
  3

 62
256
 51
90.0
 52
90.0
 71
2
 49
0.5
 62
256
  6
BYLAYER
 49
-0.5
 62
256
  6
BYLAYER
  0
DICTIONARY
  5
19
100
AcDbDictionary
280
0
281
1
  0
DICTIONARY
  5
1A
100
AcDbDictionary
281
1
  3
Layout1
350
1E
  3
Layout2
350
26
  3
Model
350
22
  0
LAYOUT
  5
1E
100
AcDbPlotSettings
  1

  2
C:\Program Files\AutoCAD 2002\plotters\DWF ePlot (optimized for plotting).pc3
  4

  6

 40
0.0
 41
0.0
 42
0.0
 43
0.0
 44
0.0
 45
0.0
 46
0.0
 47
0.0
 48
0.0
 49
0.0
140
0.0
141
0.0
142
1.0
143
1.0
 70
688
 72
0
 73
0
 74
5
  7

 75
16
147
1.0
148
0.0
149
0.0
100
AcDbLayout
  1
Layout1
 70
1
 71
1
 10
0.0
 20
0.0
 11
420.0
 21
297.0
 12
0.0
 22
0.0
 32
0.0
 14
100000000000000000000.0
 24
100000000000000000000.0
 34
100000000000000000000.0
 15
-100000000000000000000.0
 25
-100000000000000000000.0
 35
-100000000000000000000.0
146
0.0
 13
0.0
 23
0.0
 33
0.0
 16
1.0
 26
0.0
 36
0.0
 17
0.0
 27
1.0
 37
0.0
 76
0
330
1B
  0
LAYOUT
  5
22
100
AcDbPlotSettings
  1

  2
C:\Program Files\AutoCAD 2002\plotters\DWF ePlot (optimized for plotting).pc3
  4

  6

 40
0.0
 41
0.0
 42
0.0
 43
0.0
 44
0.0
 45
0.0
 46
0.0
 47
0.0
 48
0.0
 49
0.0
140
0.0
141
0.0
142
1.0
143
1.0
 70
1712
 72
0
 73
0
 74
0
  7

 75
0
147
1.0
148
0.0
149
0.0
100
AcDbLayout
  1
Model
 70
1
 71
0
 10
0.0
 20
0.0
 11
12.0
 21
9.0
 12
0.0
 22
0.0
 32
0.0
 14
0.0
 24
0.0
 34
0.0
 15
0.0
 25
0.0
 35
0.0
146
0.0
 13
0.0
 23
0.0
 33
0.0
 16
1.0
 26
0.0
 36
0.0
 17
0.0
 27
1.0
 37
0.0
 76
0
330
1F
  0
LAYOUT
  5
26
100
AcDbPlotSettings
  1

  2
C:\Program Files\AutoCAD 2002\plotters\DWF ePlot (optimized for plotting).pc3
  4

  6

 40
0.0
 41
0.0
 42
0.0
 43
0.0
 44
0.0
 45
0.0
 46
0.0
 47
0.0
 48
0.0
 49
0.0
140
0.0
141
0.0
142
1.0
143
1.0
 70
688
 72
0
 73
0
 74
5
  7

 75
16
147
1.0
148
0.0
149
0.0
100
AcDbLayout
  1
Layout2
 70
1
 71
2
 10
0.0
 20
0.0
 11
12.0
 21
9.0
 12
0.0
 22
0.0
 32
0.0
 14
0.0
 24
0.0
 34
0.0
 15
0.0
 25
0.0
 35
0.0
146
0.0
 13
0.0
 23
0.0
 33
0.0
 16
1.0
 26
0.0
 36
0.0
 17
0.0
 27
1.0
 37
0.0
 76
0
330
23
  0
DICTIONARY
  5
273
100
AcDbDictionary
281
1
  3
DIMASSOC
350
275
  3
HIDETEXT
350
274
  0
DICTIONARYVAR
  5
274
100
DictionaryVariables
280
0
  1
2
  0
DICTIONARYVAR
  5
275
100
DictionaryVariables
280
0
  1
1
  0
ENDSEC
  0
EOF
